solid
 facet normal -0.093597997075352476 -0.99144369549078493 -0.090987986102880697
  outer loop
   vertex 0.063045918941497803 0.0040889019146561623 0.48925116658210754
   vertex 0.42464816570281982 0.0023057672660797834 0.13670606911182404
   vertex 0.085061438381671906 1.000000082740371e-09 0.5111585259437561
  endloop
 endfacet
 facet normal -0.069479071173691523 -0.99518471544823106 -0.069137839184229263
  outer loop
   vertex 0.085061438381671906 1.000000082740371e-09 0.5111585259437561
   vertex 0.42464816570281982 0.0023057672660797834 0.13670606911182404
   vertex 0.42470338940620422 1.000000082740371e-09 0.1698402613401413
  endloop
 endfacet
 facet normal 0.069478946986800225 -0.99518473270353958 0.069137715607256026
  outer loop
   vertex 0.085061438381671906 1.000000082740371e-09 0.5111585259437561
   vertex 0.42470338940620422 1.000000082740371e-09 0.1698402613401413
   vertex 0.4247586727142334 0.0023057672660797834 0.20297445356845856
  endloop
 endfacet
 facet normal -0.20440814554926026 -0.95721830367282645 -0.20481803911479379
  outer loop
   vertex 0.42464816570281982 0.0023057672660797834 0.13670606911182404
   vertex 0.063045918941497803 0.0040889019146561623 0.48925116658210754
   vertex 0.42459499835968018 0.0091344565153121948 0.10484521090984344
  endloop
 endfacet
 facet normal -0.27263541884889808 -0.9238778861748651 -0.26855088870854388
  outer loop
   vertex 0.42459499835968018 0.0091344565153121948 0.10484521090984344
   vertex 0.063045918941497803 0.0040889019146561623 0.48925116658210754
   vertex 0.042530719190835953 0.016076952219009399 0.46883669495582581
  endloop
 endfacet
 facet normal -0.33295438955782114 -0.88231532992456319 -0.33265753118528357
  outer loop
   vertex 0.42459499835968018 0.0091344565153121948 0.10484521090984344
   vertex 0.042530719190835953 0.016076952219009399 0.46883669495582581
   vertex 0.42454606294631958 0.020223647356033325 0.075482070446014404
  endloop
 endfacet
 facet normal -0.43250755702971444 -0.79335241571963755 -0.42840303171663452
  outer loop
   vertex 0.42454606294631958 0.020223647356033325 0.075482070446014404
   vertex 0.042530719190835953 0.016076952219009399 0.46883669495582581
   vertex 0.02491392008960247 0.035147186368703842 0.45130643248558044
  endloop
 endfacet
 facet normal -0.44968649527319443 -0.77301068712013676 -0.44747796992362127
  outer loop
   vertex 0.42454606294631958 0.020223647356033325 0.075482070446014404
   vertex 0.02491392008960247 0.035147186368703842 0.45130643248558044
   vertex 0.42450311779975891 0.035147186368703842 0.049745064228773117
  endloop
 endfacet
 facet normal -0.54794482685929469 -0.63439328254862037 -0.54525372972160757
  outer loop
   vertex 0.42450311779975891 0.035147186368703842 0.049745064228773117
   vertex 0.02491392008960247 0.035147186368703842 0.45130643248558044
   vertex 0.42446789145469666 0.053331572562456131 0.028623245656490326
  endloop
 endfacet
 facet normal -0.56329798743714776 -0.60876093875854931 -0.5586640285458413
  outer loop
   vertex 0.42446789145469666 0.053331572562456131 0.028623245656490326
   vertex 0.02491392008960247 0.035147186368703842 0.45130643248558044
   vertex 0.011396072804927826 0.059999998658895493 0.43785497546195984
  endloop
 endfacet
 facet normal -0.62438795825539162 -0.47176176648484919 -0.62255964635427341
  outer loop
   vertex 0.42446789145469666 0.053331572562456131 0.028623245656490326
   vertex 0.011396072804927826 0.059999998658895493 0.43785497546195984
   vertex 0.42444172501564026 0.074077986180782318 0.012928321026265621
  endloop
 endfacet
 facet normal -0.65610859973365632 -0.38268327611073755 -0.65044216925157439
  outer loop
   vertex 0.42444172501564026 0.074077986180782318 0.012928321026265621
   vertex 0.011396072804927826 0.059999998658895493 0.43785497546195984
   vertex 0.002898399019613862 0.088941715657711029 0.42939901351928711
  endloop
 endfacet
 facet normal -0.67766420354140333 -0.29052392016529904 -0.67554946454747677
  outer loop
   vertex 0.42444172501564026 0.074077986180782318 0.012928321026265621
   vertex 0.002898399019613862 0.088941715657711029 0.42939901351928711
   vertex 0.42442560195922852 0.096589162945747375 0.0032634339295327663
  endloop
 endfacet
 facet normal -0.70194567517285889 -0.14657468605644189 -0.69698502890203806
  outer loop
   vertex 0.42442560195922852 0.096589162945747375 0.0032634339295327663
   vertex 0.002898399019613862 0.088941715657711029 0.42939901351928711
   vertex 0.4244215190410614 0.10823794454336166 0.00081782828783616424
  endloop
 endfacet
 facet normal -0.70390938557955973 -0.13052573242164889 -0.69819381984431694
  outer loop
   vertex 0.4244215190410614 0.10823794454336166 0.00081782828783616424
   vertex 0.002898399019613862 0.088941715657711029 0.42939901351928711
   vertex 9.9999997171806854e-10 0.11999999731779099 0.42651486396789551
  endloop
 endfacet
 facet normal -0.70799144239317735 -0.049068104321933231 -0.70451432819800053
  outer loop
   vertex 0.4244215190410614 0.10823794454336166 0.00081782828783616424
   vertex 9.9999997171806854e-10 0.11999999731779099 0.42651486396789551
   vertex 0.42442014813423157 0.11999999731779099 9.9999997171806854e-10
  endloop
 endfacet
 facet normal -0.70799144347295218 0.049068073314979824 -0.70451432927247226
  outer loop
   vertex 0.42442014813423157 0.11999999731779099 9.9999997171806854e-10
   vertex 9.9999997171806854e-10 0.11999999731779099 0.42651486396789551
   vertex 0.4244215190410614 0.1317620575428009 0.00081782828783616424
  endloop
 endfacet
 facet normal -0.70390938916427892 0.13052570164304797 -0.69819382198424085
  outer loop
   vertex 0.4244215190410614 0.1317620575428009 0.00081782828783616424
   vertex 9.9999997171806854e-10 0.11999999731779099 0.42651486396789551
   vertex 0.002898399019613862 0.15105828642845154 0.42939901351928711
  endloop
 endfacet
 facet normal -0.70194568699531068 0.146574593881132 -0.69698503637973641
  outer loop
   vertex 0.4244215190410614 0.1317620575428009 0.00081782828783616424
   vertex 0.002898399019613862 0.15105828642845154 0.42939901351928711
   vertex 0.42442560195922852 0.14341084659099579 0.0032634339295327663
  endloop
 endfacet
 facet normal -0.67766418644357374 0.29052400753953656 -0.67554944412303131
  outer loop
   vertex 0.42442560195922852 0.14341084659099579 0.0032634339295327663
   vertex 0.002898399019613862 0.15105828642845154 0.42939901351928711
   vertex 0.42444172501564026 0.16592201590538025 0.012928321026265621
  endloop
 endfacet
 facet normal -0.65610861123126274 0.38268323406736432 -0.65044218238973917
  outer loop
   vertex 0.42444172501564026 0.16592201590538025 0.012928321026265621
   vertex 0.002898399019613862 0.15105828642845154 0.42939901351928711
   vertex 0.011396072804927826 0.18000000715255737 0.43785497546195984
  endloop
 endfacet
 facet normal -0.62438792894787865 0.47176183443934966 -0.62255962425345124
  outer loop
   vertex 0.42444172501564026 0.16592201590538025 0.012928321026265621
   vertex 0.011396072804927826 0.18000000715255737 0.43785497546195984
   vertex 0.42446789145469666 0.18666842579841614 0.028623245656490326
  endloop
 endfacet
 facet normal -0.56329798194072722 0.60876093876483528 -0.55866403408100362
  outer loop
   vertex 0.42446789145469666 0.18666842579841614 0.028623245656490326
   vertex 0.011396072804927826 0.18000000715255737 0.43785497546195984
   vertex 0.02491392008960247 0.20485281944274902 0.45130643248558044
  endloop
 endfacet
 facet normal -0.54794491721285987 0.63439312723100594 -0.54525381963142328
  outer loop
   vertex 0.42446789145469666 0.18666842579841614 0.028623245656490326
   vertex 0.02491392008960247 0.20485281944274902 0.45130643248558044
   vertex 0.42450311779975891 0.20485281944274902 0.049745064228773117
  endloop
 endfacet
 facet normal -0.44968629404418525 0.77301092009649186 -0.44747776968289915
  outer loop
   vertex 0.42450311779975891 0.20485281944274902 0.049745064228773117
   vertex 0.02491392008960247 0.20485281944274902 0.45130643248558044
   vertex 0.42454606294631958 0.21977634727954865 0.075482070446014404
  endloop
 endfacet
 facet normal -0.4325075958379454 0.79335235830871709 -0.42840309885489564
  outer loop
   vertex 0.42454606294631958 0.21977634727954865 0.075482070446014404
   vertex 0.02491392008960247 0.20485281944274902 0.45130643248558044
   vertex 0.042530719190835953 0.22392305731773376 0.46883669495582581
  endloop
 endfacet
 facet normal -0.33295435900301829 0.88231534000091516 -0.33265753504160822
  outer loop
   vertex 0.42454606294631958 0.21977634727954865 0.075482070446014404
   vertex 0.042530719190835953 0.22392305731773376 0.46883669495582581
   vertex 0.42459499835968018 0.23086553812026978 0.10484521090984344
  endloop
 endfacet
 facet normal -0.27263527856507674 0.92387795978866472 -0.26855077787725262
  outer loop
   vertex 0.42459499835968018 0.23086553812026978 0.10484521090984344
   vertex 0.042530719190835953 0.22392305731773376 0.46883669495582581
   vertex 0.063045918941497803 0.23591110110282898 0.48925116658210754
  endloop
 endfacet
 facet normal -0.20440830850446112 0.95721823181587407 -0.20481821230944447
  outer loop
   vertex 0.42459499835968018 0.23086553812026978 0.10484521090984344
   vertex 0.063045918941497803 0.23591110110282898 0.48925116658210754
   vertex 0.42464816570281982 0.23769423365592957 0.13670606911182404
  endloop
 endfacet
 facet normal -0.09359783253326498 0.99144372598631769 -0.090987823072334384
  outer loop
   vertex 0.42464816570281982 0.23769423365592957 0.13670606911182404
   vertex 0.063045918941497803 0.23591110110282898 0.48925116658210754
   vertex 0.085061438381671906 0.23999999463558197 0.5111585259437561
  endloop
 endfacet
 facet normal -0.069478913409514759 0.99518473736897362 -0.069137682194878397
  outer loop
   vertex 0.42464816570281982 0.23769423365592957 0.13670606911182404
   vertex 0.085061438381671906 0.23999999463558197 0.5111585259437561
   vertex 0.42470338940620422 0.23999999463558197 0.1698402613401413
  endloop
 endfacet
 facet normal 0.069478789222899975 0.99518475462420408 0.069137558618180314
  outer loop
   vertex 0.42470338940620422 0.23999999463558197 0.1698402613401413
   vertex 0.085061438381671906 0.23999999463558197 0.5111585259437561
   vertex 0.4247586727142334 0.23769423365592957 0.20297445356845856
  endloop
 endfacet
 facet normal 0.091337374362850832 0.99144348932323934 0.093259270440317593
  outer loop
   vertex 0.4247586727142334 0.23769423365592957 0.20297445356845856
   vertex 0.085061438381671906 0.23999999463558197 0.5111585259437561
   vertex 0.10707695782184601 0.23591110110282898 0.53306591510772705
  endloop
 endfacet
 facet normal 0.20731182656626901 0.95662198502372242 0.20468557432078666
  outer loop
   vertex 0.4247586727142334 0.23769423365592957 0.20297445356845856
   vertex 0.10707695782184601 0.23591110110282898 0.53306591510772705
   vertex 0.42481184005737305 0.23086553812026978 0.23483531177043915
  endloop
 endfacet
 facet normal 0.26959957988123623 0.92387715591893049 0.27160093390673196
  outer loop
   vertex 0.42481184005737305 0.23086553812026978 0.23483531177043915
   vertex 0.10707695782184601 0.23591110110282898 0.53306591510772705
   vertex 0.12759216129779816 0.22392305731773376 0.55348038673400879
  endloop
 endfacet
 facet normal 0.33567904906576834 0.88141264661588059 0.33231208585287786
  outer loop
   vertex 0.42481184005737305 0.23086553812026978 0.23483531177043915
   vertex 0.12759216129779816 0.22392305731773376 0.55348038673400879
   vertex 0.42486077547073364 0.21977634727954865 0.26419845223426819
  endloop
 endfacet
 facet normal 0.4302077149947901 0.79335222533254746 0.43071286087004235
  outer loop
   vertex 0.42486077547073364 0.21977634727954865 0.26419845223426819
   vertex 0.12759216129779816 0.22392305731773376 0.55348038673400879
   vertex 0.14520895481109619 0.20485281944274902 0.57101070880889893
  endloop
 endfacet
 facet normal 0.44968623009726366 0.7730110321157545 0.44747764043385119
  outer loop
   vertex 0.42486077547073364 0.21977634727954865 0.26419845223426819
   vertex 0.14520895481109619 0.20485281944274902 0.57101070880889893
   vertex 0.42490372061729431 0.20485281944274902 0.28993546962738037
  endloop
 endfacet
 facet normal 0.54794516752762035 0.63439276565942726 0.54525398876313702
  outer loop
   vertex 0.42490372061729431 0.20485281944274902 0.28993546962738037
   vertex 0.14520895481109619 0.20485281944274902 0.57101070880889893
   vertex 0.42493894696235657 0.18666842579841614 0.31105726957321167
  endloop
 endfacet
 facet normal 0.56094124266742273 0.60875951911030413 0.56103187981372227
  outer loop
   vertex 0.42493894696235657 0.18666842579841614 0.31105726957321167
   vertex 0.14520895481109619 0.20485281944274902 0.57101070880889893
   vertex 0.15872681140899658 0.18000000715255737 0.58446210622787476
  endloop
 endfacet
 facet normal 0.62631829962752139 0.47082990631191463 0.62132486420068855
  outer loop
   vertex 0.42493894696235657 0.18666842579841614 0.31105726957321167
   vertex 0.15872681140899658 0.18000000715255737 0.58446210622787476
   vertex 0.42496511340141296 0.16592201590538025 0.3267521858215332
  endloop
 endfacet
 facet normal 0.6529306997852794 0.38268141252315668 0.65363325939488959
  outer loop
   vertex 0.42496511340141296 0.16592201590538025 0.3267521858215332
   vertex 0.15872681140899658 0.18000000715255737 0.58446210622787476
   vertex 0.1672244668006897 0.15105828642845154 0.5929180383682251
  endloop
 endfacet
 facet normal 0.67939586747161829 0.28989415558932624 0.67407910056434672
  outer loop
   vertex 0.42496511340141296 0.16592201590538025 0.3267521858215332
   vertex 0.1672244668006897 0.15105828642845154 0.5929180383682251
   vertex 0.42498123645782471 0.14341084659099579 0.33641707897186279
  endloop
 endfacet
 facet normal 0.69990421822663018 0.14698627900611216 0.69894858115065017
  outer loop
   vertex 0.42498123645782471 0.14341084659099579 0.33641707897186279
   vertex 0.1672244668006897 0.15105828642845154 0.5929180383682251
   vertex 0.42498531937599182 0.1317620575428009 0.33886268734931946
  endloop
 endfacet
 facet normal 0.70090276458981082 0.13052699383715829 0.70121182139935068
  outer loop
   vertex 0.42498531937599182 0.1317620575428009 0.33886268734931946
   vertex 0.1672244668006897 0.15105828642845154 0.5929180383682251
   vertex 0.17012287676334381 0.11999999731779099 0.59580224752426147
  endloop
 endfacet
 facet normal 0.70799147755327718 0.049068550387922835 0.70451426179656229
  outer loop
   vertex 0.42498531937599182 0.1317620575428009 0.33886268734931946
   vertex 0.17012287676334381 0.11999999731779099 0.59580224752426147
   vertex 0.42498669028282166 0.11999999731779099 0.33968052268028259
  endloop
 endfacet
 facet normal 0.7079914764734816 -0.049068581395176267 0.70451426072206991
  outer loop
   vertex 0.42498669028282166 0.11999999731779099 0.33968052268028259
   vertex 0.17012287676334381 0.11999999731779099 0.59580224752426147
   vertex 0.42498531937599182 0.10823794454336166 0.33886268734931946
  endloop
 endfacet
 facet normal 0.7009027629059047 -0.13052702461642185 0.70121181735311122
  outer loop
   vertex 0.42498531937599182 0.10823794454336166 0.33886268734931946
   vertex 0.17012287676334381 0.11999999731779099 0.59580224752426147
   vertex 0.1672244668006897 0.088941715657711029 0.5929180383682251
  endloop
 endfacet
 facet normal 0.69990421214505283 -0.14698637026600747 0.69894856804892092
  outer loop
   vertex 0.42498531937599182 0.10823794454336166 0.33886268734931946
   vertex 0.1672244668006897 0.088941715657711029 0.5929180383682251
   vertex 0.42498123645782471 0.096589162945747375 0.33641707897186279
  endloop
 endfacet
 facet normal 0.67939588934694217 -0.2898940666194762 0.67407911677880972
  outer loop
   vertex 0.42498123645782471 0.096589162945747375 0.33641707897186279
   vertex 0.1672244668006897 0.088941715657711029 0.5929180383682251
   vertex 0.42496511340141296 0.074077986180782318 0.3267521858215332
  endloop
 endfacet
 facet normal 0.65293068607999194 -0.38268145456512298 0.65363324847121473
  outer loop
   vertex 0.42496511340141296 0.074077986180782318 0.3267521858215332
   vertex 0.1672244668006897 0.088941715657711029 0.5929180383682251
   vertex 0.15872681140899658 0.059999998658895493 0.58446210622787476
  endloop
 endfacet
 facet normal 0.62631831784171776 -0.4708298437603245 0.62132489324068552
  outer loop
   vertex 0.42496511340141296 0.074077986180782318 0.3267521858215332
   vertex 0.15872681140899658 0.059999998658895493 0.58446210622787476
   vertex 0.42493894696235657 0.053331572562456131 0.31105726957321167
  endloop
 endfacet
 facet normal 0.56094123426970499 -0.60875951909569381 0.56103188822593641
  outer loop
   vertex 0.42493894696235657 0.053331572562456131 0.31105726957321167
   vertex 0.15872681140899658 0.059999998658895493 0.58446210622787476
   vertex 0.14520895481109619 0.035147186368703842 0.57101070880889893
  endloop
 endfacet
 facet normal 0.54794507717411678 -0.63439292097707234 0.54525389885339581
  outer loop
   vertex 0.42493894696235657 0.053331572562456131 0.31105726957321167
   vertex 0.14520895481109619 0.035147186368703842 0.57101070880889893
   vertex 0.42490372061729431 0.035147186368703842 0.28993546962738037
  endloop
 endfacet
 facet normal 0.44968643132630259 -0.77301079913946591 0.44747784067457347
  outer loop
   vertex 0.42490372061729431 0.035147186368703842 0.28993546962738037
   vertex 0.14520895481109619 0.035147186368703842 0.57101070880889893
   vertex 0.42486077547073364 0.020223647356033325 0.26419845223426819
  endloop
 endfacet
 facet normal 0.43020764306530485 -0.79335228272652669 0.43071282699822677
  outer loop
   vertex 0.42486077547073364 0.020223647356033325 0.26419845223426819
   vertex 0.14520895481109619 0.035147186368703842 0.57101070880889893
   vertex 0.12759216129779816 0.016076952219009399 0.55348038673400879
  endloop
 endfacet
 facet normal 0.33567900991704319 -0.88141265964553661 0.33231209083886026
  outer loop
   vertex 0.42486077547073364 0.020223647356033325 0.26419845223426819
   vertex 0.12759216129779816 0.016076952219009399 0.55348038673400879
   vertex 0.42481184005737305 0.0091344565153121948 0.23483531177043915
  endloop
 endfacet
 facet normal 0.2695996883590534 -0.92387708228809495 0.27160107669068251
  outer loop
   vertex 0.42481184005737305 0.0091344565153121948 0.23483531177043915
   vertex 0.12759216129779816 0.016076952219009399 0.55348038673400879
   vertex 0.10707695782184601 0.0040889019146561623 0.53306591510772705
  endloop
 endfacet
 facet normal 0.20731164116367892 -0.95662206199303312 0.20468540237696345
  outer loop
   vertex 0.42481184005737305 0.0091344565153121948 0.23483531177043915
   vertex 0.10707695782184601 0.0040889019146561623 0.53306591510772705
   vertex 0.4247586727142334 0.0023057672660797834 0.20297445356845856
  endloop
 endfacet
 facet normal 0.091337538165341792 -0.99144345882759199 0.093259434213788031
  outer loop
   vertex 0.4247586727142334 0.0023057672660797834 0.20297445356845856
   vertex 0.10707695782184601 0.0040889019146561623 0.53306591510772705
   vertex 0.085061438381671906 1.000000082740371e-09 0.5111585259437561
  endloop
 endfacet
 facet normal -0.70536363335166619 -2.5832426364211716e-06 0.7088456423920958
  outer loop
   vertex 0.085061438381671906 1.000000082740371e-09 0.5111585259437561
   vertex 0.10707695782184601 0.0040889019146561623 0.53306591510772705
   vertex 0.063045918941497803 0.0040889019146561623 0.48925116658210754
  endloop
 endfacet
 facet normal -0.70536363335127894 2.7876897413290252e-06 0.70884564239170667
  outer loop
   vertex 0.063045918941497803 0.0040889019146561623 0.48925116658210754
   vertex 0.10707695782184601 0.0040889019146561623 0.53306591510772705
   vertex 0.042530719190835953 0.016076952219009399 0.46883669495582581
  endloop
 endfacet
 facet normal -0.70536401264623672 -1.2766864471583755e-06 0.70884526496406086
  outer loop
   vertex 0.042530719190835953 0.016076952219009399 0.46883669495582581
   vertex 0.10707695782184601 0.0040889019146561623 0.53306591510772705
   vertex 0.12759216129779816 0.016076952219009399 0.55348038673400879
  endloop
 endfacet
 facet normal -0.7053640126466586 -6.5853507414275818e-07 0.70884526496448486
  outer loop
   vertex 0.042530719190835953 0.016076952219009399 0.46883669495582581
   vertex 0.12759216129779816 0.016076952219009399 0.55348038673400879
   vertex 0.02491392008960247 0.035147186368703842 0.45130643248558044
  endloop
 endfacet
 facet normal -0.70536410067496136 -1.6018257420809872e-06 0.70884517736698838
  outer loop
   vertex 0.02491392008960247 0.035147186368703842 0.45130643248558044
   vertex 0.12759216129779816 0.016076952219009399 0.55348038673400879
   vertex 0.14520895481109619 0.035147186368703842 0.57101070880889893
  endloop
 endfacet
 facet normal -0.70536410067585831 -1.5101965871246436e-07 0.70884517736788966
  outer loop
   vertex 0.02491392008960247 0.035147186368703842 0.45130643248558044
   vertex 0.14520895481109619 0.035147186368703842 0.57101070880889893
   vertex 0.011396072804927826 0.059999998658895493 0.43785497546195984
  endloop
 endfacet
 facet normal -0.70536390857780051 1.9074270629406206e-06 0.7088453685199686
  outer loop
   vertex 0.011396072804927826 0.059999998658895493 0.43785497546195984
   vertex 0.14520895481109619 0.035147186368703842 0.57101070880889893
   vertex 0.15872681140899658 0.059999998658895493 0.58446210622787476
  endloop
 endfacet
 facet normal -0.70536390857896103 5.8961313559988349e-07 0.70884536852113478
  outer loop
   vertex 0.011396072804927826 0.059999998658895493 0.43785497546195984
   vertex 0.15872681140899658 0.059999998658895493 0.58446210622787476
   vertex 0.002898399019613862 0.088941715657711029 0.42939901351928711
  endloop
 endfacet
 facet normal -0.70536398801164468 -2.6156036822689591e-07 0.70884528947876912
  outer loop
   vertex 0.002898399019613862 0.088941715657711029 0.42939901351928711
   vertex 0.15872681140899658 0.059999998658895493 0.58446210622787476
   vertex 0.1672244668006897 0.088941715657711029 0.5929180383682251
  endloop
 endfacet
 facet normal -0.70536398801163391 -3.1432207896816829e-07 0.70884528947875836
  outer loop
   vertex 0.002898399019613862 0.088941715657711029 0.42939901351928711
   vertex 0.1672244668006897 0.088941715657711029 0.5929180383682251
   vertex 9.9999997171806854e-10 0.11999999731779099 0.42651486396789551
  endloop
 endfacet
 facet normal -0.70536403025176508 -7.6695538196262897e-07 0.70884524744573052
  outer loop
   vertex 9.9999997171806854e-10 0.11999999731779099 0.42651486396789551
   vertex 0.1672244668006897 0.088941715657711029 0.5929180383682251
   vertex 0.17012287676334381 0.11999999731779099 0.59580224752426147
  endloop
 endfacet
 facet normal -0.70536403025193584 3.2216719617811125e-07 0.70884524744590216
  outer loop
   vertex 9.9999997171806854e-10 0.11999999731779099 0.42651486396789551
   vertex 0.17012287676334381 0.11999999731779099 0.59580224752426147
   vertex 0.002898399019613862 0.15105828642845154 0.42939901351928711
  endloop
 endfacet
 facet normal -0.70536398801145705 7.7480048718689205e-07 0.7088452894785805
  outer loop
   vertex 0.002898399019613862 0.15105828642845154 0.42939901351928711
   vertex 0.17012287676334381 0.11999999731779099 0.59580224752426147
   vertex 0.1672244668006897 0.15105828642845154 0.5929180383682251
  endloop
 endfacet
 facet normal -0.70536398801156486 -5.4319659806876604e-07 0.70884528947868886
  outer loop
   vertex 0.002898399019613862 0.15105828642845154 0.42939901351928711
   vertex 0.1672244668006897 0.15105828642845154 0.5929180383682251
   vertex 0.011396072804927826 0.18000000715255737 0.43785497546195984
  endloop
 endfacet
 facet normal -0.70536390857905018 3.0797666432213452e-07 0.70884536852122437
  outer loop
   vertex 0.011396072804927826 0.18000000715255737 0.43785497546195984
   vertex 0.1672244668006897 0.15105828642845154 0.5929180383682251
   vertex 0.15872681140899658 0.18000000715255737 0.58446210622787476
  endloop
 endfacet
 facet normal -0.70536390857908249 -5.6925668454625079e-08 0.7088453685212569
  outer loop
   vertex 0.011396072804927826 0.18000000715255737 0.43785497546195984
   vertex 0.15872681140899658 0.18000000715255737 0.58446210622787476
   vertex 0.02491392008960247 0.20485281944274902 0.45130643248558044
  endloop
 endfacet
 facet normal -0.70536410067428801 -2.1153720036476718e-06 0.7088451773663117
  outer loop
   vertex 0.02491392008960247 0.20485281944274902 0.45130643248558044
   vertex 0.15872681140899658 0.18000000715255737 0.58446210622787476
   vertex 0.14520895481109619 0.20485281944274902 0.57101070880889893
  endloop
 endfacet
 facet normal -0.70536410067562894 8.2037792047911536e-07 0.70884517736765917
  outer loop
   vertex 0.02491392008960247 0.20485281944274902 0.45130643248558044
   vertex 0.14520895481109619 0.20485281944274902 0.57101070880889893
   vertex 0.042530719190835953 0.22392305731773376 0.46883669495582581
  endloop
 endfacet
 facet normal -0.70536401264571458 1.7636686521412372e-06 0.70884526496353617
  outer loop
   vertex 0.042530719190835953 0.22392305731773376 0.46883669495582581
   vertex 0.14520895481109619 0.20485281944274902 0.57101070880889893
   vertex 0.12759216129779816 0.22392305731773376 0.55348038673400879
  endloop
 endfacet
 facet normal -0.70536401264602233 -1.4958793432925329e-06 0.70884526496384548
  outer loop
   vertex 0.042530719190835953 0.22392305731773376 0.46883669495582581
   vertex 0.12759216129779816 0.22392305731773376 0.55348038673400879
   vertex 0.063045918941497803 0.23591110110282898 0.48925116658210754
  endloop
 endfacet
 facet normal -0.70536363335169305 2.5684991733239625e-06 0.70884564239212278
  outer loop
   vertex 0.063045918941497803 0.23591110110282898 0.48925116658210754
   vertex 0.12759216129779816 0.22392305731773376 0.55348038673400879
   vertex 0.10707695782184601 0.23591110110282898 0.53306591510772705
  endloop
 endfacet
 facet normal -0.70536363335166619 2.5832473000903633e-06 0.70884564239209569
  outer loop
   vertex 0.063045918941497803 0.23591110110282898 0.48925116658210754
   vertex 0.10707695782184601 0.23591110110282898 0.53306591510772705
   vertex 0.085061438381671906 0.23999999463558197 0.5111585259437561
  endloop
 endfacet
 facet normal -0.069248018906230308 -0.99518472118197432 0.069369176177308076
  outer loop
   vertex 0.4247586727142334 0.0023057672660797834 0.20297445356845856
   vertex 0.42470338940620422 1.000000082740371e-09 0.1698402613401413
   vertex 0.76625418663024902 9.9999997171806854e-10 0.51079452037811279
  endloop
 endfacet
 facet normal 0.069247895543929197 -0.99518473837988009 -0.069369052599171255
  outer loop
   vertex 0.76625418663024902 9.9999997171806854e-10 0.51079452037811279
   vertex 0.42470338940620422 1.000000082740371e-09 0.1698402613401413
   vertex 0.42464816570281982 0.0023057672660797834 0.13670606911182404
  endloop
 endfacet
 facet normal 0.093291533407466015 -0.99144372131870129 -0.091301901689992082
  outer loop
   vertex 0.76625418663024902 9.9999997171806854e-10 0.51079452037811279
   vertex 0.42464816570281982 0.0023057672660797834 0.13670606911182404
   vertex 0.78819650411605835 0.0040889019146561623 0.48881378769874573
  endloop
 endfacet
 facet normal 0.20372700788499454 -0.95721757543801211 -0.20549895262701662
  outer loop
   vertex 0.78819650411605835 0.0040889019146561623 0.48881378769874573
   vertex 0.42464816570281982 0.0023057672660797834 0.13670606911182404
   vertex 0.42459499835968018 0.0091344565153121948 0.10484521090984344
  endloop
 endfacet
 facet normal 0.27173532552050067 -0.92387784427967723 -0.26946176298949037
  outer loop
   vertex 0.78819650411605835 0.0040889019146561623 0.48881378769874573
   vertex 0.42459499835968018 0.0091344565153121948 0.10484521090984344
   vertex 0.80864351987838745 0.016076952219009399 0.46833103895187378
  endloop
 endfacet
 facet normal 0.33184463752739285 -0.88231503938859301 -0.33376534843062861
  outer loop
   vertex 0.80864351987838745 0.016076952219009399 0.46833103895187378
   vertex 0.42459499835968018 0.0091344565153121948 0.10484521090984344
   vertex 0.42454606294631958 0.020223647356033325 0.075482070446014404
  endloop
 endfacet
 facet normal 0.43107390295295017 -0.7933527143058885 -0.42984504288916703
  outer loop
   vertex 0.80864351987838745 0.016076952219009399 0.46833103895187378
   vertex 0.42454606294631958 0.020223647356033325 0.075482070446014404
   vertex 0.82620173692703247 0.035147186368703842 0.45074206590652466
  endloop
 endfacet
 facet normal 0.44819172169399268 -0.77301022530496732 -0.44897591492076533
  outer loop
   vertex 0.82620173692703247 0.035147186368703842 0.45074206590652466
   vertex 0.42454606294631958 0.020223647356033325 0.075482070446014404
   vertex 0.42450311779975891 0.035147186368703842 0.049745064228773117
  endloop
 endfacet
 facet normal 0.54612290931003216 -0.63439336089734344 -0.54707845102518837
  outer loop
   vertex 0.82620173692703247 0.035147186368703842 0.45074206590652466
   vertex 0.42450311779975891 0.035147186368703842 0.049745064228773117
   vertex 0.42446789145469666 0.053331572562456131 0.028623245656490326
  endloop
 endfacet
 facet normal 0.56143005711115823 -0.60876005808210609 -0.56054213281075704
  outer loop
   vertex 0.82620173692703247 0.035147186368703842 0.45074206590652466
   vertex 0.42446789145469666 0.053331572562456131 0.028623245656490326
   vertex 0.83967459201812744 0.059999998658895493 0.43724560737609863
  endloop
 endfacet
 facet normal 0.62230908100982485 -0.47176155517768931 -0.62463784927671118
  outer loop
   vertex 0.83967459201812744 0.059999998658895493 0.43724560737609863
   vertex 0.42446789145469666 0.053331572562456131 0.028623245656490326
   vertex 0.42444172501564026 0.074077986180782318 0.012928321026265621
  endloop
 endfacet
 facet normal 0.65393290511308977 -0.38268378402871028 -0.65262920333970809
  outer loop
   vertex 0.83967459201812744 0.059999998658895493 0.43724560737609863
   vertex 0.42444172501564026 0.074077986180782318 0.012928321026265621
   vertex 0.8481440544128418 0.088941715657711029 0.42876136302947998
  endloop
 endfacet
 facet normal 0.67540827023096883 -0.29052328742361877 -0.67780519913038728
  outer loop
   vertex 0.8481440544128418 0.088941715657711029 0.42876136302947998
   vertex 0.42444172501564026 0.074077986180782318 0.012928321026265621
   vertex 0.42442560195922852 0.096589162945747375 0.0032634339295327663
  endloop
 endfacet
 facet normal 0.6996154999929044 -0.14657449409147372 -0.69932400920568061
  outer loop
   vertex 0.8481440544128418 0.088941715657711029 0.42876136302947998
   vertex 0.42442560195922852 0.096589162945747375 0.0032634339295327663
   vertex 0.4244215190410614 0.10823794454336166 0.00081782828783616424
  endloop
 endfacet
 facet normal 0.7015742838857284 -0.1305273104501754 -0.70053989566395913
  outer loop
   vertex 0.8481440544128418 0.088941715657711029 0.42876136302947998
   vertex 0.4244215190410614 0.10823794454336166 0.00081782828783616424
   vertex 0.85103285312652588 0.11999999731779099 0.42586752772331238
  endloop
 endfacet
 facet normal 0.70563742562861298 -0.049067282282395965 -0.70687214215984162
  outer loop
   vertex 0.85103285312652588 0.11999999731779099 0.42586752772331238
   vertex 0.4244215190410614 0.10823794454336166 0.00081782828783616424
   vertex 0.42442014813423157 0.11999999731779099 9.9999997171806854e-10
  endloop
 endfacet
 facet normal 0.70563742670476137 0.049067251275959498 -0.70687214323787317
  outer loop
   vertex 0.85103285312652588 0.11999999731779099 0.42586752772331238
   vertex 0.42442014813423157 0.11999999731779099 9.9999997171806854e-10
   vertex 0.4244215190410614 0.1317620575428009 0.00081782828783616424
  endloop
 endfacet
 facet normal 0.70157428746207362 0.13052727967121611 -0.70053989781718762
  outer loop
   vertex 0.85103285312652588 0.11999999731779099 0.42586752772331238
   vertex 0.4244215190410614 0.1317620575428009 0.00081782828783616424
   vertex 0.8481440544128418 0.15105828642845154 0.42876136302947998
  endloop
 endfacet
 facet normal 0.69961551178632952 0.14657440191707974 -0.6993240167265834
  outer loop
   vertex 0.8481440544128418 0.15105828642845154 0.42876136302947998
   vertex 0.4244215190410614 0.1317620575428009 0.00081782828783616424
   vertex 0.42442560195922852 0.14341084659099579 0.0032634339295327663
  endloop
 endfacet
 facet normal 0.67540825319805176 0.29052337479891294 -0.67780517865195355
  outer loop
   vertex 0.8481440544128418 0.15105828642845154 0.42876136302947998
   vertex 0.42442560195922852 0.14341084659099579 0.0032634339295327663
   vertex 0.42444172501564026 0.16592201590538025 0.012928321026265621
  endloop
 endfacet
 facet normal 0.65393291656839669 0.38268374198529598 -0.65262921651461636
  outer loop
   vertex 0.8481440544128418 0.15105828642845154 0.42876136302947998
   vertex 0.42444172501564026 0.16592201590538025 0.012928321026265621
   vertex 0.83967459201812744 0.18000000715255737 0.43724560737609863
  endloop
 endfacet
 facet normal 0.62230905178429852 0.47176162312827513 -0.62463782707317883
  outer loop
   vertex 0.83967459201812744 0.18000000715255737 0.43724560737609863
   vertex 0.42444172501564026 0.16592201590538025 0.012928321026265621
   vertex 0.42446789145469666 0.18666842579841614 0.028623245656490326
  endloop
 endfacet
 facet normal 0.56143005160662773 0.60876005808837297 -0.56054213831720101
  outer loop
   vertex 0.83967459201812744 0.18000000715255737 0.43724560737609863
   vertex 0.42446789145469666 0.18666842579841614 0.028623245656490326
   vertex 0.82620173692703247 0.20485281944274902 0.45074206590652466
  endloop
 endfacet
 facet normal 0.54612299936319386 0.63439320557973577 -0.54707854123591448
  outer loop
   vertex 0.82620173692703247 0.20485281944274902 0.45074206590652466
   vertex 0.42446789145469666 0.18666842579841614 0.028623245656490326
   vertex 0.42450311779975891 0.20485281944274902 0.049745064228773117
  endloop
 endfacet
 facet normal 0.44819152113411537 0.77301045828159654 -0.44897571400997188
  outer loop
   vertex 0.82620173692703247 0.20485281944274902 0.45074206590652466
   vertex 0.42450311779975891 0.20485281944274902 0.049745064228773117
   vertex 0.42454606294631958 0.21977634727954865 0.075482070446014404
  endloop
 endfacet
 facet normal 0.43107394156536782 0.79335265689494472 -0.42984511012809007
  outer loop
   vertex 0.82620173692703247 0.20485281944274902 0.45074206590652466
   vertex 0.42454606294631958 0.21977634727954865 0.075482070446014404
   vertex 0.80864351987838745 0.22392305731773376 0.46833103895187378
  endloop
 endfacet
 facet normal 0.33184460702146756 0.88231504944468153 -0.33376535217753928
  outer loop
   vertex 0.80864351987838745 0.22392305731773376 0.46833103895187378
   vertex 0.42454606294631958 0.21977634727954865 0.075482070446014404
   vertex 0.42459499835968018 0.23086553812026978 0.10484521090984344
  endloop
 endfacet
 facet normal 0.2717351856368993 0.92387791789335583 -0.26946165166108077
  outer loop
   vertex 0.80864351987838745 0.22392305731773376 0.46833103895187378
   vertex 0.42459499835968018 0.23086553812026978 0.10484521090984344
   vertex 0.78819650411605835 0.23591110110282898 0.48881378769874573
  endloop
 endfacet
 facet normal 0.20372717028411805 0.95721750357582425 -0.20549912636333179
  outer loop
   vertex 0.78819650411605835 0.23591110110282898 0.48881378769874573
   vertex 0.42459499835968018 0.23086553812026978 0.10484521090984344
   vertex 0.42464816570281982 0.23769423365592957 0.13670606911182404
  endloop
 endfacet
 facet normal 0.093291369411060976 0.99144375181415767 -0.091301738110926248
  outer loop
   vertex 0.78819650411605835 0.23591110110282898 0.48881378769874573
   vertex 0.42464816570281982 0.23769423365592957 0.13670606911182404
   vertex 0.76625418663024902 0.23999999463558197 0.51079452037811279
  endloop
 endfacet
 facet normal 0.069247738304669529 0.99518476030051906 -0.069368895084803331
  outer loop
   vertex 0.76625418663024902 0.23999999463558197 0.51079452037811279
   vertex 0.42464816570281982 0.23769423365592957 0.13670606911182404
   vertex 0.42470338940620422 0.23999999463558197 0.1698402613401413
  endloop
 endfacet
 facet normal -0.069247861666695318 0.99518474310269101 0.069369018662664983
  outer loop
   vertex 0.76625418663024902 0.23999999463558197 0.51079452037811279
   vertex 0.42470338940620422 0.23999999463558197 0.1698402613401413
   vertex 0.4247586727142334 0.23769423365592957 0.20297445356845856
  endloop
 endfacet
 facet normal -0.091028620249867201 0.99144349422542166 0.093560611656250084
  outer loop
   vertex 0.76625418663024902 0.23999999463558197 0.51079452037811279
   vertex 0.4247586727142334 0.23769423365592957 0.20297445356845856
   vertex 0.7443118691444397 0.23591110110282898 0.53277522325515747
  endloop
 endfacet
 facet normal -0.20662453006453302 0.95662260794667675 0.20537645809807284
  outer loop
   vertex 0.7443118691444397 0.23591110110282898 0.53277522325515747
   vertex 0.4247586727142334 0.23769423365592957 0.20297445356845856
   vertex 0.42481184005737305 0.23086553812026978 0.23483531177043915
  endloop
 endfacet
 facet normal -0.26869689537864816 0.92387680994833143 0.27249517143166163
  outer loop
   vertex 0.7443118691444397 0.23591110110282898 0.53277522325515747
   vertex 0.42481184005737305 0.23086553812026978 0.23483531177043915
   vertex 0.72386491298675537 0.22392305731773376 0.55325794219970703
  endloop
 endfacet
 facet normal -0.33456397954152151 0.88141450045379155 0.33342978568678244
  outer loop
   vertex 0.72386491298675537 0.22392305731773376 0.55325794219970703
   vertex 0.42481184005737305 0.23086553812026978 0.23483531177043915
   vertex 0.42486077547073364 0.21977634727954865 0.26419845223426819
  endloop
 endfacet
 facet normal -0.42877210277247169 0.79335207799002827 0.43214229627864142
  outer loop
   vertex 0.72386491298675537 0.22392305731773376 0.55325794219970703
   vertex 0.42486077547073364 0.21977634727954865 0.26419845223426819
   vertex 0.70630669593811035 0.20485281944274902 0.57084691524505615
  endloop
 endfacet
 facet normal -0.44819137424814859 0.77301060680418832 0.44897560492500765
  outer loop
   vertex 0.70630669593811035 0.20485281944274902 0.57084691524505615
   vertex 0.42486077547073364 0.21977634727954865 0.26419845223426819
   vertex 0.42490372061729431 0.20485281944274902 0.28993546962738037
  endloop
 endfacet
 facet normal -0.54612316099284064 0.63439288682046457 0.54707874952221003
  outer loop
   vertex 0.70630669593811035 0.20485281944274902 0.57084691524505615
   vertex 0.42490372061729431 0.20485281944274902 0.28993546962738037
   vertex 0.42493894696235657 0.18666842579841614 0.31105726957321167
  endloop
 endfacet
 facet normal -0.55907034077841267 0.60876020382050233 0.56289552166128465
  outer loop
   vertex 0.70630669593811035 0.20485281944274902 0.57084691524505615
   vertex 0.42493894696235657 0.18666842579841614 0.31105726957321167
   vertex 0.69283378124237061 0.18000000715255737 0.58434337377548218
  endloop
 endfacet
 facet normal -0.62423862741701386 0.47083206022617791 0.62341262988785817
  outer loop
   vertex 0.69283378124237061 0.18000000715255737 0.58434337377548218
   vertex 0.42493894696235657 0.18666842579841614 0.31105726957321167
   vertex 0.42496511340141296 0.16592201590538025 0.3267521858215332
  endloop
 endfacet
 facet normal -0.65075236336636966 0.38268170612759944 0.65580185526449541
  outer loop
   vertex 0.69283378124237061 0.18000000715255737 0.58434337377548218
   vertex 0.42496511340141296 0.16592201590538025 0.3267521858215332
   vertex 0.68436437845230103 0.15105828642845154 0.59282761812210083
  endloop
 endfacet
 facet normal -0.67714034300849679 0.28989515212281775 0.67634440682689456
  outer loop
   vertex 0.68436437845230103 0.15105828642845154 0.59282761812210083
   vertex 0.42496511340141296 0.16592201590538025 0.3267521858215332
   vertex 0.42498123645782471 0.14341084659099579 0.33641707897186279
  endloop
 endfacet
 facet normal -0.69757262540279907 0.14698506132477887 0.70127585445101215
  outer loop
   vertex 0.68436437845230103 0.15105828642845154 0.59282761812210083
   vertex 0.42498123645782471 0.14341084659099579 0.33641707897186279
   vertex 0.42498531937599182 0.1317620575428009 0.33886268734931946
  endloop
 endfacet
 facet normal -0.69856549520259847 0.13052632231132552 0.70354042392475813
  outer loop
   vertex 0.68436437845230103 0.15105828642845154 0.59282761812210083
   vertex 0.42498531937599182 0.1317620575428009 0.33886268734931946
   vertex 0.68147557973861694 0.11999999731779099 0.59572142362594604
  endloop
 endfacet
 facet normal -0.70563745004673617 0.049067730712056487 0.70687208665663759
  outer loop
   vertex 0.68147557973861694 0.11999999731779099 0.59572142362594604
   vertex 0.42498531937599182 0.1317620575428009 0.33886268734931946
   vertex 0.42498669028282166 0.11999999731779099 0.33968052268028259
  endloop
 endfacet
 facet normal -0.70563744897056657 -0.049067761718794449 0.70687208557858505
  outer loop
   vertex 0.68147557973861694 0.11999999731779099 0.59572142362594604
   vertex 0.42498669028282166 0.11999999731779099 0.33968052268028259
   vertex 0.42498531937599182 0.10823794454336166 0.33886268734931946
  endloop
 endfacet
 facet normal -0.69856549352862896 -0.13052635309043581 0.7035404198765085
  outer loop
   vertex 0.68147557973861694 0.11999999731779099 0.59572142362594604
   vertex 0.42498531937599182 0.10823794454336166 0.33886268734931946
   vertex 0.68436437845230103 0.088941715657711029 0.59282761812210083
  endloop
 endfacet
 facet normal -0.69757261935427817 -0.14698515258609746 0.70127584133952092
  outer loop
   vertex 0.68436437845230103 0.088941715657711029 0.59282761812210083
   vertex 0.42498531937599182 0.10823794454336166 0.33886268734931946
   vertex 0.42498123645782471 0.096589162945747375 0.33641707897186279
  endloop
 endfacet
 facet normal -0.6771403648207952 -0.28989506315595043 0.6763444231219532
  outer loop
   vertex 0.68436437845230103 0.088941715657711029 0.59282761812210083
   vertex 0.42498123645782471 0.096589162945747375 0.33641707897186279
   vertex 0.42496511340141296 0.074077986180782318 0.3267521858215332
  endloop
 endfacet
 facet normal -0.65075234970159834 -0.3826817481695996 0.65580184429117594
  outer loop
   vertex 0.68436437845230103 0.088941715657711029 0.59282761812210083
   vertex 0.42496511340141296 0.074077986180782318 0.3267521858215332
   vertex 0.69283378124237061 0.059999998658895493 0.58434337377548218
  endloop
 endfacet
 facet normal -0.62423864555364839 -0.47083199766509115 0.62341265897641696
  outer loop
   vertex 0.69283378124237061 0.059999998658895493 0.58434337377548218
   vertex 0.42496511340141296 0.074077986180782318 0.3267521858215332
   vertex 0.42493894696235657 0.053331572562456131 0.31105726957321167
  endloop
 endfacet
 facet normal -0.55907033237672721 -0.60876020380598339 0.56289553002157799
  outer loop
   vertex 0.69283378124237061 0.059999998658895493 0.58434337377548218
   vertex 0.42493894696235657 0.053331572562456131 0.31105726957321167
   vertex 0.70630669593811035 0.035147186368703842 0.57084691524505615
  endloop
 endfacet
 facet normal -0.54612307093974277 -0.63439304213809933 0.54707865931154021
  outer loop
   vertex 0.70630669593811035 0.035147186368703842 0.57084691524505615
   vertex 0.42493894696235657 0.053331572562456131 0.31105726957321167
   vertex 0.42490372061729431 0.035147186368703842 0.28993546962738037
  endloop
 endfacet
 facet normal -0.44819157480803734 -0.77301037382764737 0.44897580583582958
  outer loop
   vertex 0.70630669593811035 0.035147186368703842 0.57084691524505615
   vertex 0.42490372061729431 0.035147186368703842 0.28993546962738037
   vertex 0.42486077547073364 0.020223647356033325 0.26419845223426819
  endloop
 endfacet
 facet normal -0.42877203100613298 -0.79335213538423377 0.43214226211764128
  outer loop
   vertex 0.70630669593811035 0.035147186368703842 0.57084691524505615
   vertex 0.42486077547073364 0.020223647356033325 0.26419845223426819
   vertex 0.72386491298675537 0.016076952219009399 0.55325794219970703
  endloop
 endfacet
 facet normal -0.33456394047739085 -0.88141451344960453 0.33342979052963739
  outer loop
   vertex 0.72386491298675537 0.016076952219009399 0.55325794219970703
   vertex 0.42486077547073364 0.020223647356033325 0.26419845223426819
   vertex 0.42481184005737305 0.0091344565153121948 0.23483531177043915
  endloop
 endfacet
 facet normal -0.26869700342354097 -0.92387673631745182 0.27249531453333864
  outer loop
   vertex 0.72386491298675537 0.016076952219009399 0.55325794219970703
   vertex 0.42481184005737305 0.0091344565153121948 0.23483531177043915
   vertex 0.7443118691444397 0.0040889019146561623 0.53277522325515747
  endloop
 endfacet
 facet normal -0.2066243452650868 -0.95662268490958668 0.2053762855349856
  outer loop
   vertex 0.7443118691444397 0.0040889019146561623 0.53277522325515747
   vertex 0.42481184005737305 0.0091344565153121948 0.23483531177043915
   vertex 0.4247586727142334 0.0023057672660797834 0.20297445356845856
  endloop
 endfacet
 facet normal -0.091028783506097874 -0.99144346372977177 0.093560775974296989
  outer loop
   vertex 0.7443118691444397 0.0040889019146561623 0.53277522325515747
   vertex 0.4247586727142334 0.0023057672660797834 0.20297445356845856
   vertex 0.76625418663024902 9.9999997171806854e-10 0.51079452037811279
  endloop
 endfacet
 facet normal 0.70772470813617339 2.5746518354729006e-06 0.70648831376530186
  outer loop
   vertex 0.76625418663024902 9.9999997171806854e-10 0.51079452037811279
   vertex 0.78819650411605835 0.0040889019146561623 0.48881378769874573
   vertex 0.7443118691444397 0.0040889019146561623 0.53277522325515747
  endloop
 endfacet
 facet normal 0.70772470813800059 1.2104142443145892e-06 0.70648831376712584
  outer loop
   vertex 0.7443118691444397 0.0040889019146561623 0.53277522325515747
   vertex 0.78819650411605835 0.0040889019146561623 0.48881378769874573
   vertex 0.72386491298675537 0.016076952219009399 0.55325794219970703
  endloop
 endfacet
 facet normal 0.7077244128855199 -1.9639584987520553e-06 0.70648860953449855
  outer loop
   vertex 0.72386491298675537 0.016076952219009399 0.55325794219970703
   vertex 0.78819650411605835 0.0040889019146561623 0.48881378769874573
   vertex 0.80864351987838745 0.016076952219009399 0.46833103895187378
  endloop
 endfacet
 facet normal 0.70772441288599386 -1.5866548578031939e-06 0.70648860953497172
  outer loop
   vertex 0.72386491298675537 0.016076952219009399 0.55325794219970703
   vertex 0.80864351987838745 0.016076952219009399 0.46833103895187378
   vertex 0.70630669593811035 0.035147186368703842 0.57084691524505615
  endloop
 endfacet
 facet normal 0.70772466481497487 1.1219341459182266e-06 0.70648835716611258
  outer loop
   vertex 0.70630669593811035 0.035147186368703842 0.57084691524505615
   vertex 0.80864351987838745 0.016076952219009399 0.46833103895187378
   vertex 0.82620173692703247 0.035147186368703842 0.45074206590652466
  endloop
 endfacet
 facet normal 0.70772466481511132 9.343973487140886e-07 0.7064883571662488
  outer loop
   vertex 0.70630669593811035 0.035147186368703842 0.57084691524505615
   vertex 0.82620173692703247 0.035147186368703842 0.45074206590652466
   vertex 0.69283378124237061 0.059999998658895493 0.58434337377548218
  endloop
 endfacet
 facet normal 0.70772465033123322 7.7867405839033552e-07 0.70648837167566136
  outer loop
   vertex 0.69283378124237061 0.059999998658895493 0.58434337377548218
   vertex 0.82620173692703247 0.035147186368703842 0.45074206590652466
   vertex 0.83967459201812744 0.059999998658895493 0.43724560737609863
  endloop
 endfacet
 facet normal 0.70772465033135468 -5.1293517530280867e-07 0.7064883716757826
  outer loop
   vertex 0.69283378124237061 0.059999998658895493 0.58434337377548218
   vertex 0.83967459201812744 0.059999998658895493 0.43724560737609863
   vertex 0.68436437845230103 0.088941715657711029 0.59282761812210083
  endloop
 endfacet
 facet normal 0.70772461225748085 -9.2228103430178901e-07 0.7064884098158638
  outer loop
   vertex 0.68436437845230103 0.088941715657711029 0.59282761812210083
   vertex 0.83967459201812744 0.059999998658895493 0.43724560737609863
   vertex 0.8481440544128418 0.088941715657711029 0.42876136302947998
  endloop
 endfacet
 facet normal 0.70772461225736016 1.0915222016130545e-06 0.70648840981574335
  outer loop
   vertex 0.68436437845230103 0.088941715657711029 0.59282761812210083
   vertex 0.8481440544128418 0.088941715657711029 0.42876136302947998
   vertex 0.68147557973861694 0.11999999731779099 0.59572142362594604
  endloop
 endfacet
 facet normal 0.7077244746496496 -3.8796012231707657e-07 0.70648854766494773
  outer loop
   vertex 0.68147557973861694 0.11999999731779099 0.59572142362594604
   vertex 0.8481440544128418 0.088941715657711029 0.42876136302947998
   vertex 0.85103285312652588 0.11999999731779099 0.42586752772331238
  endloop
 endfacet
 facet normal 0.70772447464930088 -1.0658788735773948e-06 0.70648854766459956
  outer loop
   vertex 0.68147557973861694 0.11999999731779099 0.59572142362594604
   vertex 0.85103285312652588 0.11999999731779099 0.42586752772331238
   vertex 0.68436437845230103 0.15105828642845154 0.59282761812210083
  endloop
 endfacet
 facet normal 0.70772461225772121 4.1360322771376201e-07 0.70648840981610384
  outer loop
   vertex 0.68436437845230103 0.15105828642845154 0.59282761812210083
   vertex 0.85103285312652588 0.11999999731779099 0.42586752772331238
   vertex 0.8481440544128418 0.15105828642845154 0.42876136302947998
  endloop
 endfacet
 facet normal 0.70772461225768035 5.3525765008755969e-07 0.70648840981606298
  outer loop
   vertex 0.68436437845230103 0.15105828642845154 0.59282761812210083
   vertex 0.8481440544128418 0.15105828642845154 0.42876136302947998
   vertex 0.69283378124237061 0.18000000715255737 0.58434337377548218
  endloop
 endfacet
 facet normal 0.70772465033113197 9.4460353480839007e-07 0.70648837167556033
  outer loop
   vertex 0.69283378124237061 0.18000000715255737 0.58434337377548218
   vertex 0.8481440544128418 0.15105828642845154 0.42876136302947998
   vertex 0.83967459201812744 0.18000000715255737 0.43724560737609863
  endloop
 endfacet
 facet normal 0.70772465033114906 -9.1866610131569865e-07 0.70648837167557732
  outer loop
   vertex 0.69283378124237061 0.18000000715255737 0.58434337377548218
   vertex 0.83967459201812744 0.18000000715255737 0.43724560737609863
   vertex 0.70630669593811035 0.20485281944274902 0.57084691524505615
  endloop
 endfacet
 facet normal 0.70772466481521434 -7.6294284572893519e-07 0.70648835716635172
  outer loop
   vertex 0.70630669593811035 0.20485281944274902 0.57084691524505615
   vertex 0.83967459201812744 0.18000000715255737 0.43724560737609863
   vertex 0.82620173692703247 0.20485281944274902 0.45074206590652466
  endloop
 endfacet
 facet normal 0.70772466481497498 1.1219339267531373e-06 0.70648835716611269
  outer loop
   vertex 0.70630669593811035 0.20485281944274902 0.57084691524505615
   vertex 0.82620173692703247 0.20485281944274902 0.45074206590652466
   vertex 0.72386491298675537 0.22392305731773376 0.55325794219970703
  endloop
 endfacet
 facet normal 0.70772441288599386 -1.5866545478568792e-06 0.70648860953497172
  outer loop
   vertex 0.72386491298675537 0.22392305731773376 0.55325794219970703
   vertex 0.82620173692703247 0.20485281944274902 0.45074206590652466
   vertex 0.80864351987838745 0.22392305731773376 0.46833103895187378
  endloop
 endfacet
 facet normal 0.70772441288687038 -2.014817761491474e-07 0.70648860953584669
  outer loop
   vertex 0.72386491298675537 0.22392305731773376 0.55325794219970703
   vertex 0.80864351987838745 0.22392305731773376 0.46833103895187378
   vertex 0.7443118691444397 0.23591110110282898 0.53277522325515747
  endloop
 endfacet
 facet normal 0.70772470813539157 2.972894896449526e-06 0.70648831376452137
  outer loop
   vertex 0.7443118691444397 0.23591110110282898 0.53277522325515747
   vertex 0.80864351987838745 0.22392305731773376 0.46833103895187378
   vertex 0.78819650411605835 0.23591110110282898 0.48881378769874573
  endloop
 endfacet
 facet normal 0.70772470813617328 -2.5746564836327191e-06 0.70648831376530175
  outer loop
   vertex 0.7443118691444397 0.23591110110282898 0.53277522325515747
   vertex 0.78819650411605835 0.23591110110282898 0.48881378769874573
   vertex 0.76625418663024902 0.23999999463558197 0.51079452037811279
  endloop
 endfacet
endsolid
