solid 
   facet normal 0.000000e+00 9.510565e-01 -3.090169e-01
      outer loop
         vertex 1.160751e-01 3.820943e-01 1.261952e-01
         vertex 8.634868e-02 3.820943e-01 1.261952e-01
         vertex 8.634868e-02 3.975863e-01 1.738748e-01
      endloop
   endfacet
   facet normal 1.328533e-03 9.135447e-01 4.067362e-01
      outer loop
         vertex 3.160751e-01 3.913402e-01 2.731545e-01
         vertex 3.160751e-01 3.743340e-01 3.113511e-01
         vertex 1.106349e+00 3.699945e-01 3.185164e-01
      endloop
   endfacet
   facet normal -2.944334e-02 9.044349e-01 4.255945e-01
      outer loop
         vertex 8.634868e-02 3.913402e-01 2.731545e-01
         vertex 8.634868e-02 3.699945e-01 3.185164e-01
         vertex 1.160751e-01 3.743340e-01 3.113511e-01
      endloop
   endfacet
   facet normal 0.000000e+00 9.048271e-01 4.257791e-01
      outer loop
         vertex 1.106349e+00 3.699945e-01 3.185164e-01
         vertex 1.106349e+00 3.913402e-01 2.731545e-01
         vertex 3.160751e-01 3.913402e-01 2.731545e-01
      endloop
   endfacet
   facet normal -0.000000e+00 9.822872e-01 1.873814e-01
      outer loop
         vertex 3.160751e-01 3.913402e-01 2.731545e-01
         vertex 1.106349e+00 3.913402e-01 2.731545e-01
         vertex 1.106349e+00 4.007342e-01 2.239092e-01
      endloop
   endfacet
   facet normal 0.000000e+00 9.822872e-01 1.873814e-01
      outer loop
         vertex 3.160751e-01 3.913402e-01 2.731545e-01
         vertex 1.106349e+00 4.007342e-01 2.239092e-01
         vertex 3.160751e-01 4.007342e-01 2.239092e-01
      endloop
   endfacet
   facet normal -0.000000e+00 9.995066e-01 3.141099e-02
      outer loop
         vertex 3.160751e-01 4.007342e-01 2.239092e-01
         vertex 1.106349e+00 4.007342e-01 2.239092e-01
         vertex 3.160751e-01 4.011289e-01 2.113511e-01
      endloop
   endfacet
   facet normal 1.496201e-03 9.980256e-01 -6.279054e-02
      outer loop
         vertex 3.160751e-01 4.011289e-01 2.113511e-01
         vertex 1.106349e+00 4.007342e-01 2.239092e-01
         vertex 1.106349e+00 3.975863e-01 1.738748e-01
      endloop
   endfacet
   facet normal 0.000000e+00 9.955619e-01 -9.410851e-02
      outer loop
         vertex 3.160751e-01 4.011289e-01 2.113511e-01
         vertex 1.106349e+00 3.975863e-01 1.738748e-01
         vertex 3.160751e-01 3.975863e-01 1.738748e-01
      endloop
   endfacet
   facet normal 0.000000e+00 9.510565e-01 -3.090169e-01
      outer loop
         vertex 3.160751e-01 3.975863e-01 1.738748e-01
         vertex 1.106349e+00 3.975863e-01 1.738748e-01
         vertex 1.106349e+00 3.820943e-01 1.261952e-01
      endloop
   endfacet
   facet normal 0.000000e+00 9.510565e-01 -3.090169e-01
      outer loop
         vertex 3.160751e-01 3.975863e-01 1.738748e-01
         vertex 1.106349e+00 3.820943e-01 1.261952e-01
         vertex 3.160751e-01 3.820943e-01 1.261952e-01
      endloop
   endfacet
   facet normal 0.000000e+00 8.443280e-01 -5.358267e-01
      outer loop
         vertex 8.634868e-02 3.820943e-01 1.261952e-01
         vertex 1.160751e-01 3.820943e-01 1.261952e-01
         vertex 8.634868e-02 3.552315e-01 8.386629e-02
      endloop
   endfacet
   facet normal -1.397367e-01 8.775087e-01 -4.587505e-01
      outer loop
         vertex 8.634868e-02 3.552315e-01 8.386629e-02
         vertex 1.160751e-01 3.820943e-01 1.261952e-01
         vertex 1.160751e-01 3.743340e-01 1.113511e-01
      endloop
   endfacet
   facet normal 0.000000e+00 8.211493e-01 -5.707134e-01
      outer loop
         vertex 8.634868e-02 3.552315e-01 8.386629e-02
         vertex 1.160751e-01 3.743340e-01 1.113511e-01
         vertex 3.160751e-01 3.743340e-01 1.113511e-01
      endloop
   endfacet
   facet normal 0.000000e+00 9.135455e-01 4.067366e-01
      outer loop
         vertex 1.160751e-01 3.743340e-01 3.113511e-01
         vertex 1.160751e-01 3.913402e-01 2.731545e-01
         vertex 8.634868e-02 3.913402e-01 2.731545e-01
      endloop
   endfacet
   facet normal -0.000000e+00 9.822872e-01 1.873814e-01
      outer loop
         vertex 8.634868e-02 3.913402e-01 2.731545e-01
         vertex 1.160751e-01 3.913402e-01 2.731545e-01
         vertex 1.160751e-01 4.007342e-01 2.239092e-01
      endloop
   endfacet
   facet normal 0.000000e+00 9.822872e-01 1.873814e-01
      outer loop
         vertex 8.634868e-02 3.913402e-01 2.731545e-01
         vertex 1.160751e-01 4.007342e-01 2.239092e-01
         vertex 8.634868e-02 4.007342e-01 2.239092e-01
      endloop
   endfacet
   facet normal -0.000000e+00 9.995066e-01 3.141099e-02
      outer loop
         vertex 8.634868e-02 4.007342e-01 2.239092e-01
         vertex 1.160751e-01 4.007342e-01 2.239092e-01
         vertex 1.160751e-01 4.011289e-01 2.113511e-01
      endloop
   endfacet
   facet normal -3.974490e-02 9.972381e-01 -6.274100e-02
      outer loop
         vertex 8.634868e-02 4.007342e-01 2.239092e-01
         vertex 1.160751e-01 4.011289e-01 2.113511e-01
         vertex 8.634868e-02 3.975863e-01 1.738748e-01
      endloop
   endfacet
   facet normal 0.000000e+00 9.955619e-01 -9.410851e-02
      outer loop
         vertex 8.634868e-02 3.975863e-01 1.738748e-01
         vertex 1.160751e-01 4.011289e-01 2.113511e-01
         vertex 1.160751e-01 3.975863e-01 1.738748e-01
      endloop
   endfacet
   facet normal 0.000000e+00 9.510565e-01 -3.090169e-01
      outer loop
         vertex 8.634868e-02 3.975863e-01 1.738748e-01
         vertex 1.160751e-01 3.975863e-01 1.738748e-01
         vertex 1.160751e-01 3.820943e-01 1.261952e-01
      endloop
   endfacet
   facet normal -1.314338e-03 -9.135447e-01 4.067362e-01
      outer loop
         vertex 8.851570e-01 1.091759e-02 2.731545e-01
         vertex 8.851570e-01 2.792381e-02 3.113511e-01
         vertex 8.634868e-02 3.226330e-02 3.185164e-01
      endloop
   endfacet
   facet normal 0.000000e+00 -8.553647e-01 5.180263e-01
      outer loop
         vertex 8.851570e-01 2.792381e-02 3.113511e-01
         vertex 1.085157e+00 2.792381e-02 3.113511e-01
         vertex 1.106349e+00 3.226330e-02 3.185164e-01
      endloop
   endfacet
   facet normal 4.128413e-02 -9.040557e-01 4.254161e-01
      outer loop
         vertex 1.106349e+00 3.226330e-02 3.185164e-01
         vertex 1.085157e+00 2.792381e-02 3.113511e-01
         vertex 1.106349e+00 1.091759e-02 2.731545e-01
      endloop
   endfacet
   facet normal 0.000000e+00 -9.510565e-01 -3.090169e-01
      outer loop
         vertex 8.634868e-02 2.016348e-02 1.261952e-01
         vertex 8.851570e-01 4.671444e-03 1.738748e-01
         vertex 8.634868e-02 4.671444e-03 1.738748e-01
      endloop
   endfacet
   facet normal 0.000000e+00 -9.980267e-01 -6.279061e-02
      outer loop
         vertex 8.634868e-02 4.671444e-03 1.738748e-01
         vertex 8.851570e-01 4.671444e-03 1.738748e-01
         vertex 8.851570e-01 1.523544e-03 2.239092e-01
      endloop
   endfacet
   facet normal 0.000000e+00 -9.980267e-01 -6.279061e-02
      outer loop
         vertex 8.634868e-02 4.671444e-03 1.738748e-01
         vertex 8.851570e-01 1.523544e-03 2.239092e-01
         vertex 8.634868e-02 1.523544e-03 2.239092e-01
      endloop
   endfacet
   facet normal 0.000000e+00 -9.822872e-01 1.873814e-01
      outer loop
         vertex 8.634868e-02 1.523544e-03 2.239092e-01
         vertex 8.851570e-01 1.523544e-03 2.239092e-01
         vertex 8.851570e-01 1.091759e-02 2.731545e-01
      endloop
   endfacet
   facet normal 0.000000e+00 -9.822872e-01 1.873814e-01
      outer loop
         vertex 8.634868e-02 1.523544e-03 2.239092e-01
         vertex 8.851570e-01 1.091759e-02 2.731545e-01
         vertex 8.634868e-02 1.091759e-02 2.731545e-01
      endloop
   endfacet
   facet normal 0.000000e+00 -9.048271e-01 4.257791e-01
      outer loop
         vertex 8.634868e-02 1.091759e-02 2.731545e-01
         vertex 8.851570e-01 1.091759e-02 2.731545e-01
         vertex 8.634868e-02 3.226330e-02 3.185164e-01
      endloop
   endfacet
   facet normal 1.941888e-01 -8.693339e-01 -4.544769e-01
      outer loop
         vertex 1.085157e+00 2.016348e-02 1.261952e-01
         vertex 1.085157e+00 2.792381e-02 1.113511e-01
         vertex 1.106349e+00 4.702624e-02 8.386629e-02
      endloop
   endfacet
   facet normal 0.000000e+00 -8.211493e-01 -5.707134e-01
      outer loop
         vertex 1.106349e+00 4.702624e-02 8.386629e-02
         vertex 1.085157e+00 2.792381e-02 1.113511e-01
         vertex 8.851570e-01 2.792381e-02 1.113511e-01
      endloop
   endfacet
   facet normal 0.000000e+00 -8.443280e-01 -5.358267e-01
      outer loop
         vertex 1.106349e+00 4.702624e-02 8.386629e-02
         vertex 1.106349e+00 2.016348e-02 1.261952e-01
         vertex 1.085157e+00 2.016348e-02 1.261952e-01
      endloop
   endfacet
   facet normal 0.000000e+00 -9.510565e-01 -3.090169e-01
      outer loop
         vertex 1.085157e+00 2.016348e-02 1.261952e-01
         vertex 1.106349e+00 2.016348e-02 1.261952e-01
         vertex 1.106349e+00 4.671444e-03 1.738748e-01
      endloop
   endfacet
   facet normal 0.000000e+00 -9.510565e-01 -3.090169e-01
      outer loop
         vertex 1.085157e+00 2.016348e-02 1.261952e-01
         vertex 1.106349e+00 4.671444e-03 1.738748e-01
         vertex 1.085157e+00 4.671444e-03 1.738748e-01
      endloop
   endfacet
   facet normal 0.000000e+00 -9.980267e-01 -6.279061e-02
      outer loop
         vertex 1.085157e+00 4.671444e-03 1.738748e-01
         vertex 1.106349e+00 4.671444e-03 1.738748e-01
         vertex 1.106349e+00 1.523544e-03 2.239092e-01
      endloop
   endfacet
   facet normal 0.000000e+00 -9.980267e-01 -6.279061e-02
      outer loop
         vertex 1.085157e+00 4.671444e-03 1.738748e-01
         vertex 1.106349e+00 1.523544e-03 2.239092e-01
         vertex 1.085157e+00 1.523544e-03 2.239092e-01
      endloop
   endfacet
   facet normal 0.000000e+00 -9.822872e-01 1.873814e-01
      outer loop
         vertex 1.085157e+00 1.523544e-03 2.239092e-01
         vertex 1.106349e+00 1.523544e-03 2.239092e-01
         vertex 1.106349e+00 1.091759e-02 2.731545e-01
      endloop
   endfacet
   facet normal 0.000000e+00 -9.822872e-01 1.873814e-01
      outer loop
         vertex 1.085157e+00 1.523544e-03 2.239092e-01
         vertex 1.106349e+00 1.091759e-02 2.731545e-01
         vertex 1.085157e+00 1.091759e-02 2.731545e-01
      endloop
   endfacet
   facet normal 0.000000e+00 -9.135455e-01 4.067366e-01
      outer loop
         vertex 1.085157e+00 1.091759e-02 2.731545e-01
         vertex 1.106349e+00 1.091759e-02 2.731545e-01
         vertex 1.085157e+00 2.792381e-02 3.113511e-01
      endloop
   endfacet
   facet normal 0.000000e+00 -2.486898e-01 -9.685832e-01
      outer loop
         vertex 8.634868e-02 1.760622e-01 1.292815e-02
         vertex 1.106349e+00 1.275040e-01 2.539579e-02
         vertex 8.634868e-02 1.275040e-01 2.539579e-02
      endloop
   endfacet
   facet normal 0.000000e+00 -4.817538e-01 -8.763066e-01
      outer loop
         vertex 8.634868e-02 1.275040e-01 2.539579e-02
         vertex 1.106349e+00 1.275040e-01 2.539579e-02
         vertex 1.106349e+00 8.357184e-02 4.954769e-02
      endloop
   endfacet
   facet normal 0.000000e+00 -4.817538e-01 -8.763066e-01
      outer loop
         vertex 8.634868e-02 1.275040e-01 2.539579e-02
         vertex 1.106349e+00 8.357184e-02 4.954769e-02
         vertex 8.634868e-02 8.357184e-02 4.954769e-02
      endloop
   endfacet
   facet normal 0.000000e+00 -6.845470e-01 -7.289687e-01
      outer loop
         vertex 8.634868e-02 8.357184e-02 4.954769e-02
         vertex 1.106349e+00 8.357184e-02 4.954769e-02
         vertex 1.106349e+00 4.702624e-02 8.386629e-02
      endloop
   endfacet
   facet normal 0.000000e+00 -6.845470e-01 -7.289687e-01
      outer loop
         vertex 8.634868e-02 8.357184e-02 4.954769e-02
         vertex 1.106349e+00 4.702624e-02 8.386629e-02
         vertex 8.634868e-02 4.702624e-02 8.386629e-02
      endloop
   endfacet
   facet normal 0.000000e+00 -8.211493e-01 -5.707134e-01
      outer loop
         vertex 8.634868e-02 4.702624e-02 8.386629e-02
         vertex 1.106349e+00 4.702624e-02 8.386629e-02
         vertex 8.851570e-01 2.792381e-02 1.113511e-01
      endloop
   endfacet
   facet normal -1.754640e-03 -8.443267e-01 -5.358259e-01
      outer loop
         vertex 8.634868e-02 4.702624e-02 8.386629e-02
         vertex 8.851570e-01 2.792381e-02 1.113511e-01
         vertex 8.634868e-02 2.016348e-02 1.261952e-01
      endloop
   endfacet
   facet normal 0.000000e+00 -8.862036e-01 -4.632961e-01
      outer loop
         vertex 8.634868e-02 2.016348e-02 1.261952e-01
         vertex 8.851570e-01 2.792381e-02 1.113511e-01
         vertex 8.851570e-01 2.016348e-02 1.261952e-01
      endloop
   endfacet
   facet normal 0.000000e+00 -9.510565e-01 -3.090169e-01
      outer loop
         vertex 8.634868e-02 2.016348e-02 1.261952e-01
         vertex 8.851570e-01 2.016348e-02 1.261952e-01
         vertex 8.851570e-01 4.671444e-03 1.738748e-01
      endloop
   endfacet
   facet normal 0.000000e+00 8.862036e-01 -4.632961e-01
      outer loop
         vertex 3.160751e-01 3.820943e-01 1.261952e-01
         vertex 1.106349e+00 3.820943e-01 1.261952e-01
         vertex 3.160751e-01 3.743340e-01 1.113511e-01
      endloop
   endfacet
   facet normal 1.773590e-03 8.443267e-01 -5.358259e-01
      outer loop
         vertex 3.160751e-01 3.743340e-01 1.113511e-01
         vertex 1.106349e+00 3.820943e-01 1.261952e-01
         vertex 1.106349e+00 3.552315e-01 8.386629e-02
      endloop
   endfacet
   facet normal 0.000000e+00 8.211493e-01 -5.707134e-01
      outer loop
         vertex 3.160751e-01 3.743340e-01 1.113511e-01
         vertex 1.106349e+00 3.552315e-01 8.386629e-02
         vertex 8.634868e-02 3.552315e-01 8.386629e-02
      endloop
   endfacet
   facet normal 0.000000e+00 6.845470e-01 -7.289687e-01
      outer loop
         vertex 8.634868e-02 3.552315e-01 8.386629e-02
         vertex 1.106349e+00 3.552315e-01 8.386629e-02
         vertex 1.106349e+00 3.186859e-01 4.954769e-02
      endloop
   endfacet
   facet normal 0.000000e+00 6.845470e-01 -7.289687e-01
      outer loop
         vertex 8.634868e-02 3.552315e-01 8.386629e-02
         vertex 1.106349e+00 3.186859e-01 4.954769e-02
         vertex 8.634868e-02 3.186859e-01 4.954769e-02
      endloop
   endfacet
   facet normal 0.000000e+00 4.817538e-01 -8.763066e-01
      outer loop
         vertex 8.634868e-02 3.186859e-01 4.954769e-02
         vertex 1.106349e+00 3.186859e-01 4.954769e-02
         vertex 1.106349e+00 2.747538e-01 2.539579e-02
      endloop
   endfacet
   facet normal 0.000000e+00 4.817538e-01 -8.763066e-01
      outer loop
         vertex 8.634868e-02 3.186859e-01 4.954769e-02
         vertex 1.106349e+00 2.747538e-01 2.539579e-02
         vertex 8.634868e-02 2.747538e-01 2.539579e-02
      endloop
   endfacet
   facet normal 0.000000e+00 2.486898e-01 -9.685832e-01
      outer loop
         vertex 8.634868e-02 2.747538e-01 2.539579e-02
         vertex 1.106349e+00 2.747538e-01 2.539579e-02
         vertex 1.106349e+00 2.261955e-01 1.292815e-02
      endloop
   endfacet
   facet normal 0.000000e+00 2.486898e-01 -9.685832e-01
      outer loop
         vertex 8.634868e-02 2.747538e-01 2.539579e-02
         vertex 1.106349e+00 2.261955e-01 1.292815e-02
         vertex 8.634868e-02 2.261955e-01 1.292815e-02
      endloop
   endfacet
   facet normal 0.000000e+00 6.279071e-02 -9.980267e-01
      outer loop
         vertex 8.634868e-02 2.261955e-01 1.292815e-02
         vertex 1.106349e+00 2.261955e-01 1.292815e-02
         vertex 1.106349e+00 2.011289e-01 1.135109e-02
      endloop
   endfacet
   facet normal -1.546140e-03 -0.000000e+00 -9.999988e-01
      outer loop
         vertex 8.634868e-02 2.261955e-01 1.292815e-02
         vertex 1.106349e+00 2.011289e-01 1.135109e-02
         vertex 8.634868e-02 1.760622e-01 1.292815e-02
      endloop
   endfacet
   facet normal 0.000000e+00 -6.279071e-02 -9.980267e-01
      outer loop
         vertex 8.634868e-02 1.760622e-01 1.292815e-02
         vertex 1.106349e+00 2.011289e-01 1.135109e-02
         vertex 1.106349e+00 1.760622e-01 1.292815e-02
      endloop
   endfacet
   facet normal 0.000000e+00 -2.486898e-01 -9.685832e-01
      outer loop
         vertex 8.634868e-02 1.760622e-01 1.292815e-02
         vertex 1.106349e+00 1.760622e-01 1.292815e-02
         vertex 1.106349e+00 1.275040e-01 2.539579e-02
      endloop
   endfacet
   facet normal 0.000000e+00 -8.553647e-01 5.180263e-01
      outer loop
         vertex 8.851570e-01 2.792381e-02 3.113511e-01
         vertex 1.106349e+00 3.226330e-02 3.185164e-01
         vertex 8.634868e-02 3.226330e-02 3.185164e-01
      endloop
   endfacet
   facet normal 0.000000e+00 -7.705132e-01 6.374241e-01
      outer loop
         vertex 8.634868e-02 3.226330e-02 3.185164e-01
         vertex 1.106349e+00 3.226330e-02 3.185164e-01
         vertex 1.106349e+00 6.421946e-02 3.571448e-01
      endloop
   endfacet
   facet normal 0.000000e+00 -7.705132e-01 6.374241e-01
      outer loop
         vertex 8.634868e-02 3.226330e-02 3.185164e-01
         vertex 1.106349e+00 6.421946e-02 3.571448e-01
         vertex 8.634868e-02 6.421946e-02 3.571448e-01
      endloop
   endfacet
   facet normal 0.000000e+00 -5.877853e-01 8.090170e-01
      outer loop
         vertex 8.634868e-02 6.421946e-02 3.571448e-01
         vertex 1.106349e+00 6.421946e-02 3.571448e-01
         vertex 1.106349e+00 1.047782e-01 3.866124e-01
      endloop
   endfacet
   facet normal 0.000000e+00 -5.877853e-01 8.090170e-01
      outer loop
         vertex 8.634868e-02 6.421946e-02 3.571448e-01
         vertex 1.106349e+00 1.047782e-01 3.866124e-01
         vertex 8.634868e-02 1.047782e-01 3.866124e-01
      endloop
   endfacet
   facet normal 0.000000e+00 -3.681246e-01 9.297765e-01
      outer loop
         vertex 8.634868e-02 1.047782e-01 3.866124e-01
         vertex 1.106349e+00 1.047782e-01 3.866124e-01
         vertex 1.106349e+00 1.513909e-01 4.050677e-01
      endloop
   endfacet
   facet normal 0.000000e+00 -3.681246e-01 9.297765e-01
      outer loop
         vertex 8.634868e-02 1.047782e-01 3.866124e-01
         vertex 1.106349e+00 1.513909e-01 4.050677e-01
         vertex 8.634868e-02 1.513909e-01 4.050677e-01
      endloop
   endfacet
   facet normal 0.000000e+00 -1.253333e-01 9.921147e-01
      outer loop
         vertex 8.634868e-02 1.513909e-01 4.050677e-01
         vertex 1.106349e+00 1.513909e-01 4.050677e-01
         vertex 1.106349e+00 2.011289e-01 4.113511e-01
      endloop
   endfacet
   facet normal 0.000000e+00 -1.253333e-01 9.921147e-01
      outer loop
         vertex 8.634868e-02 1.513909e-01 4.050677e-01
         vertex 1.106349e+00 2.011289e-01 4.113511e-01
         vertex 8.634868e-02 2.011289e-01 4.113511e-01
      endloop
   endfacet
   facet normal -0.000000e+00 1.253333e-01 9.921147e-01
      outer loop
         vertex 8.634868e-02 2.011289e-01 4.113511e-01
         vertex 1.106349e+00 2.011289e-01 4.113511e-01
         vertex 1.106349e+00 2.508669e-01 4.050677e-01
      endloop
   endfacet
   facet normal 0.000000e+00 1.253333e-01 9.921147e-01
      outer loop
         vertex 8.634868e-02 2.011289e-01 4.113511e-01
         vertex 1.106349e+00 2.508669e-01 4.050677e-01
         vertex 8.634868e-02 2.508669e-01 4.050677e-01
      endloop
   endfacet
   facet normal -0.000000e+00 3.681246e-01 9.297765e-01
      outer loop
         vertex 8.634868e-02 2.508669e-01 4.050677e-01
         vertex 1.106349e+00 2.508669e-01 4.050677e-01
         vertex 1.106349e+00 2.974796e-01 3.866124e-01
      endloop
   endfacet
   facet normal 0.000000e+00 3.681246e-01 9.297765e-01
      outer loop
         vertex 8.634868e-02 2.508669e-01 4.050677e-01
         vertex 1.106349e+00 2.974796e-01 3.866124e-01
         vertex 8.634868e-02 2.974796e-01 3.866124e-01
      endloop
   endfacet
   facet normal -0.000000e+00 5.877853e-01 8.090170e-01
      outer loop
         vertex 8.634868e-02 2.974796e-01 3.866124e-01
         vertex 1.106349e+00 2.974796e-01 3.866124e-01
         vertex 1.106349e+00 3.380383e-01 3.571448e-01
      endloop
   endfacet
   facet normal 0.000000e+00 5.877853e-01 8.090170e-01
      outer loop
         vertex 8.634868e-02 2.974796e-01 3.866124e-01
         vertex 1.106349e+00 3.380383e-01 3.571448e-01
         vertex 8.634868e-02 3.380383e-01 3.571448e-01
      endloop
   endfacet
   facet normal -0.000000e+00 7.705132e-01 6.374241e-01
      outer loop
         vertex 8.634868e-02 3.380383e-01 3.571448e-01
         vertex 1.106349e+00 3.380383e-01 3.571448e-01
         vertex 1.106349e+00 3.699945e-01 3.185164e-01
      endloop
   endfacet
   facet normal 0.000000e+00 7.705132e-01 6.374241e-01
      outer loop
         vertex 8.634868e-02 3.380383e-01 3.571448e-01
         vertex 1.106349e+00 3.699945e-01 3.185164e-01
         vertex 8.634868e-02 3.699945e-01 3.185164e-01
      endloop
   endfacet
   facet normal -0.000000e+00 8.553647e-01 5.180263e-01
      outer loop
         vertex 8.634868e-02 3.699945e-01 3.185164e-01
         vertex 1.106349e+00 3.699945e-01 3.185164e-01
         vertex 3.160751e-01 3.743340e-01 3.113511e-01
      endloop
   endfacet
   facet normal 0.000000e+00 8.553647e-01 5.180263e-01
      outer loop
         vertex 8.634868e-02 3.699945e-01 3.185164e-01
         vertex 3.160751e-01 3.743340e-01 3.113511e-01
         vertex 1.160751e-01 3.743340e-01 3.113511e-01
      endloop
   endfacet
   facet normal 0.000000e+00 -9.238795e-01 3.826835e-01
      outer loop
         vertex 1.210751e-01 3.656737e-01 1.163511e-01
         vertex 1.210751e-01 3.846548e-01 1.621755e-01
         vertex 9.634867e-02 3.846548e-01 1.621755e-01
      endloop
   endfacet
   facet normal -0.000000e+00 7.839271e-01 6.208529e-01
      outer loop
         vertex 8.851570e-01 3.957394e-02 1.113511e-01
         vertex 1.085157e+00 3.957394e-02 1.113511e-01
         vertex 1.096349e+00 6.677860e-02 7.700080e-02
      endloop
   endfacet
   facet normal -5.991742e-02 7.919280e-01 -6.076677e-01
      outer loop
         vertex 1.085157e+00 3.957394e-02 3.113511e-01
         vertex 1.096349e+00 6.677860e-02 3.457014e-01
         vertex 1.096349e+00 3.658407e-02 3.063511e-01
      endloop
   endfacet
   facet normal 8.516422e-04 7.933531e-01 -6.087612e-01
      outer loop
         vertex 9.634867e-02 6.677860e-02 3.457014e-01
         vertex 8.851570e-01 3.957394e-02 3.113511e-01
         vertex 9.634867e-02 3.658407e-02 3.063511e-01
      endloop
   endfacet
   facet normal 0.000000e+00 8.582590e-01 -5.132168e-01
      outer loop
         vertex 9.634867e-02 3.658407e-02 3.063511e-01
         vertex 8.851570e-01 3.957394e-02 3.113511e-01
         vertex 8.851570e-01 3.658407e-02 3.063511e-01
      endloop
   endfacet
   facet normal 0.000000e+00 9.238795e-01 -3.826835e-01
      outer loop
         vertex 9.634867e-02 3.658407e-02 3.063511e-01
         vertex 8.851570e-01 3.658407e-02 3.063511e-01
         vertex 9.634867e-02 1.760298e-02 2.605267e-01
      endloop
   endfacet
   facet normal 0.000000e+00 9.238795e-01 -3.826835e-01
      outer loop
         vertex 9.634867e-02 1.760298e-02 2.605267e-01
         vertex 8.851570e-01 3.658407e-02 3.063511e-01
         vertex 8.851570e-01 1.760298e-02 2.605267e-01
      endloop
   endfacet
   facet normal 0.000000e+00 9.914449e-01 -1.305262e-01
      outer loop
         vertex 9.634867e-02 1.760298e-02 2.605267e-01
         vertex 8.851570e-01 1.760298e-02 2.605267e-01
         vertex 9.634867e-02 1.112889e-02 2.113511e-01
      endloop
   endfacet
   facet normal 0.000000e+00 9.914449e-01 -1.305262e-01
      outer loop
         vertex 9.634867e-02 1.112889e-02 2.113511e-01
         vertex 8.851570e-01 1.760298e-02 2.605267e-01
         vertex 8.851570e-01 1.112889e-02 2.113511e-01
      endloop
   endfacet
   facet normal -0.000000e+00 9.914449e-01 1.305262e-01
      outer loop
         vertex 9.634867e-02 1.112889e-02 2.113511e-01
         vertex 8.851570e-01 1.112889e-02 2.113511e-01
         vertex 9.634867e-02 1.760298e-02 1.621755e-01
      endloop
   endfacet
   facet normal -0.000000e+00 9.914449e-01 1.305262e-01
      outer loop
         vertex 9.634867e-02 1.760298e-02 1.621755e-01
         vertex 8.851570e-01 1.112889e-02 2.113511e-01
         vertex 8.851570e-01 1.760298e-02 1.621755e-01
      endloop
   endfacet
   facet normal -0.000000e+00 9.238795e-01 3.826835e-01
      outer loop
         vertex 9.634867e-02 1.760298e-02 1.621755e-01
         vertex 8.851570e-01 1.760298e-02 1.621755e-01
         vertex 9.634867e-02 3.658407e-02 1.163511e-01
      endloop
   endfacet
   facet normal -0.000000e+00 9.238795e-01 3.826835e-01
      outer loop
         vertex 9.634867e-02 3.658407e-02 1.163511e-01
         vertex 8.851570e-01 1.760298e-02 1.621755e-01
         vertex 8.851570e-01 3.658407e-02 1.163511e-01
      endloop
   endfacet
   facet normal -0.000000e+00 7.933533e-01 6.087614e-01
      outer loop
         vertex 9.634867e-02 3.658407e-02 1.163511e-01
         vertex 8.851570e-01 3.658407e-02 1.163511e-01
         vertex 9.634867e-02 6.677860e-02 7.700080e-02
      endloop
   endfacet
   facet normal -5.991742e-02 7.919280e-01 6.076677e-01
      outer loop
         vertex 1.096349e+00 6.677860e-02 7.700080e-02
         vertex 1.085157e+00 3.957394e-02 1.113511e-01
         vertex 1.096349e+00 3.658407e-02 1.163511e-01
      endloop
   endfacet
   facet normal 0.000000e+00 8.582590e-01 5.132168e-01
      outer loop
         vertex 1.096349e+00 3.658407e-02 1.163511e-01
         vertex 1.085157e+00 3.957394e-02 1.113511e-01
         vertex 1.085157e+00 3.658407e-02 1.163511e-01
      endloop
   endfacet
   facet normal 0.000000e+00 9.238795e-01 3.826835e-01
      outer loop
         vertex 1.096349e+00 3.658407e-02 1.163511e-01
         vertex 1.085157e+00 3.658407e-02 1.163511e-01
         vertex 1.096349e+00 1.760298e-02 1.621755e-01
      endloop
   endfacet
   facet normal 0.000000e+00 9.238795e-01 3.826835e-01
      outer loop
         vertex 1.096349e+00 1.760298e-02 1.621755e-01
         vertex 1.085157e+00 3.658407e-02 1.163511e-01
         vertex 1.085157e+00 1.760298e-02 1.621755e-01
      endloop
   endfacet
   facet normal 0.000000e+00 9.914449e-01 1.305262e-01
      outer loop
         vertex 1.096349e+00 1.760298e-02 1.621755e-01
         vertex 1.085157e+00 1.760298e-02 1.621755e-01
         vertex 1.096349e+00 1.112889e-02 2.113511e-01
      endloop
   endfacet
   facet normal 0.000000e+00 9.914449e-01 1.305262e-01
      outer loop
         vertex 1.096349e+00 1.112889e-02 2.113511e-01
         vertex 1.085157e+00 1.760298e-02 1.621755e-01
         vertex 1.085157e+00 1.112889e-02 2.113511e-01
      endloop
   endfacet
   facet normal 0.000000e+00 9.914449e-01 -1.305262e-01
      outer loop
         vertex 1.096349e+00 1.112889e-02 2.113511e-01
         vertex 1.085157e+00 1.112889e-02 2.113511e-01
         vertex 1.096349e+00 1.760298e-02 2.605267e-01
      endloop
   endfacet
   facet normal 0.000000e+00 9.914449e-01 -1.305262e-01
      outer loop
         vertex 1.096349e+00 1.760298e-02 2.605267e-01
         vertex 1.085157e+00 1.112889e-02 2.113511e-01
         vertex 1.085157e+00 1.760298e-02 2.605267e-01
      endloop
   endfacet
   facet normal 0.000000e+00 9.238795e-01 -3.826835e-01
      outer loop
         vertex 1.096349e+00 1.760298e-02 2.605267e-01
         vertex 1.085157e+00 1.760298e-02 2.605267e-01
         vertex 1.096349e+00 3.658407e-02 3.063511e-01
      endloop
   endfacet
   facet normal 0.000000e+00 9.238795e-01 -3.826835e-01
      outer loop
         vertex 1.096349e+00 3.658407e-02 3.063511e-01
         vertex 1.085157e+00 1.760298e-02 2.605267e-01
         vertex 1.085157e+00 3.658407e-02 3.063511e-01
      endloop
   endfacet
   facet normal 0.000000e+00 8.582590e-01 -5.132168e-01
      outer loop
         vertex 1.096349e+00 3.658407e-02 3.063511e-01
         vertex 1.085157e+00 3.658407e-02 3.063511e-01
         vertex 1.085157e+00 3.957394e-02 3.113511e-01
      endloop
   endfacet
   facet normal 0.000000e+00 -9.914449e-01 1.305262e-01
      outer loop
         vertex 9.634867e-02 3.846548e-01 1.621755e-01
         vertex 1.210751e-01 3.846548e-01 1.621755e-01
         vertex 9.634867e-02 3.911289e-01 2.113511e-01
      endloop
   endfacet
   facet normal 0.000000e+00 -9.914449e-01 1.305262e-01
      outer loop
         vertex 9.634867e-02 3.911289e-01 2.113511e-01
         vertex 1.210751e-01 3.846548e-01 1.621755e-01
         vertex 1.210751e-01 3.911289e-01 2.113511e-01
      endloop
   endfacet
   facet normal 0.000000e+00 -9.914449e-01 -1.305262e-01
      outer loop
         vertex 9.634867e-02 3.911289e-01 2.113511e-01
         vertex 1.210751e-01 3.911289e-01 2.113511e-01
         vertex 9.634867e-02 3.846548e-01 2.605267e-01
      endloop
   endfacet
   facet normal 0.000000e+00 -9.914449e-01 -1.305262e-01
      outer loop
         vertex 9.634867e-02 3.846548e-01 2.605267e-01
         vertex 1.210751e-01 3.911289e-01 2.113511e-01
         vertex 1.210751e-01 3.846548e-01 2.605267e-01
      endloop
   endfacet
   facet normal 0.000000e+00 -9.238795e-01 -3.826835e-01
      outer loop
         vertex 9.634867e-02 3.846548e-01 2.605267e-01
         vertex 1.210751e-01 3.846548e-01 2.605267e-01
         vertex 9.634867e-02 3.656737e-01 3.063511e-01
      endloop
   endfacet
   facet normal 0.000000e+00 -9.238795e-01 -3.826835e-01
      outer loop
         vertex 9.634867e-02 3.656737e-01 3.063511e-01
         vertex 1.210751e-01 3.846548e-01 2.605267e-01
         vertex 1.210751e-01 3.656737e-01 3.063511e-01
      endloop
   endfacet
   facet normal 0.000000e+00 -7.933533e-01 -6.087614e-01
      outer loop
         vertex 9.634867e-02 3.656737e-01 3.063511e-01
         vertex 1.210751e-01 3.656737e-01 3.063511e-01
         vertex 9.634867e-02 3.354792e-01 3.457014e-01
      endloop
   endfacet
   facet normal 0.000000e+00 -9.238795e-01 3.826835e-01
      outer loop
         vertex 9.634867e-02 3.846548e-01 1.621755e-01
         vertex 9.634867e-02 3.656737e-01 1.163511e-01
         vertex 1.210751e-01 3.656737e-01 1.163511e-01
      endloop
   endfacet
   facet normal 0.000000e+00 -7.933533e-01 6.087614e-01
      outer loop
         vertex 1.210751e-01 3.656737e-01 1.163511e-01
         vertex 9.634867e-02 3.656737e-01 1.163511e-01
         vertex 9.634867e-02 3.354792e-01 7.700080e-02
      endloop
   endfacet
   facet normal 0.000000e+00 -7.933533e-01 6.087614e-01
      outer loop
         vertex 1.210751e-01 3.656737e-01 1.163511e-01
         vertex 9.634867e-02 3.354792e-01 7.700080e-02
         vertex 3.110751e-01 3.656737e-01 1.163511e-01
      endloop
   endfacet
   facet normal 7.250622e-03 8.582364e-01 5.132034e-01
      outer loop
         vertex 8.851570e-01 3.658407e-02 1.163511e-01
         vertex 8.851570e-01 3.957394e-02 1.113511e-01
         vertex 9.634867e-02 6.677860e-02 7.700080e-02
      endloop
   endfacet
   facet normal -0.000000e+00 7.839271e-01 6.208529e-01
      outer loop
         vertex 9.634867e-02 6.677860e-02 7.700080e-02
         vertex 8.851570e-01 3.957394e-02 1.113511e-01
         vertex 1.096349e+00 6.677860e-02 7.700080e-02
      endloop
   endfacet
   facet normal -0.000000e+00 6.087614e-01 7.933533e-01
      outer loop
         vertex 9.634867e-02 6.677860e-02 7.700080e-02
         vertex 1.096349e+00 6.677860e-02 7.700080e-02
         vertex 9.634867e-02 1.061289e-01 4.680627e-02
      endloop
   endfacet
   facet normal -0.000000e+00 6.087614e-01 7.933533e-01
      outer loop
         vertex 9.634867e-02 1.061289e-01 4.680627e-02
         vertex 1.096349e+00 6.677860e-02 7.700080e-02
         vertex 1.096349e+00 1.061289e-01 4.680627e-02
      endloop
   endfacet
   facet normal -0.000000e+00 3.826835e-01 9.238795e-01
      outer loop
         vertex 9.634867e-02 1.061289e-01 4.680627e-02
         vertex 1.096349e+00 1.061289e-01 4.680627e-02
         vertex 9.634867e-02 1.519533e-01 2.782518e-02
      endloop
   endfacet
   facet normal -0.000000e+00 3.826835e-01 9.238795e-01
      outer loop
         vertex 9.634867e-02 1.519533e-01 2.782518e-02
         vertex 1.096349e+00 1.061289e-01 4.680627e-02
         vertex 1.096349e+00 1.519533e-01 2.782518e-02
      endloop
   endfacet
   facet normal -0.000000e+00 1.305262e-01 9.914449e-01
      outer loop
         vertex 9.634867e-02 1.519533e-01 2.782518e-02
         vertex 1.096349e+00 1.519533e-01 2.782518e-02
         vertex 9.634867e-02 2.011289e-01 2.135109e-02
      endloop
   endfacet
   facet normal -0.000000e+00 1.305262e-01 9.914449e-01
      outer loop
         vertex 9.634867e-02 2.011289e-01 2.135109e-02
         vertex 1.096349e+00 1.519533e-01 2.782518e-02
         vertex 1.096349e+00 2.011289e-01 2.135109e-02
      endloop
   endfacet
   facet normal 0.000000e+00 -1.305262e-01 9.914449e-01
      outer loop
         vertex 9.634867e-02 2.011289e-01 2.135109e-02
         vertex 1.096349e+00 2.011289e-01 2.135109e-02
         vertex 9.634867e-02 2.503045e-01 2.782518e-02
      endloop
   endfacet
   facet normal 0.000000e+00 -1.305262e-01 9.914449e-01
      outer loop
         vertex 9.634867e-02 2.503045e-01 2.782518e-02
         vertex 1.096349e+00 2.011289e-01 2.135109e-02
         vertex 1.096349e+00 2.503045e-01 2.782518e-02
      endloop
   endfacet
   facet normal 0.000000e+00 -3.826835e-01 9.238795e-01
      outer loop
         vertex 9.634867e-02 2.503045e-01 2.782518e-02
         vertex 1.096349e+00 2.503045e-01 2.782518e-02
         vertex 9.634867e-02 2.961289e-01 4.680627e-02
      endloop
   endfacet
   facet normal 0.000000e+00 -3.826835e-01 9.238795e-01
      outer loop
         vertex 9.634867e-02 2.961289e-01 4.680627e-02
         vertex 1.096349e+00 2.503045e-01 2.782518e-02
         vertex 1.096349e+00 2.961289e-01 4.680627e-02
      endloop
   endfacet
   facet normal 0.000000e+00 -6.087614e-01 7.933533e-01
      outer loop
         vertex 9.634867e-02 2.961289e-01 4.680627e-02
         vertex 1.096349e+00 2.961289e-01 4.680627e-02
         vertex 9.634867e-02 3.354792e-01 7.700080e-02
      endloop
   endfacet
   facet normal 0.000000e+00 -6.087614e-01 7.933533e-01
      outer loop
         vertex 9.634867e-02 3.354792e-01 7.700080e-02
         vertex 1.096349e+00 2.961289e-01 4.680627e-02
         vertex 1.096349e+00 3.354792e-01 7.700080e-02
      endloop
   endfacet
   facet normal 0.000000e+00 -7.933533e-01 6.087614e-01
      outer loop
         vertex 9.634867e-02 3.354792e-01 7.700080e-02
         vertex 1.096349e+00 3.354792e-01 7.700080e-02
         vertex 3.110751e-01 3.656737e-01 1.163511e-01
      endloop
   endfacet
   facet normal 0.000000e+00 -7.933533e-01 6.087614e-01
      outer loop
         vertex 3.110751e-01 3.656737e-01 1.163511e-01
         vertex 1.096349e+00 3.354792e-01 7.700080e-02
         vertex 1.096349e+00 3.656737e-01 1.163511e-01
      endloop
   endfacet
   facet normal 0.000000e+00 -9.238795e-01 3.826835e-01
      outer loop
         vertex 3.110751e-01 3.656737e-01 1.163511e-01
         vertex 1.096349e+00 3.656737e-01 1.163511e-01
         vertex 3.110751e-01 3.846548e-01 1.621755e-01
      endloop
   endfacet
   facet normal 0.000000e+00 -9.238795e-01 3.826835e-01
      outer loop
         vertex 3.110751e-01 3.846548e-01 1.621755e-01
         vertex 1.096349e+00 3.656737e-01 1.163511e-01
         vertex 1.096349e+00 3.846548e-01 1.621755e-01
      endloop
   endfacet
   facet normal 0.000000e+00 -9.914449e-01 1.305262e-01
      outer loop
         vertex 3.110751e-01 3.846548e-01 1.621755e-01
         vertex 1.096349e+00 3.846548e-01 1.621755e-01
         vertex 3.110751e-01 3.911289e-01 2.113511e-01
      endloop
   endfacet
   facet normal 0.000000e+00 -9.914449e-01 1.305262e-01
      outer loop
         vertex 3.110751e-01 3.911289e-01 2.113511e-01
         vertex 1.096349e+00 3.846548e-01 1.621755e-01
         vertex 1.096349e+00 3.911289e-01 2.113511e-01
      endloop
   endfacet
   facet normal 0.000000e+00 -9.914449e-01 -1.305262e-01
      outer loop
         vertex 3.110751e-01 3.911289e-01 2.113511e-01
         vertex 1.096349e+00 3.911289e-01 2.113511e-01
         vertex 3.110751e-01 3.846548e-01 2.605267e-01
      endloop
   endfacet
   facet normal 0.000000e+00 -9.914449e-01 -1.305262e-01
      outer loop
         vertex 3.110751e-01 3.846548e-01 2.605267e-01
         vertex 1.096349e+00 3.911289e-01 2.113511e-01
         vertex 1.096349e+00 3.846548e-01 2.605267e-01
      endloop
   endfacet
   facet normal 0.000000e+00 -9.238795e-01 -3.826835e-01
      outer loop
         vertex 3.110751e-01 3.846548e-01 2.605267e-01
         vertex 1.096349e+00 3.846548e-01 2.605267e-01
         vertex 3.110751e-01 3.656737e-01 3.063511e-01
      endloop
   endfacet
   facet normal 0.000000e+00 -9.238795e-01 -3.826835e-01
      outer loop
         vertex 3.110751e-01 3.656737e-01 3.063511e-01
         vertex 1.096349e+00 3.846548e-01 2.605267e-01
         vertex 1.096349e+00 3.656737e-01 3.063511e-01
      endloop
   endfacet
   facet normal 0.000000e+00 -7.933533e-01 -6.087614e-01
      outer loop
         vertex 3.110751e-01 3.656737e-01 3.063511e-01
         vertex 1.096349e+00 3.656737e-01 3.063511e-01
         vertex 1.096349e+00 3.354792e-01 3.457014e-01
      endloop
   endfacet
   facet normal 0.000000e+00 7.839271e-01 -6.208529e-01
      outer loop
         vertex 1.085157e+00 3.957394e-02 3.113511e-01
         vertex 8.851570e-01 3.957394e-02 3.113511e-01
         vertex 1.096349e+00 6.677860e-02 3.457014e-01
      endloop
   endfacet
   facet normal 0.000000e+00 7.839271e-01 -6.208529e-01
      outer loop
         vertex 1.096349e+00 6.677860e-02 3.457014e-01
         vertex 8.851570e-01 3.957394e-02 3.113511e-01
         vertex 9.634867e-02 6.677860e-02 3.457014e-01
      endloop
   endfacet
   facet normal 0.000000e+00 6.087614e-01 -7.933533e-01
      outer loop
         vertex 1.096349e+00 6.677860e-02 3.457014e-01
         vertex 9.634867e-02 6.677860e-02 3.457014e-01
         vertex 1.096349e+00 1.061289e-01 3.758959e-01
      endloop
   endfacet
   facet normal 0.000000e+00 6.087614e-01 -7.933533e-01
      outer loop
         vertex 1.096349e+00 1.061289e-01 3.758959e-01
         vertex 9.634867e-02 6.677860e-02 3.457014e-01
         vertex 9.634867e-02 1.061289e-01 3.758959e-01
      endloop
   endfacet
   facet normal 0.000000e+00 3.826835e-01 -9.238795e-01
      outer loop
         vertex 1.096349e+00 1.061289e-01 3.758959e-01
         vertex 9.634867e-02 1.061289e-01 3.758959e-01
         vertex 1.096349e+00 1.519533e-01 3.948770e-01
      endloop
   endfacet
   facet normal 0.000000e+00 3.826835e-01 -9.238795e-01
      outer loop
         vertex 1.096349e+00 1.519533e-01 3.948770e-01
         vertex 9.634867e-02 1.061289e-01 3.758959e-01
         vertex 9.634867e-02 1.519533e-01 3.948770e-01
      endloop
   endfacet
   facet normal 0.000000e+00 1.305262e-01 -9.914449e-01
      outer loop
         vertex 1.096349e+00 1.519533e-01 3.948770e-01
         vertex 9.634867e-02 1.519533e-01 3.948770e-01
         vertex 1.096349e+00 2.011289e-01 4.013511e-01
      endloop
   endfacet
   facet normal -6.074242e-18 1.305262e-01 -9.914449e-01
      outer loop
         vertex 1.096349e+00 2.011289e-01 4.013511e-01
         vertex 9.634867e-02 1.519533e-01 3.948770e-01
         vertex 9.634867e-02 2.011289e-01 4.013511e-01
      endloop
   endfacet
   facet normal 6.074242e-18 -1.305262e-01 -9.914449e-01
      outer loop
         vertex 1.096349e+00 2.011289e-01 4.013511e-01
         vertex 9.634867e-02 2.011289e-01 4.013511e-01
         vertex 1.096349e+00 2.503045e-01 3.948770e-01
      endloop
   endfacet
   facet normal -0.000000e+00 -1.305262e-01 -9.914449e-01
      outer loop
         vertex 1.096349e+00 2.503045e-01 3.948770e-01
         vertex 9.634867e-02 2.011289e-01 4.013511e-01
         vertex 9.634867e-02 2.503045e-01 3.948770e-01
      endloop
   endfacet
   facet normal -0.000000e+00 -3.826835e-01 -9.238795e-01
      outer loop
         vertex 1.096349e+00 2.503045e-01 3.948770e-01
         vertex 9.634867e-02 2.503045e-01 3.948770e-01
         vertex 1.096349e+00 2.961289e-01 3.758959e-01
      endloop
   endfacet
   facet normal -0.000000e+00 -3.826835e-01 -9.238795e-01
      outer loop
         vertex 1.096349e+00 2.961289e-01 3.758959e-01
         vertex 9.634867e-02 2.503045e-01 3.948770e-01
         vertex 9.634867e-02 2.961289e-01 3.758959e-01
      endloop
   endfacet
   facet normal -0.000000e+00 -6.087614e-01 -7.933533e-01
      outer loop
         vertex 1.096349e+00 2.961289e-01 3.758959e-01
         vertex 9.634867e-02 2.961289e-01 3.758959e-01
         vertex 1.096349e+00 3.354792e-01 3.457014e-01
      endloop
   endfacet
   facet normal -0.000000e+00 -6.087614e-01 -7.933533e-01
      outer loop
         vertex 1.096349e+00 3.354792e-01 3.457014e-01
         vertex 9.634867e-02 2.961289e-01 3.758959e-01
         vertex 9.634867e-02 3.354792e-01 3.457014e-01
      endloop
   endfacet
   facet normal -0.000000e+00 -7.933533e-01 -6.087614e-01
      outer loop
         vertex 1.096349e+00 3.354792e-01 3.457014e-01
         vertex 9.634867e-02 3.354792e-01 3.457014e-01
         vertex 3.110751e-01 3.656737e-01 3.063511e-01
      endloop
   endfacet
   facet normal -0.000000e+00 -7.933533e-01 -6.087614e-01
      outer loop
         vertex 3.110751e-01 3.656737e-01 3.063511e-01
         vertex 9.634867e-02 3.354792e-01 3.457014e-01
         vertex 1.210751e-01 3.656737e-01 3.063511e-01
      endloop
   endfacet
   facet normal -1.000000e+00 0.000000e+00 0.000000e+00
      outer loop
         vertex 1.085157e+00 3.957394e-02 1.113511e-01
         vertex 1.085157e+00 2.792381e-02 1.113511e-01
         vertex 1.085157e+00 3.658407e-02 1.163511e-01
      endloop
   endfacet
   facet normal -1.000000e+00 -0.000000e+00 0.000000e+00
      outer loop
         vertex 1.085157e+00 3.658407e-02 1.163511e-01
         vertex 1.085157e+00 2.792381e-02 1.113511e-01
         vertex 1.085157e+00 2.016348e-02 1.261952e-01
      endloop
   endfacet
   facet normal -1.000000e+00 0.000000e+00 0.000000e+00
      outer loop
         vertex 1.085157e+00 3.658407e-02 1.163511e-01
         vertex 1.085157e+00 2.016348e-02 1.261952e-01
         vertex 1.085157e+00 1.760298e-02 1.621755e-01
      endloop
   endfacet
   facet normal -1.000000e+00 -0.000000e+00 -0.000000e+00
      outer loop
         vertex 1.085157e+00 1.760298e-02 1.621755e-01
         vertex 1.085157e+00 2.016348e-02 1.261952e-01
         vertex 1.085157e+00 4.671444e-03 1.738748e-01
      endloop
   endfacet
   facet normal -1.000000e+00 0.000000e+00 0.000000e+00
      outer loop
         vertex 1.085157e+00 1.760298e-02 1.621755e-01
         vertex 1.085157e+00 4.671444e-03 1.738748e-01
         vertex 1.085157e+00 1.112889e-02 2.113511e-01
      endloop
   endfacet
   facet normal -1.000000e+00 -0.000000e+00 0.000000e+00
      outer loop
         vertex 1.085157e+00 1.112889e-02 2.113511e-01
         vertex 1.085157e+00 4.671444e-03 1.738748e-01
         vertex 1.085157e+00 1.523544e-03 2.239092e-01
      endloop
   endfacet
   facet normal -1.000000e+00 0.000000e+00 0.000000e+00
      outer loop
         vertex 1.085157e+00 1.112889e-02 2.113511e-01
         vertex 1.085157e+00 1.523544e-03 2.239092e-01
         vertex 1.085157e+00 1.760298e-02 2.605267e-01
      endloop
   endfacet
   facet normal -1.000000e+00 -0.000000e+00 0.000000e+00
      outer loop
         vertex 1.085157e+00 1.760298e-02 2.605267e-01
         vertex 1.085157e+00 1.523544e-03 2.239092e-01
         vertex 1.085157e+00 1.091759e-02 2.731545e-01
      endloop
   endfacet
   facet normal -1.000000e+00 0.000000e+00 0.000000e+00
      outer loop
         vertex 1.085157e+00 1.760298e-02 2.605267e-01
         vertex 1.085157e+00 1.091759e-02 2.731545e-01
         vertex 1.085157e+00 3.658407e-02 3.063511e-01
      endloop
   endfacet
   facet normal -1.000000e+00 -0.000000e+00 0.000000e+00
      outer loop
         vertex 1.085157e+00 3.658407e-02 3.063511e-01
         vertex 1.085157e+00 1.091759e-02 2.731545e-01
         vertex 1.085157e+00 2.792381e-02 3.113511e-01
      endloop
   endfacet
   facet normal -1.000000e+00 0.000000e+00 0.000000e+00
      outer loop
         vertex 1.085157e+00 3.658407e-02 3.063511e-01
         vertex 1.085157e+00 2.792381e-02 3.113511e-01
         vertex 1.085157e+00 3.957394e-02 3.113511e-01
      endloop
   endfacet
   facet normal -0.000000e+00 -0.000000e+00 -1.000000e+00
      outer loop
         vertex 1.085157e+00 3.957394e-02 3.113511e-01
         vertex 1.085157e+00 2.792381e-02 3.113511e-01
         vertex 8.851570e-01 3.957394e-02 3.113511e-01
      endloop
   endfacet
   facet normal 0.000000e+00 0.000000e+00 -1.000000e+00
      outer loop
         vertex 8.851570e-01 3.957394e-02 3.113511e-01
         vertex 1.085157e+00 2.792381e-02 3.113511e-01
         vertex 8.851570e-01 2.792381e-02 3.113511e-01
      endloop
   endfacet
   facet normal 1.000000e+00 0.000000e+00 -0.000000e+00
      outer loop
         vertex 8.851570e-01 3.658407e-02 3.063511e-01
         vertex 8.851570e-01 3.957394e-02 3.113511e-01
         vertex 8.851570e-01 2.792381e-02 3.113511e-01
      endloop
   endfacet
   facet normal 1.000000e+00 0.000000e+00 0.000000e+00
      outer loop
         vertex 8.851570e-01 2.792381e-02 1.113511e-01
         vertex 8.851570e-01 3.957394e-02 1.113511e-01
         vertex 8.851570e-01 3.658407e-02 1.163511e-01
      endloop
   endfacet
   facet normal 1.000000e+00 0.000000e+00 0.000000e+00
      outer loop
         vertex 8.851570e-01 3.658407e-02 3.063511e-01
         vertex 8.851570e-01 2.792381e-02 3.113511e-01
         vertex 8.851570e-01 1.760298e-02 2.605267e-01
      endloop
   endfacet
   facet normal 1.000000e+00 0.000000e+00 -0.000000e+00
      outer loop
         vertex 8.851570e-01 1.760298e-02 2.605267e-01
         vertex 8.851570e-01 2.792381e-02 3.113511e-01
         vertex 8.851570e-01 1.091759e-02 2.731545e-01
      endloop
   endfacet
   facet normal 1.000000e+00 0.000000e+00 0.000000e+00
      outer loop
         vertex 8.851570e-01 1.760298e-02 2.605267e-01
         vertex 8.851570e-01 1.091759e-02 2.731545e-01
         vertex 8.851570e-01 1.112889e-02 2.113511e-01
      endloop
   endfacet
   facet normal 1.000000e+00 0.000000e+00 0.000000e+00
      outer loop
         vertex 8.851570e-01 1.112889e-02 2.113511e-01
         vertex 8.851570e-01 1.091759e-02 2.731545e-01
         vertex 8.851570e-01 1.523544e-03 2.239092e-01
      endloop
   endfacet
   facet normal 1.000000e+00 0.000000e+00 0.000000e+00
      outer loop
         vertex 8.851570e-01 1.112889e-02 2.113511e-01
         vertex 8.851570e-01 1.523544e-03 2.239092e-01
         vertex 8.851570e-01 1.760298e-02 1.621755e-01
      endloop
   endfacet
   facet normal 1.000000e+00 0.000000e+00 0.000000e+00
      outer loop
         vertex 8.851570e-01 1.760298e-02 1.621755e-01
         vertex 8.851570e-01 1.523544e-03 2.239092e-01
         vertex 8.851570e-01 4.671444e-03 1.738748e-01
      endloop
   endfacet
   facet normal 1.000000e+00 0.000000e+00 0.000000e+00
      outer loop
         vertex 8.851570e-01 1.760298e-02 1.621755e-01
         vertex 8.851570e-01 4.671444e-03 1.738748e-01
         vertex 8.851570e-01 3.658407e-02 1.163511e-01
      endloop
   endfacet
   facet normal 1.000000e+00 0.000000e+00 0.000000e+00
      outer loop
         vertex 8.851570e-01 3.658407e-02 1.163511e-01
         vertex 8.851570e-01 4.671444e-03 1.738748e-01
         vertex 8.851570e-01 2.016348e-02 1.261952e-01
      endloop
   endfacet
   facet normal 1.000000e+00 0.000000e+00 0.000000e+00
      outer loop
         vertex 8.851570e-01 3.658407e-02 1.163511e-01
         vertex 8.851570e-01 2.016348e-02 1.261952e-01
         vertex 8.851570e-01 2.792381e-02 1.113511e-01
      endloop
   endfacet
   facet normal -0.000000e+00 0.000000e+00 1.000000e+00
      outer loop
         vertex 8.851570e-01 3.957394e-02 1.113511e-01
         vertex 8.851570e-01 2.792381e-02 1.113511e-01
         vertex 1.085157e+00 3.957394e-02 1.113511e-01
      endloop
   endfacet
   facet normal 0.000000e+00 0.000000e+00 1.000000e+00
      outer loop
         vertex 1.085157e+00 3.957394e-02 1.113511e-01
         vertex 8.851570e-01 2.792381e-02 1.113511e-01
         vertex 1.085157e+00 2.792381e-02 1.113511e-01
      endloop
   endfacet
   facet normal 0.000000e+00 -0.000000e+00 1.000000e+00
      outer loop
         vertex 3.160751e-01 3.743340e-01 3.113511e-01
         vertex 3.160751e-01 4.011289e-01 3.113511e-01
         vertex 1.160751e-01 3.743340e-01 3.113511e-01
      endloop
   endfacet
   facet normal 0.000000e+00 0.000000e+00 1.000000e+00
      outer loop
         vertex 1.160751e-01 3.743340e-01 3.113511e-01
         vertex 3.160751e-01 4.011289e-01 3.113511e-01
         vertex 1.160751e-01 4.011289e-01 3.113511e-01
      endloop
   endfacet
   facet normal 0.000000e+00 0.000000e+00 -1.000000e+00
      outer loop
         vertex 1.160751e-01 3.743340e-01 1.113511e-01
         vertex 1.160751e-01 4.011289e-01 1.113511e-01
         vertex 3.160751e-01 3.743340e-01 1.113511e-01
      endloop
   endfacet
   facet normal 0.000000e+00 0.000000e+00 -1.000000e+00
      outer loop
         vertex 3.160751e-01 3.743340e-01 1.113511e-01
         vertex 1.160751e-01 4.011289e-01 1.113511e-01
         vertex 3.160751e-01 4.011289e-01 1.113511e-01
      endloop
   endfacet
   facet normal -1.000000e+00 0.000000e+00 0.000000e+00
      outer loop
         vertex 1.160751e-01 3.743340e-01 1.113511e-01
         vertex 1.160751e-01 3.820943e-01 1.261952e-01
         vertex 1.160751e-01 4.011289e-01 1.113511e-01
      endloop
   endfacet
   facet normal -1.000000e+00 0.000000e+00 0.000000e+00
      outer loop
         vertex 1.160751e-01 4.011289e-01 1.113511e-01
         vertex 1.160751e-01 3.820943e-01 1.261952e-01
         vertex 1.160751e-01 3.975863e-01 1.738748e-01
      endloop
   endfacet
   facet normal -1.000000e+00 0.000000e+00 0.000000e+00
      outer loop
         vertex 1.160751e-01 4.011289e-01 1.113511e-01
         vertex 1.160751e-01 3.975863e-01 1.738748e-01
         vertex 1.160751e-01 4.011289e-01 2.113511e-01
      endloop
   endfacet
   facet normal -1.000000e+00 0.000000e+00 0.000000e+00
      outer loop
         vertex 1.160751e-01 4.011289e-01 2.113511e-01
         vertex 1.160751e-01 4.007342e-01 2.239092e-01
         vertex 1.160751e-01 4.011289e-01 3.113511e-01
      endloop
   endfacet
   facet normal -1.000000e+00 0.000000e+00 0.000000e+00
      outer loop
         vertex 1.160751e-01 4.011289e-01 3.113511e-01
         vertex 1.160751e-01 4.007342e-01 2.239092e-01
         vertex 1.160751e-01 3.913402e-01 2.731545e-01
      endloop
   endfacet
   facet normal -1.000000e+00 -0.000000e+00 0.000000e+00
      outer loop
         vertex 1.160751e-01 4.011289e-01 3.113511e-01
         vertex 1.160751e-01 3.913402e-01 2.731545e-01
         vertex 1.160751e-01 3.743340e-01 3.113511e-01
      endloop
   endfacet
   facet normal 1.000000e+00 -0.000000e+00 0.000000e+00
      outer loop
         vertex 3.160751e-01 3.743340e-01 3.113511e-01
         vertex 3.160751e-01 3.913402e-01 2.731545e-01
         vertex 3.160751e-01 4.011289e-01 3.113511e-01
      endloop
   endfacet
   facet normal 1.000000e+00 0.000000e+00 0.000000e+00
      outer loop
         vertex 3.160751e-01 4.011289e-01 3.113511e-01
         vertex 3.160751e-01 3.913402e-01 2.731545e-01
         vertex 3.160751e-01 4.007342e-01 2.239092e-01
      endloop
   endfacet
   facet normal 1.000000e+00 0.000000e+00 0.000000e+00
      outer loop
         vertex 3.160751e-01 4.011289e-01 3.113511e-01
         vertex 3.160751e-01 4.007342e-01 2.239092e-01
         vertex 3.160751e-01 4.011289e-01 2.113511e-01
      endloop
   endfacet
   facet normal 1.000000e+00 0.000000e+00 0.000000e+00
      outer loop
         vertex 3.160751e-01 4.011289e-01 2.113511e-01
         vertex 3.160751e-01 3.975863e-01 1.738748e-01
         vertex 3.160751e-01 4.011289e-01 1.113511e-01
      endloop
   endfacet
   facet normal 1.000000e+00 0.000000e+00 0.000000e+00
      outer loop
         vertex 3.160751e-01 4.011289e-01 1.113511e-01
         vertex 3.160751e-01 3.975863e-01 1.738748e-01
         vertex 3.160751e-01 3.820943e-01 1.261952e-01
      endloop
   endfacet
   facet normal 1.000000e+00 0.000000e+00 0.000000e+00
      outer loop
         vertex 3.160751e-01 4.011289e-01 1.113511e-01
         vertex 3.160751e-01 3.820943e-01 1.261952e-01
         vertex 3.160751e-01 3.743340e-01 1.113511e-01
      endloop
   endfacet
   facet normal -1.000000e+00 -1.513023e-05 6.267149e-06
      outer loop
         vertex 3.110751e-01 3.656737e-01 1.163511e-01
         vertex 3.110751e-01 3.846548e-01 1.621755e-01
         vertex 3.110746e-01 4.011289e-01 1.163516e-01
      endloop
   endfacet
   facet normal -1.000000e+00 -2.383453e-05 3.137875e-06
      outer loop
         vertex 3.110746e-01 4.011289e-01 1.163516e-01
         vertex 3.110751e-01 3.846548e-01 1.621755e-01
         vertex 3.110751e-01 3.911289e-01 2.113511e-01
      endloop
   endfacet
   facet normal -1.000000e+00 -5.364415e-05 0.000000e+00
      outer loop
         vertex 3.110746e-01 4.011289e-01 1.163516e-01
         vertex 3.110751e-01 3.911289e-01 2.113511e-01
         vertex 3.110746e-01 4.011289e-01 3.063506e-01
      endloop
   endfacet
   facet normal -1.000000e+00 -2.383453e-05 -3.137875e-06
      outer loop
         vertex 3.110746e-01 4.011289e-01 3.063506e-01
         vertex 3.110751e-01 3.911289e-01 2.113511e-01
         vertex 3.110751e-01 3.846548e-01 2.605267e-01
      endloop
   endfacet
   facet normal -1.000000e+00 -1.513023e-05 -6.267149e-06
      outer loop
         vertex 3.110746e-01 4.011289e-01 3.063506e-01
         vertex 3.110751e-01 3.846548e-01 2.605267e-01
         vertex 3.110751e-01 3.656737e-01 3.063511e-01
      endloop
   endfacet
   facet normal 0.000000e+00 -1.513014e-05 -1.000000e+00
      outer loop
         vertex 1.210751e-01 3.656737e-01 3.063511e-01
         vertex 1.210757e-01 4.011289e-01 3.063506e-01
         vertex 3.110751e-01 3.656737e-01 3.063511e-01
      endloop
   endfacet
   facet normal 0.000000e+00 -1.513014e-05 -1.000000e+00
      outer loop
         vertex 3.110751e-01 3.656737e-01 3.063511e-01
         vertex 1.210757e-01 4.011289e-01 3.063506e-01
         vertex 3.110746e-01 4.011289e-01 3.063506e-01
      endloop
   endfacet
   facet normal 1.000000e+00 -1.507770e-05 -6.245388e-06
      outer loop
         vertex 1.210751e-01 3.656737e-01 3.063511e-01
         vertex 1.210751e-01 3.846548e-01 2.605267e-01
         vertex 1.210757e-01 4.011289e-01 3.063506e-01
      endloop
   endfacet
   facet normal 1.000000e+00 -2.375177e-05 -3.126979e-06
      outer loop
         vertex 1.210757e-01 4.011289e-01 3.063506e-01
         vertex 1.210751e-01 3.846548e-01 2.605267e-01
         vertex 1.210751e-01 3.911289e-01 2.113511e-01
      endloop
   endfacet
   facet normal 1.000000e+00 -5.345789e-05 0.000000e+00
      outer loop
         vertex 1.210757e-01 4.011289e-01 3.063506e-01
         vertex 1.210751e-01 3.911289e-01 2.113511e-01
         vertex 1.210757e-01 4.011289e-01 1.163516e-01
      endloop
   endfacet
   facet normal 1.000000e+00 -2.375177e-05 3.126979e-06
      outer loop
         vertex 1.210757e-01 4.011289e-01 1.163516e-01
         vertex 1.210751e-01 3.911289e-01 2.113511e-01
         vertex 1.210751e-01 3.846548e-01 1.621755e-01
      endloop
   endfacet
   facet normal 1.000000e+00 -1.507770e-05 6.245388e-06
      outer loop
         vertex 1.210757e-01 4.011289e-01 1.163516e-01
         vertex 1.210751e-01 3.846548e-01 1.621755e-01
         vertex 1.210751e-01 3.656737e-01 1.163511e-01
      endloop
   endfacet
   facet normal 0.000000e+00 -1.513014e-05 1.000000e+00
      outer loop
         vertex 3.110751e-01 3.656737e-01 1.163511e-01
         vertex 3.110746e-01 4.011289e-01 1.163516e-01
         vertex 1.210751e-01 3.656737e-01 1.163511e-01
      endloop
   endfacet
   facet normal 0.000000e+00 -1.513014e-05 1.000000e+00
      outer loop
         vertex 1.210751e-01 3.656737e-01 1.163511e-01
         vertex 3.110746e-01 4.011289e-01 1.163516e-01
         vertex 1.210757e-01 4.011289e-01 1.163516e-01
      endloop
   endfacet
   facet normal -9.396926e-01 -3.420201e-01 0.000000e+00
      outer loop
         vertex 6.884063e-03 7.011289e-01 2.160020e-03
         vertex 1.160751e-01 4.011289e-01 1.113511e-01
         vertex 6.884063e-03 7.011289e-01 4.205422e-01
      endloop
   endfacet
   facet normal -9.396926e-01 -3.420201e-01 0.000000e+00
      outer loop
         vertex 6.884063e-03 7.011289e-01 4.205422e-01
         vertex 1.160751e-01 4.011289e-01 1.113511e-01
         vertex 1.160751e-01 4.011289e-01 2.113511e-01
      endloop
   endfacet
   facet normal -9.396926e-01 -3.420201e-01 0.000000e+00
      outer loop
         vertex 6.884063e-03 7.011289e-01 4.205422e-01
         vertex 1.160751e-01 4.011289e-01 2.113511e-01
         vertex 1.160751e-01 4.011289e-01 3.113511e-01
      endloop
   endfacet
   facet normal 0.000000e+00 -3.420201e-01 9.396926e-01
      outer loop
         vertex 4.252662e-01 7.011289e-01 4.205422e-01
         vertex 6.884063e-03 7.011289e-01 4.205422e-01
         vertex 3.160751e-01 4.011289e-01 3.113511e-01
      endloop
   endfacet
   facet normal 0.000000e+00 -3.420201e-01 9.396926e-01
      outer loop
         vertex 3.160751e-01 4.011289e-01 3.113511e-01
         vertex 6.884063e-03 7.011289e-01 4.205422e-01
         vertex 1.160751e-01 4.011289e-01 3.113511e-01
      endloop
   endfacet
   facet normal 9.396926e-01 -3.420202e-01 0.000000e+00
      outer loop
         vertex 3.160751e-01 4.011289e-01 1.113511e-01
         vertex 4.252662e-01 7.011289e-01 2.160020e-03
         vertex 3.160751e-01 4.011289e-01 2.113511e-01
      endloop
   endfacet
   facet normal 9.396926e-01 -3.420202e-01 0.000000e+00
      outer loop
         vertex 3.160751e-01 4.011289e-01 2.113511e-01
         vertex 4.252662e-01 7.011289e-01 2.160020e-03
         vertex 4.252662e-01 7.011289e-01 4.205422e-01
      endloop
   endfacet
   facet normal 9.396926e-01 -3.420202e-01 0.000000e+00
      outer loop
         vertex 3.160751e-01 4.011289e-01 2.113511e-01
         vertex 4.252662e-01 7.011289e-01 4.205422e-01
         vertex 3.160751e-01 4.011289e-01 3.113511e-01
      endloop
   endfacet
   facet normal 0.000000e+00 -3.420201e-01 -9.396926e-01
      outer loop
         vertex 6.884063e-03 7.011289e-01 2.160020e-03
         vertex 4.252662e-01 7.011289e-01 2.160020e-03
         vertex 1.160751e-01 4.011289e-01 1.113511e-01
      endloop
   endfacet
   facet normal 0.000000e+00 -3.420201e-01 -9.396926e-01
      outer loop
         vertex 1.160751e-01 4.011289e-01 1.113511e-01
         vertex 4.252662e-01 7.011289e-01 2.160020e-03
         vertex 3.160751e-01 4.011289e-01 1.113511e-01
      endloop
   endfacet
   facet normal 0.000000e+00 1.000000e+00 -0.000000e+00
      outer loop
         vertex 1.188514e-02 7.011289e-01 7.161088e-03
         vertex 6.884063e-03 7.011289e-01 2.160020e-03
         vertex 1.188514e-02 7.011289e-01 4.155411e-01
      endloop
   endfacet
   facet normal 0.000000e+00 1.000000e+00 0.000000e+00
      outer loop
         vertex 1.188514e-02 7.011289e-01 4.155411e-01
         vertex 6.884063e-03 7.011289e-01 2.160020e-03
         vertex 6.884063e-03 7.011289e-01 4.205422e-01
      endloop
   endfacet
   facet normal 0.000000e+00 1.000000e+00 -0.000000e+00
      outer loop
         vertex 1.188514e-02 7.011289e-01 4.155411e-01
         vertex 6.884063e-03 7.011289e-01 4.205422e-01
         vertex 4.202651e-01 7.011289e-01 4.155411e-01
      endloop
   endfacet
   facet normal 0.000000e+00 1.000000e+00 -0.000000e+00
      outer loop
         vertex 4.202651e-01 7.011289e-01 4.155411e-01
         vertex 6.884063e-03 7.011289e-01 4.205422e-01
         vertex 4.252662e-01 7.011289e-01 4.205422e-01
      endloop
   endfacet
   facet normal -0.000000e+00 1.000000e+00 0.000000e+00
      outer loop
         vertex 4.202651e-01 7.011289e-01 4.155411e-01
         vertex 4.252662e-01 7.011289e-01 4.205422e-01
         vertex 4.202651e-01 7.011289e-01 7.161088e-03
      endloop
   endfacet
   facet normal -0.000000e+00 1.000000e+00 0.000000e+00
      outer loop
         vertex 4.202651e-01 7.011289e-01 7.161088e-03
         vertex 4.252662e-01 7.011289e-01 4.205422e-01
         vertex 4.252662e-01 7.011289e-01 2.160020e-03
      endloop
   endfacet
   facet normal 0.000000e+00 1.000000e+00 0.000000e+00
      outer loop
         vertex 4.202651e-01 7.011289e-01 7.161088e-03
         vertex 4.252662e-01 7.011289e-01 2.160020e-03
         vertex 1.188514e-02 7.011289e-01 7.161088e-03
      endloop
   endfacet
   facet normal 0.000000e+00 1.000000e+00 0.000000e+00
      outer loop
         vertex 1.188514e-02 7.011289e-01 7.161088e-03
         vertex 4.252662e-01 7.011289e-01 2.160020e-03
         vertex 6.884063e-03 7.011289e-01 2.160020e-03
      endloop
   endfacet
   facet normal -9.396932e-01 3.420187e-01 0.000000e+00
      outer loop
         vertex 3.110746e-01 4.011289e-01 1.163516e-01
         vertex 3.110746e-01 4.011289e-01 3.063506e-01
         vertex 4.202651e-01 7.011289e-01 7.161088e-03
      endloop
   endfacet
   facet normal -9.396932e-01 3.420187e-01 0.000000e+00
      outer loop
         vertex 4.202651e-01 7.011289e-01 7.161088e-03
         vertex 3.110746e-01 4.011289e-01 3.063506e-01
         vertex 4.202651e-01 7.011289e-01 4.155411e-01
      endloop
   endfacet
   facet normal 0.000000e+00 3.420187e-01 -9.396932e-01
      outer loop
         vertex 3.110746e-01 4.011289e-01 3.063506e-01
         vertex 1.210757e-01 4.011289e-01 3.063506e-01
         vertex 4.202651e-01 7.011289e-01 4.155411e-01
      endloop
   endfacet
   facet normal 0.000000e+00 3.420187e-01 -9.396932e-01
      outer loop
         vertex 4.202651e-01 7.011289e-01 4.155411e-01
         vertex 1.210757e-01 4.011289e-01 3.063506e-01
         vertex 1.188514e-02 7.011289e-01 4.155411e-01
      endloop
   endfacet
   facet normal 9.396932e-01 3.420187e-01 0.000000e+00
      outer loop
         vertex 1.210757e-01 4.011289e-01 3.063506e-01
         vertex 1.210757e-01 4.011289e-01 1.163516e-01
         vertex 1.188514e-02 7.011289e-01 4.155411e-01
      endloop
   endfacet
   facet normal 9.396932e-01 3.420187e-01 0.000000e+00
      outer loop
         vertex 1.188514e-02 7.011289e-01 4.155411e-01
         vertex 1.210757e-01 4.011289e-01 1.163516e-01
         vertex 1.188514e-02 7.011289e-01 7.161088e-03
      endloop
   endfacet
   facet normal -0.000000e+00 3.420187e-01 9.396932e-01
      outer loop
         vertex 1.210757e-01 4.011289e-01 1.163516e-01
         vertex 3.110746e-01 4.011289e-01 1.163516e-01
         vertex 1.188514e-02 7.011289e-01 7.161088e-03
      endloop
   endfacet
   facet normal -0.000000e+00 3.420187e-01 9.396932e-01
      outer loop
         vertex 1.188514e-02 7.011289e-01 7.161088e-03
         vertex 3.110746e-01 4.011289e-01 1.163516e-01
         vertex 4.202651e-01 7.011289e-01 7.161088e-03
      endloop
   endfacet
   facet normal 1.000000e+00 0.000000e+00 0.000000e+00
      outer loop
         vertex 9.634867e-02 2.961289e-01 3.758959e-01
         vertex 9.634867e-02 2.503045e-01 3.948770e-01
         vertex 9.634867e-02 2.011289e-01 2.113511e-01
      endloop
   endfacet
   facet normal 1.000000e+00 0.000000e+00 -0.000000e+00
      outer loop
         vertex 9.634867e-02 2.011289e-01 2.113511e-01
         vertex 9.634867e-02 2.503045e-01 3.948770e-01
         vertex 9.634867e-02 2.011289e-01 4.013511e-01
      endloop
   endfacet
   facet normal 1.000000e+00 0.000000e+00 0.000000e+00
      outer loop
         vertex 9.634867e-02 2.011289e-01 2.113511e-01
         vertex 9.634867e-02 2.011289e-01 4.013511e-01
         vertex 9.634867e-02 1.519533e-01 3.948770e-01
      endloop
   endfacet
   facet normal 1.000000e+00 0.000000e+00 0.000000e+00
      outer loop
         vertex 9.634867e-02 3.846548e-01 2.605267e-01
         vertex 9.634867e-02 3.656737e-01 3.063511e-01
         vertex 9.634867e-02 2.011289e-01 2.113511e-01
      endloop
   endfacet
   facet normal 1.000000e+00 0.000000e+00 0.000000e+00
      outer loop
         vertex 9.634867e-02 2.011289e-01 2.113511e-01
         vertex 9.634867e-02 3.656737e-01 3.063511e-01
         vertex 9.634867e-02 3.354792e-01 3.457014e-01
      endloop
   endfacet
   facet normal 1.000000e+00 0.000000e+00 0.000000e+00
      outer loop
         vertex 9.634867e-02 2.011289e-01 2.113511e-01
         vertex 9.634867e-02 3.354792e-01 3.457014e-01
         vertex 9.634867e-02 2.961289e-01 3.758959e-01
      endloop
   endfacet
   facet normal 1.000000e+00 0.000000e+00 -0.000000e+00
      outer loop
         vertex 9.634867e-02 3.656737e-01 1.163511e-01
         vertex 9.634867e-02 3.846548e-01 1.621755e-01
         vertex 9.634867e-02 2.011289e-01 2.113511e-01
      endloop
   endfacet
   facet normal 1.000000e+00 -0.000000e+00 0.000000e+00
      outer loop
         vertex 9.634867e-02 2.011289e-01 2.113511e-01
         vertex 9.634867e-02 3.846548e-01 1.621755e-01
         vertex 9.634867e-02 3.911289e-01 2.113511e-01
      endloop
   endfacet
   facet normal 1.000000e+00 0.000000e+00 0.000000e+00
      outer loop
         vertex 9.634867e-02 2.011289e-01 2.113511e-01
         vertex 9.634867e-02 3.911289e-01 2.113511e-01
         vertex 9.634867e-02 3.846548e-01 2.605267e-01
      endloop
   endfacet
   facet normal 1.000000e+00 0.000000e+00 -0.000000e+00
      outer loop
         vertex 9.634867e-02 2.503045e-01 2.782518e-02
         vertex 9.634867e-02 2.961289e-01 4.680627e-02
         vertex 9.634867e-02 2.011289e-01 2.113511e-01
      endloop
   endfacet
   facet normal 1.000000e+00 0.000000e+00 0.000000e+00
      outer loop
         vertex 9.634867e-02 2.011289e-01 2.113511e-01
         vertex 9.634867e-02 2.961289e-01 4.680627e-02
         vertex 9.634867e-02 3.354792e-01 7.700080e-02
      endloop
   endfacet
   facet normal 1.000000e+00 0.000000e+00 0.000000e+00
      outer loop
         vertex 9.634867e-02 2.011289e-01 2.113511e-01
         vertex 9.634867e-02 3.354792e-01 7.700080e-02
         vertex 9.634867e-02 3.656737e-01 1.163511e-01
      endloop
   endfacet
   facet normal 1.000000e+00 -0.000000e+00 0.000000e+00
      outer loop
         vertex 9.634867e-02 1.061289e-01 4.680627e-02
         vertex 9.634867e-02 1.519533e-01 2.782518e-02
         vertex 9.634867e-02 2.011289e-01 2.113511e-01
      endloop
   endfacet
   facet normal 1.000000e+00 0.000000e+00 0.000000e+00
      outer loop
         vertex 9.634867e-02 2.011289e-01 2.113511e-01
         vertex 9.634867e-02 1.519533e-01 2.782518e-02
         vertex 9.634867e-02 2.011289e-01 2.135109e-02
      endloop
   endfacet
   facet normal 1.000000e+00 0.000000e+00 0.000000e+00
      outer loop
         vertex 9.634867e-02 2.011289e-01 2.113511e-01
         vertex 9.634867e-02 2.011289e-01 2.135109e-02
         vertex 9.634867e-02 2.503045e-01 2.782518e-02
      endloop
   endfacet
   facet normal 1.000000e+00 -0.000000e+00 0.000000e+00
      outer loop
         vertex 9.634867e-02 1.760298e-02 1.621755e-01
         vertex 9.634867e-02 3.658407e-02 1.163511e-01
         vertex 9.634867e-02 2.011289e-01 2.113511e-01
      endloop
   endfacet
   facet normal 1.000000e+00 0.000000e+00 0.000000e+00
      outer loop
         vertex 9.634867e-02 2.011289e-01 2.113511e-01
         vertex 9.634867e-02 3.658407e-02 1.163511e-01
         vertex 9.634867e-02 6.677860e-02 7.700080e-02
      endloop
   endfacet
   facet normal 1.000000e+00 0.000000e+00 0.000000e+00
      outer loop
         vertex 9.634867e-02 2.011289e-01 2.113511e-01
         vertex 9.634867e-02 6.677860e-02 7.700080e-02
         vertex 9.634867e-02 1.061289e-01 4.680627e-02
      endloop
   endfacet
   facet normal 1.000000e+00 0.000000e+00 0.000000e+00
      outer loop
         vertex 9.634867e-02 3.658407e-02 3.063511e-01
         vertex 9.634867e-02 1.760298e-02 2.605267e-01
         vertex 9.634867e-02 2.011289e-01 2.113511e-01
      endloop
   endfacet
   facet normal 1.000000e+00 0.000000e+00 0.000000e+00
      outer loop
         vertex 9.634867e-02 2.011289e-01 2.113511e-01
         vertex 9.634867e-02 1.760298e-02 2.605267e-01
         vertex 9.634867e-02 1.112889e-02 2.113511e-01
      endloop
   endfacet
   facet normal 1.000000e+00 0.000000e+00 0.000000e+00
      outer loop
         vertex 9.634867e-02 2.011289e-01 2.113511e-01
         vertex 9.634867e-02 1.112889e-02 2.113511e-01
         vertex 9.634867e-02 1.760298e-02 1.621755e-01
      endloop
   endfacet
   facet normal 1.000000e+00 0.000000e+00 0.000000e+00
      outer loop
         vertex 9.634867e-02 1.519533e-01 3.948770e-01
         vertex 9.634867e-02 1.061289e-01 3.758959e-01
         vertex 9.634867e-02 2.011289e-01 2.113511e-01
      endloop
   endfacet
   facet normal 1.000000e+00 0.000000e+00 0.000000e+00
      outer loop
         vertex 9.634867e-02 2.011289e-01 2.113511e-01
         vertex 9.634867e-02 1.061289e-01 3.758959e-01
         vertex 9.634867e-02 6.677860e-02 3.457014e-01
      endloop
   endfacet
   facet normal 1.000000e+00 0.000000e+00 0.000000e+00
      outer loop
         vertex 9.634867e-02 2.011289e-01 2.113511e-01
         vertex 9.634867e-02 6.677860e-02 3.457014e-01
         vertex 9.634867e-02 3.658407e-02 3.063511e-01
      endloop
   endfacet
   facet normal -1.000000e+00 0.000000e+00 0.000000e+00
      outer loop
         vertex 8.634868e-02 2.011289e-01 4.113511e-01
         vertex 8.634868e-02 2.508669e-01 4.050677e-01
         vertex 8.634868e-02 2.011289e-01 2.113511e-01
      endloop
   endfacet
   facet normal -1.000000e+00 0.000000e+00 0.000000e+00
      outer loop
         vertex 8.634868e-02 6.421946e-02 3.571448e-01
         vertex 8.634868e-02 1.047782e-01 3.866124e-01
         vertex 8.634868e-02 2.011289e-01 2.113511e-01
      endloop
   endfacet
   facet normal -1.000000e+00 0.000000e+00 0.000000e+00
      outer loop
         vertex 8.634868e-02 2.011289e-01 2.113511e-01
         vertex 8.634868e-02 1.047782e-01 3.866124e-01
         vertex 8.634868e-02 1.513909e-01 4.050677e-01
      endloop
   endfacet
   facet normal -1.000000e+00 0.000000e+00 0.000000e+00
      outer loop
         vertex 8.634868e-02 2.011289e-01 2.113511e-01
         vertex 8.634868e-02 1.513909e-01 4.050677e-01
         vertex 8.634868e-02 2.011289e-01 4.113511e-01
      endloop
   endfacet
   facet normal -1.000000e+00 0.000000e+00 0.000000e+00
      outer loop
         vertex 8.634868e-02 1.523544e-03 2.239092e-01
         vertex 8.634868e-02 1.091759e-02 2.731545e-01
         vertex 8.634868e-02 2.011289e-01 2.113511e-01
      endloop
   endfacet
   facet normal -1.000000e+00 0.000000e+00 0.000000e+00
      outer loop
         vertex 8.634868e-02 2.011289e-01 2.113511e-01
         vertex 8.634868e-02 1.091759e-02 2.731545e-01
         vertex 8.634868e-02 3.226330e-02 3.185164e-01
      endloop
   endfacet
   facet normal -1.000000e+00 0.000000e+00 0.000000e+00
      outer loop
         vertex 8.634868e-02 2.011289e-01 2.113511e-01
         vertex 8.634868e-02 3.226330e-02 3.185164e-01
         vertex 8.634868e-02 6.421946e-02 3.571448e-01
      endloop
   endfacet
   facet normal -1.000000e+00 0.000000e+00 0.000000e+00
      outer loop
         vertex 8.634868e-02 4.702624e-02 8.386629e-02
         vertex 8.634868e-02 2.016348e-02 1.261952e-01
         vertex 8.634868e-02 2.011289e-01 2.113511e-01
      endloop
   endfacet
   facet normal -1.000000e+00 0.000000e+00 0.000000e+00
      outer loop
         vertex 8.634868e-02 2.011289e-01 2.113511e-01
         vertex 8.634868e-02 2.016348e-02 1.261952e-01
         vertex 8.634868e-02 4.671444e-03 1.738748e-01
      endloop
   endfacet
   facet normal -1.000000e+00 -0.000000e+00 0.000000e+00
      outer loop
         vertex 8.634868e-02 2.011289e-01 2.113511e-01
         vertex 8.634868e-02 4.671444e-03 1.738748e-01
         vertex 8.634868e-02 1.523544e-03 2.239092e-01
      endloop
   endfacet
   facet normal -1.000000e+00 0.000000e+00 0.000000e+00
      outer loop
         vertex 8.634868e-02 1.760622e-01 1.292815e-02
         vertex 8.634868e-02 1.275040e-01 2.539579e-02
         vertex 8.634868e-02 2.011289e-01 2.113511e-01
      endloop
   endfacet
   facet normal -1.000000e+00 0.000000e+00 0.000000e+00
      outer loop
         vertex 8.634868e-02 2.011289e-01 2.113511e-01
         vertex 8.634868e-02 1.275040e-01 2.539579e-02
         vertex 8.634868e-02 8.357184e-02 4.954769e-02
      endloop
   endfacet
   facet normal -1.000000e+00 0.000000e+00 0.000000e+00
      outer loop
         vertex 8.634868e-02 2.011289e-01 2.113511e-01
         vertex 8.634868e-02 8.357184e-02 4.954769e-02
         vertex 8.634868e-02 4.702624e-02 8.386629e-02
      endloop
   endfacet
   facet normal -1.000000e+00 -0.000000e+00 0.000000e+00
      outer loop
         vertex 8.634868e-02 3.186859e-01 4.954769e-02
         vertex 8.634868e-02 2.747538e-01 2.539579e-02
         vertex 8.634868e-02 2.011289e-01 2.113511e-01
      endloop
   endfacet
   facet normal -1.000000e+00 0.000000e+00 0.000000e+00
      outer loop
         vertex 8.634868e-02 2.011289e-01 2.113511e-01
         vertex 8.634868e-02 2.747538e-01 2.539579e-02
         vertex 8.634868e-02 2.261955e-01 1.292815e-02
      endloop
   endfacet
   facet normal -1.000000e+00 0.000000e+00 -0.000000e+00
      outer loop
         vertex 8.634868e-02 2.011289e-01 2.113511e-01
         vertex 8.634868e-02 2.261955e-01 1.292815e-02
         vertex 8.634868e-02 1.760622e-01 1.292815e-02
      endloop
   endfacet
   facet normal -1.000000e+00 -0.000000e+00 0.000000e+00
      outer loop
         vertex 8.634868e-02 3.975863e-01 1.738748e-01
         vertex 8.634868e-02 3.820943e-01 1.261952e-01
         vertex 8.634868e-02 2.011289e-01 2.113511e-01
      endloop
   endfacet
   facet normal -1.000000e+00 0.000000e+00 0.000000e+00
      outer loop
         vertex 8.634868e-02 2.011289e-01 2.113511e-01
         vertex 8.634868e-02 3.820943e-01 1.261952e-01
         vertex 8.634868e-02 3.552315e-01 8.386629e-02
      endloop
   endfacet
   facet normal -1.000000e+00 0.000000e+00 0.000000e+00
      outer loop
         vertex 8.634868e-02 2.011289e-01 2.113511e-01
         vertex 8.634868e-02 3.552315e-01 8.386629e-02
         vertex 8.634868e-02 3.186859e-01 4.954769e-02
      endloop
   endfacet
   facet normal -1.000000e+00 0.000000e+00 -0.000000e+00
      outer loop
         vertex 8.634868e-02 3.699945e-01 3.185164e-01
         vertex 8.634868e-02 3.913402e-01 2.731545e-01
         vertex 8.634868e-02 2.011289e-01 2.113511e-01
      endloop
   endfacet
   facet normal -1.000000e+00 0.000000e+00 0.000000e+00
      outer loop
         vertex 8.634868e-02 2.011289e-01 2.113511e-01
         vertex 8.634868e-02 3.913402e-01 2.731545e-01
         vertex 8.634868e-02 4.007342e-01 2.239092e-01
      endloop
   endfacet
   facet normal -1.000000e+00 0.000000e+00 0.000000e+00
      outer loop
         vertex 8.634868e-02 2.011289e-01 2.113511e-01
         vertex 8.634868e-02 4.007342e-01 2.239092e-01
         vertex 8.634868e-02 3.975863e-01 1.738748e-01
      endloop
   endfacet
   facet normal -1.000000e+00 0.000000e+00 -0.000000e+00
      outer loop
         vertex 8.634868e-02 2.508669e-01 4.050677e-01
         vertex 8.634868e-02 2.974796e-01 3.866124e-01
         vertex 8.634868e-02 2.011289e-01 2.113511e-01
      endloop
   endfacet
   facet normal -1.000000e+00 0.000000e+00 0.000000e+00
      outer loop
         vertex 8.634868e-02 2.011289e-01 2.113511e-01
         vertex 8.634868e-02 2.974796e-01 3.866124e-01
         vertex 8.634868e-02 3.380383e-01 3.571448e-01
      endloop
   endfacet
   facet normal -1.000000e+00 0.000000e+00 0.000000e+00
      outer loop
         vertex 8.634868e-02 2.011289e-01 2.113511e-01
         vertex 8.634868e-02 3.380383e-01 3.571448e-01
         vertex 8.634868e-02 3.699945e-01 3.185164e-01
      endloop
   endfacet
   facet normal -1.000000e+00 0.000000e+00 0.000000e+00
      outer loop
         vertex 1.096349e+00 1.061289e-01 3.758959e-01
         vertex 1.096349e+00 1.519533e-01 3.948770e-01
         vertex 1.096349e+00 2.011289e-01 2.113511e-01
      endloop
   endfacet
   facet normal -1.000000e+00 0.000000e+00 0.000000e+00
      outer loop
         vertex 1.096349e+00 2.011289e-01 2.113511e-01
         vertex 1.096349e+00 1.519533e-01 3.948770e-01
         vertex 1.096349e+00 2.011289e-01 4.013511e-01
      endloop
   endfacet
   facet normal -1.000000e+00 0.000000e+00 0.000000e+00
      outer loop
         vertex 1.096349e+00 2.011289e-01 2.113511e-01
         vertex 1.096349e+00 2.011289e-01 4.013511e-01
         vertex 1.096349e+00 2.503045e-01 3.948770e-01
      endloop
   endfacet
   facet normal -1.000000e+00 0.000000e+00 0.000000e+00
      outer loop
         vertex 1.096349e+00 1.760298e-02 2.605267e-01
         vertex 1.096349e+00 3.658407e-02 3.063511e-01
         vertex 1.096349e+00 2.011289e-01 2.113511e-01
      endloop
   endfacet
   facet normal -1.000000e+00 0.000000e+00 0.000000e+00
      outer loop
         vertex 1.096349e+00 2.011289e-01 2.113511e-01
         vertex 1.096349e+00 3.658407e-02 3.063511e-01
         vertex 1.096349e+00 6.677860e-02 3.457014e-01
      endloop
   endfacet
   facet normal -1.000000e+00 0.000000e+00 0.000000e+00
      outer loop
         vertex 1.096349e+00 2.011289e-01 2.113511e-01
         vertex 1.096349e+00 6.677860e-02 3.457014e-01
         vertex 1.096349e+00 1.061289e-01 3.758959e-01
      endloop
   endfacet
   facet normal -1.000000e+00 0.000000e+00 0.000000e+00
      outer loop
         vertex 1.096349e+00 3.658407e-02 1.163511e-01
         vertex 1.096349e+00 1.760298e-02 1.621755e-01
         vertex 1.096349e+00 2.011289e-01 2.113511e-01
      endloop
   endfacet
   facet normal -1.000000e+00 0.000000e+00 0.000000e+00
      outer loop
         vertex 1.096349e+00 2.011289e-01 2.113511e-01
         vertex 1.096349e+00 1.760298e-02 1.621755e-01
         vertex 1.096349e+00 1.112889e-02 2.113511e-01
      endloop
   endfacet
   facet normal -1.000000e+00 -0.000000e+00 0.000000e+00
      outer loop
         vertex 1.096349e+00 2.011289e-01 2.113511e-01
         vertex 1.096349e+00 1.112889e-02 2.113511e-01
         vertex 1.096349e+00 1.760298e-02 2.605267e-01
      endloop
   endfacet
   facet normal -1.000000e+00 0.000000e+00 0.000000e+00
      outer loop
         vertex 1.096349e+00 1.519533e-01 2.782518e-02
         vertex 1.096349e+00 1.061289e-01 4.680627e-02
         vertex 1.096349e+00 2.011289e-01 2.113511e-01
      endloop
   endfacet
   facet normal -1.000000e+00 0.000000e+00 0.000000e+00
      outer loop
         vertex 1.096349e+00 2.011289e-01 2.113511e-01
         vertex 1.096349e+00 1.061289e-01 4.680627e-02
         vertex 1.096349e+00 6.677860e-02 7.700080e-02
      endloop
   endfacet
   facet normal -1.000000e+00 0.000000e+00 0.000000e+00
      outer loop
         vertex 1.096349e+00 2.011289e-01 2.113511e-01
         vertex 1.096349e+00 6.677860e-02 7.700080e-02
         vertex 1.096349e+00 3.658407e-02 1.163511e-01
      endloop
   endfacet
   facet normal -1.000000e+00 -0.000000e+00 0.000000e+00
      outer loop
         vertex 1.096349e+00 2.961289e-01 4.680627e-02
         vertex 1.096349e+00 2.503045e-01 2.782518e-02
         vertex 1.096349e+00 2.011289e-01 2.113511e-01
      endloop
   endfacet
   facet normal -1.000000e+00 0.000000e+00 0.000000e+00
      outer loop
         vertex 1.096349e+00 2.011289e-01 2.113511e-01
         vertex 1.096349e+00 2.503045e-01 2.782518e-02
         vertex 1.096349e+00 2.011289e-01 2.135109e-02
      endloop
   endfacet
   facet normal -1.000000e+00 0.000000e+00 -0.000000e+00
      outer loop
         vertex 1.096349e+00 2.011289e-01 2.113511e-01
         vertex 1.096349e+00 2.011289e-01 2.135109e-02
         vertex 1.096349e+00 1.519533e-01 2.782518e-02
      endloop
   endfacet
   facet normal -1.000000e+00 -0.000000e+00 0.000000e+00
      outer loop
         vertex 1.096349e+00 3.846548e-01 1.621755e-01
         vertex 1.096349e+00 3.656737e-01 1.163511e-01
         vertex 1.096349e+00 2.011289e-01 2.113511e-01
      endloop
   endfacet
   facet normal -1.000000e+00 0.000000e+00 0.000000e+00
      outer loop
         vertex 1.096349e+00 2.011289e-01 2.113511e-01
         vertex 1.096349e+00 3.656737e-01 1.163511e-01
         vertex 1.096349e+00 3.354792e-01 7.700080e-02
      endloop
   endfacet
   facet normal -1.000000e+00 0.000000e+00 0.000000e+00
      outer loop
         vertex 1.096349e+00 2.011289e-01 2.113511e-01
         vertex 1.096349e+00 3.354792e-01 7.700080e-02
         vertex 1.096349e+00 2.961289e-01 4.680627e-02
      endloop
   endfacet
   facet normal -1.000000e+00 0.000000e+00 -0.000000e+00
      outer loop
         vertex 1.096349e+00 3.656737e-01 3.063511e-01
         vertex 1.096349e+00 3.846548e-01 2.605267e-01
         vertex 1.096349e+00 2.011289e-01 2.113511e-01
      endloop
   endfacet
   facet normal -1.000000e+00 0.000000e+00 0.000000e+00
      outer loop
         vertex 1.096349e+00 2.011289e-01 2.113511e-01
         vertex 1.096349e+00 3.846548e-01 2.605267e-01
         vertex 1.096349e+00 3.911289e-01 2.113511e-01
      endloop
   endfacet
   facet normal -1.000000e+00 0.000000e+00 0.000000e+00
      outer loop
         vertex 1.096349e+00 2.011289e-01 2.113511e-01
         vertex 1.096349e+00 3.911289e-01 2.113511e-01
         vertex 1.096349e+00 3.846548e-01 1.621755e-01
      endloop
   endfacet
   facet normal -1.000000e+00 0.000000e+00 -0.000000e+00
      outer loop
         vertex 1.096349e+00 2.503045e-01 3.948770e-01
         vertex 1.096349e+00 2.961289e-01 3.758959e-01
         vertex 1.096349e+00 2.011289e-01 2.113511e-01
      endloop
   endfacet
   facet normal -1.000000e+00 0.000000e+00 0.000000e+00
      outer loop
         vertex 1.096349e+00 2.011289e-01 2.113511e-01
         vertex 1.096349e+00 2.961289e-01 3.758959e-01
         vertex 1.096349e+00 3.354792e-01 3.457014e-01
      endloop
   endfacet
   facet normal -1.000000e+00 0.000000e+00 0.000000e+00
      outer loop
         vertex 1.096349e+00 2.011289e-01 2.113511e-01
         vertex 1.096349e+00 3.354792e-01 3.457014e-01
         vertex 1.096349e+00 3.656737e-01 3.063511e-01
      endloop
   endfacet
   facet normal 1.000000e+00 0.000000e+00 -0.000000e+00
      outer loop
         vertex 1.106349e+00 2.011289e-01 1.135109e-02
         vertex 1.106349e+00 2.261955e-01 1.292815e-02
         vertex 1.106349e+00 2.011289e-01 2.113511e-01
      endloop
   endfacet
   facet normal 1.000000e+00 0.000000e+00 0.000000e+00
      outer loop
         vertex 1.106349e+00 2.011289e-01 1.135109e-02
         vertex 1.106349e+00 2.011289e-01 2.113511e-01
         vertex 1.106349e+00 1.760622e-01 1.292815e-02
      endloop
   endfacet
   facet normal 1.000000e+00 -0.000000e+00 0.000000e+00
      outer loop
         vertex 1.106349e+00 4.702624e-02 8.386629e-02
         vertex 1.106349e+00 8.357184e-02 4.954769e-02
         vertex 1.106349e+00 2.011289e-01 2.113511e-01
      endloop
   endfacet
   facet normal 1.000000e+00 0.000000e+00 0.000000e+00
      outer loop
         vertex 1.106349e+00 2.011289e-01 2.113511e-01
         vertex 1.106349e+00 8.357184e-02 4.954769e-02
         vertex 1.106349e+00 1.275040e-01 2.539579e-02
      endloop
   endfacet
   facet normal 1.000000e+00 0.000000e+00 0.000000e+00
      outer loop
         vertex 1.106349e+00 2.011289e-01 2.113511e-01
         vertex 1.106349e+00 1.275040e-01 2.539579e-02
         vertex 1.106349e+00 1.760622e-01 1.292815e-02
      endloop
   endfacet
   facet normal 1.000000e+00 0.000000e+00 0.000000e+00
      outer loop
         vertex 1.106349e+00 1.523544e-03 2.239092e-01
         vertex 1.106349e+00 4.671444e-03 1.738748e-01
         vertex 1.106349e+00 2.011289e-01 2.113511e-01
      endloop
   endfacet
   facet normal 1.000000e+00 0.000000e+00 0.000000e+00
      outer loop
         vertex 1.106349e+00 2.011289e-01 2.113511e-01
         vertex 1.106349e+00 4.671444e-03 1.738748e-01
         vertex 1.106349e+00 2.016348e-02 1.261952e-01
      endloop
   endfacet
   facet normal 1.000000e+00 0.000000e+00 0.000000e+00
      outer loop
         vertex 1.106349e+00 2.011289e-01 2.113511e-01
         vertex 1.106349e+00 2.016348e-02 1.261952e-01
         vertex 1.106349e+00 4.702624e-02 8.386629e-02
      endloop
   endfacet
   facet normal 1.000000e+00 0.000000e+00 0.000000e+00
      outer loop
         vertex 1.106349e+00 6.421946e-02 3.571448e-01
         vertex 1.106349e+00 3.226330e-02 3.185164e-01
         vertex 1.106349e+00 2.011289e-01 2.113511e-01
      endloop
   endfacet
   facet normal 1.000000e+00 0.000000e+00 0.000000e+00
      outer loop
         vertex 1.106349e+00 2.011289e-01 2.113511e-01
         vertex 1.106349e+00 3.226330e-02 3.185164e-01
         vertex 1.106349e+00 1.091759e-02 2.731545e-01
      endloop
   endfacet
   facet normal 1.000000e+00 0.000000e+00 0.000000e+00
      outer loop
         vertex 1.106349e+00 2.011289e-01 2.113511e-01
         vertex 1.106349e+00 1.091759e-02 2.731545e-01
         vertex 1.106349e+00 1.523544e-03 2.239092e-01
      endloop
   endfacet
   facet normal 1.000000e+00 0.000000e+00 0.000000e+00
      outer loop
         vertex 1.106349e+00 2.011289e-01 4.113511e-01
         vertex 1.106349e+00 1.513909e-01 4.050677e-01
         vertex 1.106349e+00 2.011289e-01 2.113511e-01
      endloop
   endfacet
   facet normal 1.000000e+00 0.000000e+00 0.000000e+00
      outer loop
         vertex 1.106349e+00 2.011289e-01 2.113511e-01
         vertex 1.106349e+00 1.513909e-01 4.050677e-01
         vertex 1.106349e+00 1.047782e-01 3.866124e-01
      endloop
   endfacet
   facet normal 1.000000e+00 0.000000e+00 0.000000e+00
      outer loop
         vertex 1.106349e+00 2.011289e-01 2.113511e-01
         vertex 1.106349e+00 1.047782e-01 3.866124e-01
         vertex 1.106349e+00 6.421946e-02 3.571448e-01
      endloop
   endfacet
   facet normal 1.000000e+00 0.000000e+00 0.000000e+00
      outer loop
         vertex 1.106349e+00 3.380383e-01 3.571448e-01
         vertex 1.106349e+00 2.974796e-01 3.866124e-01
         vertex 1.106349e+00 2.011289e-01 2.113511e-01
      endloop
   endfacet
   facet normal 1.000000e+00 0.000000e+00 0.000000e+00
      outer loop
         vertex 1.106349e+00 2.011289e-01 2.113511e-01
         vertex 1.106349e+00 2.974796e-01 3.866124e-01
         vertex 1.106349e+00 2.508669e-01 4.050677e-01
      endloop
   endfacet
   facet normal 1.000000e+00 0.000000e+00 0.000000e+00
      outer loop
         vertex 1.106349e+00 2.011289e-01 2.113511e-01
         vertex 1.106349e+00 2.508669e-01 4.050677e-01
         vertex 1.106349e+00 2.011289e-01 4.113511e-01
      endloop
   endfacet
   facet normal 1.000000e+00 0.000000e+00 0.000000e+00
      outer loop
         vertex 1.106349e+00 4.007342e-01 2.239092e-01
         vertex 1.106349e+00 3.913402e-01 2.731545e-01
         vertex 1.106349e+00 2.011289e-01 2.113511e-01
      endloop
   endfacet
   facet normal 1.000000e+00 0.000000e+00 0.000000e+00
      outer loop
         vertex 1.106349e+00 2.011289e-01 2.113511e-01
         vertex 1.106349e+00 3.913402e-01 2.731545e-01
         vertex 1.106349e+00 3.699945e-01 3.185164e-01
      endloop
   endfacet
   facet normal 1.000000e+00 0.000000e+00 0.000000e+00
      outer loop
         vertex 1.106349e+00 2.011289e-01 2.113511e-01
         vertex 1.106349e+00 3.699945e-01 3.185164e-01
         vertex 1.106349e+00 3.380383e-01 3.571448e-01
      endloop
   endfacet
   facet normal 1.000000e+00 0.000000e+00 -0.000000e+00
      outer loop
         vertex 1.106349e+00 3.552315e-01 8.386629e-02
         vertex 1.106349e+00 3.820943e-01 1.261952e-01
         vertex 1.106349e+00 2.011289e-01 2.113511e-01
      endloop
   endfacet
   facet normal 1.000000e+00 0.000000e+00 0.000000e+00
      outer loop
         vertex 1.106349e+00 2.011289e-01 2.113511e-01
         vertex 1.106349e+00 3.820943e-01 1.261952e-01
         vertex 1.106349e+00 3.975863e-01 1.738748e-01
      endloop
   endfacet
   facet normal 1.000000e+00 -0.000000e+00 0.000000e+00
      outer loop
         vertex 1.106349e+00 2.011289e-01 2.113511e-01
         vertex 1.106349e+00 3.975863e-01 1.738748e-01
         vertex 1.106349e+00 4.007342e-01 2.239092e-01
      endloop
   endfacet
   facet normal 1.000000e+00 0.000000e+00 -0.000000e+00
      outer loop
         vertex 1.106349e+00 2.261955e-01 1.292815e-02
         vertex 1.106349e+00 2.747538e-01 2.539579e-02
         vertex 1.106349e+00 2.011289e-01 2.113511e-01
      endloop
   endfacet
   facet normal 1.000000e+00 0.000000e+00 0.000000e+00
      outer loop
         vertex 1.106349e+00 2.011289e-01 2.113511e-01
         vertex 1.106349e+00 2.747538e-01 2.539579e-02
         vertex 1.106349e+00 3.186859e-01 4.954769e-02
      endloop
   endfacet
   facet normal 1.000000e+00 0.000000e+00 0.000000e+00
      outer loop
         vertex 1.106349e+00 2.011289e-01 2.113511e-01
         vertex 1.106349e+00 3.186859e-01 4.954769e-02
         vertex 1.106349e+00 3.552315e-01 8.386629e-02
      endloop
   endfacet
endsolid 
