solid
 facet normal 0 1 0
  outer loop
   vertex 0.54777246713638306 0.37521418929100037 9.9999999392252903e-09
   vertex 0.4768461287021637 0.37521418929100037 9.9999999392252903e-09
   vertex 0.54777246713638306 0.37521418929100037 0.060000009834766388
  endloop
 endfacet
 facet normal 0 1 0
  outer loop
   vertex 0.54777246713638306 0.37521418929100037 0.060000009834766388
   vertex 0.4768461287021637 0.37521418929100037 9.9999999392252903e-09
   vertex 0.4768461287021637 0.37521418929100037 0.060000009834766388
  endloop
 endfacet
 facet normal 0 -1 0
  outer loop
   vertex 0.54777246713638306 0.37021419405937195 0.060000009834766388
   vertex 0.4768461287021637 0.37021419405937195 0.060000009834766388
   vertex 0.54777246713638306 0.37021419405937195 9.9999999392252903e-09
  endloop
 endfacet
 facet normal 0 -1 0
  outer loop
   vertex 0.54777246713638306 0.37021419405937195 9.9999999392252903e-09
   vertex 0.4768461287021637 0.37021419405937195 0.060000009834766388
   vertex 0.4768461287021637 0.37021419405937195 9.9999999392252903e-09
  endloop
 endfacet
 facet normal -1 0 0
  outer loop
   vertex 0.4768461287021637 0.37521418929100037 9.9999999392252903e-09
   vertex 0.4768461287021637 0.37021419405937195 9.9999999392252903e-09
   vertex 0.4768461287021637 0.37521418929100037 0.060000009834766388
  endloop
 endfacet
 facet normal -1 0 0
  outer loop
   vertex 0.4768461287021637 0.37521418929100037 0.060000009834766388
   vertex 0.4768461287021637 0.37021419405937195 9.9999999392252903e-09
   vertex 0.4768461287021637 0.37021419405937195 0.060000009834766388
  endloop
 endfacet
 facet normal -0.96876736778648531 0.24797134332830587 0
  outer loop
   vertex 0.54777246713638306 0.37521418929100037 0.060000009834766388
   vertex 0.54826539754867554 0.37713995575904846 0.060000009834766388
   vertex 0.54777246713638306 0.37521418929100037 9.9999999392252903e-09
  endloop
 endfacet
 facet normal -0.96876736778648531 0.24797134332830587 0
  outer loop
   vertex 0.54777246713638306 0.37521418929100037 9.9999999392252903e-09
   vertex 0.54826539754867554 0.37713995575904846 0.060000009834766388
   vertex 0.54826539754867554 0.37713995575904846 9.9999999392252903e-09
  endloop
 endfacet
 facet normal -0.92387905961051919 0.38268457404654133 0
  outer loop
   vertex 0.54826539754867554 0.37713995575904846 9.9999999392252903e-09
   vertex 0.54826539754867554 0.37713995575904846 0.060000009834766388
   vertex 0.54902613162994385 0.37897652387619019 9.9999999392252903e-09
  endloop
 endfacet
 facet normal -0.92387905961051919 0.38268457404654133 0
  outer loop
   vertex 0.54902613162994385 0.37897652387619019 9.9999999392252903e-09
   vertex 0.54826539754867554 0.37713995575904846 0.060000009834766388
   vertex 0.54902613162994385 0.37897652387619019 0.060000009834766388
  endloop
 endfacet
 facet normal -0.86037773232758152 0.50965690195939506 0
  outer loop
   vertex 0.54902613162994385 0.37897652387619019 9.9999999392252903e-09
   vertex 0.54902613162994385 0.37897652387619019 0.060000009834766388
   vertex 0.55003923177719116 0.38068678975105286 0.060000009834766388
  endloop
 endfacet
 facet normal -0.86037773232758152 0.50965690195939506 0
  outer loop
   vertex 0.55003923177719116 0.38068678975105286 0.060000009834766388
   vertex 0.55003923177719116 0.38068678975105286 9.9999999392252903e-09
   vertex 0.54902613162994385 0.37897652387619019 9.9999999392252903e-09
  endloop
 endfacet
 facet normal -0.96876828963490935 -0.24796774184932296 0
  outer loop
   vertex 0.54777246713638306 0.37021419405937195 9.9999999392252903e-09
   vertex 0.54826539754867554 0.36828839778900146 9.9999999392252903e-09
   vertex 0.54777246713638306 0.37021419405937195 0.060000009834766388
  endloop
 endfacet
 facet normal -0.96876828963490935 -0.24796774184932296 0
  outer loop
   vertex 0.54777246713638306 0.37021419405937195 0.060000009834766388
   vertex 0.54826539754867554 0.36828839778900146 9.9999999392252903e-09
   vertex 0.54826539754867554 0.36828839778900146 0.060000009834766388
  endloop
 endfacet
 facet normal -0.92387905961051919 -0.38268457404654133 0
  outer loop
   vertex 0.54826539754867554 0.36828839778900146 0.060000009834766388
   vertex 0.54826539754867554 0.36828839778900146 9.9999999392252903e-09
   vertex 0.54902613162994385 0.36645182967185974 0.060000009834766388
  endloop
 endfacet
 facet normal -0.92387905961051919 -0.38268457404654133 0
  outer loop
   vertex 0.54902613162994385 0.36645182967185974 0.060000009834766388
   vertex 0.54826539754867554 0.36828839778900146 9.9999999392252903e-09
   vertex 0.54902613162994385 0.36645182967185974 9.9999999392252903e-09
  endloop
 endfacet
 facet normal -0.86036458384827652 -0.50967909792297927 0
  outer loop
   vertex 0.54902613162994385 0.36645182967185974 0.060000009834766388
   vertex 0.54902613162994385 0.36645182967185974 9.9999999392252903e-09
   vertex 0.55003929138183594 0.36474156379699707 9.9999999392252903e-09
  endloop
 endfacet
 facet normal -0.86036458384827652 -0.50967909792297927 -0
  outer loop
   vertex 0.55003929138183594 0.36474156379699707 9.9999999392252903e-09
   vertex 0.55003929138183594 0.36474156379699707 0.060000009834766388
   vertex 0.54902613162994385 0.36645182967185974 0.060000009834766388
  endloop
 endfacet
 facet normal 0 0 -1
  outer loop
   vertex 0.56830888986587524 0.37452590465545654 9.9999999392252903e-09
   vertex 0.57532238960266113 0.37521418929100037 9.9999999392252903e-09
   vertex 0.56854742765426636 0.37271419167518616 9.9999999392252903e-09
  endloop
 endfacet
 facet normal 0 -0 -1
  outer loop
   vertex 0.56854742765426636 0.37271419167518616 9.9999999392252903e-09
   vertex 0.57532238960266113 0.37521418929100037 9.9999999392252903e-09
   vertex 0.57532238960266113 0.37021419405937195 9.9999999392252903e-09
  endloop
 endfacet
 facet normal 0 0 -1
  outer loop
   vertex 0.56854742765426636 0.37271419167518616 9.9999999392252903e-09
   vertex 0.57532238960266113 0.37021419405937195 9.9999999392252903e-09
   vertex 0.56830888986587524 0.37090244889259338 9.9999999392252903e-09
  endloop
 endfacet
 facet normal -0 0 -1
  outer loop
   vertex 0.56830888986587524 0.37090244889259338 9.9999999392252903e-09
   vertex 0.57532238960266113 0.37021419405937195 9.9999999392252903e-09
   vertex 0.57482945919036865 0.36828839778900146 9.9999999392252903e-09
  endloop
 endfacet
 facet normal 0 0 -1
  outer loop
   vertex 0.56830888986587524 0.37090244889259338 9.9999999392252903e-09
   vertex 0.57482945919036865 0.36828839778900146 9.9999999392252903e-09
   vertex 0.56760960817337036 0.36921417713165283 9.9999999392252903e-09
  endloop
 endfacet
 facet normal -0 0 -1
  outer loop
   vertex 0.56760960817337036 0.36921417713165283 9.9999999392252903e-09
   vertex 0.57482945919036865 0.36828839778900146 9.9999999392252903e-09
   vertex 0.57406872510910034 0.36645179986953735 9.9999999392252903e-09
  endloop
 endfacet
 facet normal -0 0 -1
  outer loop
   vertex 0.56760960817337036 0.36921417713165283 9.9999999392252903e-09
   vertex 0.57406872510910034 0.36645179986953735 9.9999999392252903e-09
   vertex 0.57305550575256348 0.36474150419235229 9.9999999392252903e-09
  endloop
 endfacet
 facet normal 0 0 -1
  outer loop
   vertex 0.56760960817337036 0.37621417641639709 9.9999999392252903e-09
   vertex 0.57406872510910034 0.37897652387619019 9.9999999392252903e-09
   vertex 0.56830888986587524 0.37452590465545654 9.9999999392252903e-09
  endloop
 endfacet
 facet normal 0 -0 -1
  outer loop
   vertex 0.56830888986587524 0.37452590465545654 9.9999999392252903e-09
   vertex 0.57406872510910034 0.37897652387619019 9.9999999392252903e-09
   vertex 0.57482945919036865 0.37713995575904846 9.9999999392252903e-09
  endloop
 endfacet
 facet normal 0 -0 -1
  outer loop
   vertex 0.56830888986587524 0.37452590465545654 9.9999999392252903e-09
   vertex 0.57482945919036865 0.37713995575904846 9.9999999392252903e-09
   vertex 0.57532238960266113 0.37521418929100037 9.9999999392252903e-09
  endloop
 endfacet
 facet normal 0 0 -1
  outer loop
   vertex 0.57406872510910034 0.37897652387619019 9.9999999392252903e-09
   vertex 0.56760960817337036 0.37621417641639709 9.9999999392252903e-09
   vertex 0.57305556535720825 0.38068678975105286 9.9999999392252903e-09
  endloop
 endfacet
 facet normal 0 0 -1
  outer loop
   vertex 0.57305556535720825 0.38068678975105286 9.9999999392252903e-09
   vertex 0.56760960817337036 0.37621417641639709 9.9999999392252903e-09
   vertex 0.56649714708328247 0.37766391038894653 9.9999999392252903e-09
  endloop
 endfacet
 facet normal 0 0 -1
  outer loop
   vertex 0.57305556535720825 0.38068678975105286 9.9999999392252903e-09
   vertex 0.56649714708328247 0.37766391038894653 9.9999999392252903e-09
   vertex 0.56952005624771118 0.38422232866287231 9.9999999392252903e-09
  endloop
 endfacet
 facet normal 0 0 -1
  outer loop
   vertex 0.56952005624771118 0.38422232866287231 9.9999999392252903e-09
   vertex 0.56649714708328247 0.37766391038894653 9.9999999392252903e-09
   vertex 0.56504744291305542 0.37877637147903442 9.9999999392252903e-09
  endloop
 endfacet
 facet normal 0 0 -1
  outer loop
   vertex 0.56952005624771118 0.38422232866287231 9.9999999392252903e-09
   vertex 0.56504744291305542 0.37877637147903442 9.9999999392252903e-09
   vertex 0.56780976057052612 0.3852354884147644 9.9999999392252903e-09
  endloop
 endfacet
 facet normal 0 0 -1
  outer loop
   vertex 0.56780976057052612 0.3852354884147644 9.9999999392252903e-09
   vertex 0.56504744291305542 0.37877637147903442 9.9999999392252903e-09
   vertex 0.56597322225570679 0.38599622249603271 9.9999999392252903e-09
  endloop
 endfacet
 facet normal 0 0 -1
  outer loop
   vertex 0.56597322225570679 0.38599622249603271 9.9999999392252903e-09
   vertex 0.56504744291305542 0.37877637147903442 9.9999999392252903e-09
   vertex 0.56335914134979248 0.37947568297386169 9.9999999392252903e-09
  endloop
 endfacet
 facet normal 0 0 -1
  outer loop
   vertex 0.56597322225570679 0.38599622249603271 9.9999999392252903e-09
   vertex 0.56335914134979248 0.37947568297386169 9.9999999392252903e-09
   vertex 0.56404745578765869 0.3864891529083252 9.9999999392252903e-09
  endloop
 endfacet
 facet normal 0 0 -1
  outer loop
   vertex 0.56404745578765869 0.3864891529083252 9.9999999392252903e-09
   vertex 0.56335914134979248 0.37947568297386169 9.9999999392252903e-09
   vertex 0.56154745817184448 0.37971416115760803 9.9999999392252903e-09
  endloop
 endfacet
 facet normal 0 0 -1
  outer loop
   vertex 0.56404745578765869 0.3864891529083252 9.9999999392252903e-09
   vertex 0.56154745817184448 0.37971416115760803 9.9999999392252903e-09
   vertex 0.55904746055603027 0.3864891529083252 9.9999999392252903e-09
  endloop
 endfacet
 facet normal -0 0 -1
  outer loop
   vertex 0.55904746055603027 0.3864891529083252 9.9999999392252903e-09
   vertex 0.56154745817184448 0.37971416115760803 9.9999999392252903e-09
   vertex 0.55973565578460693 0.37947568297386169 9.9999999392252903e-09
  endloop
 endfacet
 facet normal 0 0 -1
  outer loop
   vertex 0.55904746055603027 0.3864891529083252 9.9999999392252903e-09
   vertex 0.55973565578460693 0.37947568297386169 9.9999999392252903e-09
   vertex 0.5571216344833374 0.38599622249603271 9.9999999392252903e-09
  endloop
 endfacet
 facet normal -0 0 -1
  outer loop
   vertex 0.5571216344833374 0.38599622249603271 9.9999999392252903e-09
   vertex 0.55973565578460693 0.37947568297386169 9.9999999392252903e-09
   vertex 0.55804741382598877 0.37877637147903442 9.9999999392252903e-09
  endloop
 endfacet
 facet normal 0 0 -1
  outer loop
   vertex 0.5571216344833374 0.38599622249603271 9.9999999392252903e-09
   vertex 0.55804741382598877 0.37877637147903442 9.9999999392252903e-09
   vertex 0.55528509616851807 0.3852354884147644 9.9999999392252903e-09
  endloop
 endfacet
 facet normal 0 0 -1
  outer loop
   vertex 0.55528509616851807 0.3852354884147644 9.9999999392252903e-09
   vertex 0.55804741382598877 0.37877637147903442 9.9999999392252903e-09
   vertex 0.55357480049133301 0.38422232866287231 9.9999999392252903e-09
  endloop
 endfacet
 facet normal -0 0 -1
  outer loop
   vertex 0.55357480049133301 0.38422232866287231 9.9999999392252903e-09
   vertex 0.55804741382598877 0.37877637147903442 9.9999999392252903e-09
   vertex 0.55659765005111694 0.37766391038894653 9.9999999392252903e-09
  endloop
 endfacet
 facet normal 0 0 -1
  outer loop
   vertex 0.55357480049133301 0.38422232866287231 9.9999999392252903e-09
   vertex 0.55659765005111694 0.37766391038894653 9.9999999392252903e-09
   vertex 0.55003923177719116 0.38068678975105286 9.9999999392252903e-09
  endloop
 endfacet
 facet normal -0 0 -1
  outer loop
   vertex 0.55003923177719116 0.38068678975105286 9.9999999392252903e-09
   vertex 0.55659765005111694 0.37766391038894653 9.9999999392252903e-09
   vertex 0.55548524856567383 0.37621417641639709 9.9999999392252903e-09
  endloop
 endfacet
 facet normal 0 0 -1
  outer loop
   vertex 0.55003923177719116 0.38068678975105286 9.9999999392252903e-09
   vertex 0.55548524856567383 0.37621417641639709 9.9999999392252903e-09
   vertex 0.54902613162994385 0.37897652387619019 9.9999999392252903e-09
  endloop
 endfacet
 facet normal -0 0 -1
  outer loop
   vertex 0.54902613162994385 0.37897652387619019 9.9999999392252903e-09
   vertex 0.55548524856567383 0.37621417641639709 9.9999999392252903e-09
   vertex 0.55478590726852417 0.37452590465545654 9.9999999392252903e-09
  endloop
 endfacet
 facet normal 0 0 -1
  outer loop
   vertex 0.54902613162994385 0.37897652387619019 9.9999999392252903e-09
   vertex 0.55478590726852417 0.37452590465545654 9.9999999392252903e-09
   vertex 0.54826539754867554 0.37713995575904846 9.9999999392252903e-09
  endloop
 endfacet
 facet normal 0 0 -1
  outer loop
   vertex 0.54826539754867554 0.37713995575904846 9.9999999392252903e-09
   vertex 0.55478590726852417 0.37452590465545654 9.9999999392252903e-09
   vertex 0.54777246713638306 0.37521418929100037 9.9999999392252903e-09
  endloop
 endfacet
 facet normal -0 0 -1
  outer loop
   vertex 0.54777246713638306 0.37521418929100037 9.9999999392252903e-09
   vertex 0.55478590726852417 0.37452590465545654 9.9999999392252903e-09
   vertex 0.55454742908477783 0.37271419167518616 9.9999999392252903e-09
  endloop
 endfacet
 facet normal -0 0 -1
  outer loop
   vertex 0.54777246713638306 0.37521418929100037 9.9999999392252903e-09
   vertex 0.55454742908477783 0.37271419167518616 9.9999999392252903e-09
   vertex 0.54777246713638306 0.37021419405937195 9.9999999392252903e-09
  endloop
 endfacet
 facet normal 0 -0 -1
  outer loop
   vertex 0.54777246713638306 0.37021419405937195 9.9999999392252903e-09
   vertex 0.55454742908477783 0.37271419167518616 9.9999999392252903e-09
   vertex 0.55478590726852417 0.37090244889259338 9.9999999392252903e-09
  endloop
 endfacet
 facet normal 0 0 -1
  outer loop
   vertex 0.54777246713638306 0.37021419405937195 9.9999999392252903e-09
   vertex 0.55478590726852417 0.37090244889259338 9.9999999392252903e-09
   vertex 0.54826539754867554 0.36828839778900146 9.9999999392252903e-09
  endloop
 endfacet
 facet normal 0 0 -1
  outer loop
   vertex 0.54826539754867554 0.36828839778900146 9.9999999392252903e-09
   vertex 0.55478590726852417 0.37090244889259338 9.9999999392252903e-09
   vertex 0.54902613162994385 0.36645182967185974 9.9999999392252903e-09
  endloop
 endfacet
 facet normal 0 -0 -1
  outer loop
   vertex 0.54902613162994385 0.36645182967185974 9.9999999392252903e-09
   vertex 0.55478590726852417 0.37090244889259338 9.9999999392252903e-09
   vertex 0.55548524856567383 0.36921417713165283 9.9999999392252903e-09
  endloop
 endfacet
 facet normal 0 0 -1
  outer loop
   vertex 0.54902613162994385 0.36645182967185974 9.9999999392252903e-09
   vertex 0.55548524856567383 0.36921417713165283 9.9999999392252903e-09
   vertex 0.55003929138183594 0.36474156379699707 9.9999999392252903e-09
  endloop
 endfacet
 facet normal 0 -0 -1
  outer loop
   vertex 0.55003929138183594 0.36474156379699707 9.9999999392252903e-09
   vertex 0.55548524856567383 0.36921417713165283 9.9999999392252903e-09
   vertex 0.55659765005111694 0.36776444315910339 9.9999999392252903e-09
  endloop
 endfacet
 facet normal 0 0 -1
  outer loop
   vertex 0.55003929138183594 0.36474156379699707 9.9999999392252903e-09
   vertex 0.55659765005111694 0.36776444315910339 9.9999999392252903e-09
   vertex 0.55357480049133301 0.36120602488517761 9.9999999392252903e-09
  endloop
 endfacet
 facet normal 0 -0 -1
  outer loop
   vertex 0.55357480049133301 0.36120602488517761 9.9999999392252903e-09
   vertex 0.55659765005111694 0.36776444315910339 9.9999999392252903e-09
   vertex 0.55804741382598877 0.3666519820690155 9.9999999392252903e-09
  endloop
 endfacet
 facet normal 0 0 -1
  outer loop
   vertex 0.55357480049133301 0.36120602488517761 9.9999999392252903e-09
   vertex 0.55804741382598877 0.3666519820690155 9.9999999392252903e-09
   vertex 0.55528509616851807 0.36019286513328552 9.9999999392252903e-09
  endloop
 endfacet
 facet normal 0 0 -1
  outer loop
   vertex 0.55528509616851807 0.36019286513328552 9.9999999392252903e-09
   vertex 0.55804741382598877 0.3666519820690155 9.9999999392252903e-09
   vertex 0.5571216344833374 0.35943213105201721 9.9999999392252903e-09
  endloop
 endfacet
 facet normal 0 -0 -1
  outer loop
   vertex 0.5571216344833374 0.35943213105201721 9.9999999392252903e-09
   vertex 0.55804741382598877 0.3666519820690155 9.9999999392252903e-09
   vertex 0.55973565578460693 0.36595273017883301 9.9999999392252903e-09
  endloop
 endfacet
 facet normal 0 0 -1
  outer loop
   vertex 0.5571216344833374 0.35943213105201721 9.9999999392252903e-09
   vertex 0.55973565578460693 0.36595273017883301 9.9999999392252903e-09
   vertex 0.55904734134674072 0.35893920063972473 9.9999999392252903e-09
  endloop
 endfacet
 facet normal 0 -0 -1
  outer loop
   vertex 0.55904734134674072 0.35893920063972473 9.9999999392252903e-09
   vertex 0.55973565578460693 0.36595273017883301 9.9999999392252903e-09
   vertex 0.56154745817184448 0.36571419239044189 9.9999999392252903e-09
  endloop
 endfacet
 facet normal 0 -0 -1
  outer loop
   vertex 0.55904734134674072 0.35893920063972473 9.9999999392252903e-09
   vertex 0.56154745817184448 0.36571419239044189 9.9999999392252903e-09
   vertex 0.56404733657836914 0.35893920063972473 9.9999999392252903e-09
  endloop
 endfacet
 facet normal 0 0 -1
  outer loop
   vertex 0.56404733657836914 0.35893920063972473 9.9999999392252903e-09
   vertex 0.56154745817184448 0.36571419239044189 9.9999999392252903e-09
   vertex 0.56335914134979248 0.36595273017883301 9.9999999392252903e-09
  endloop
 endfacet
 facet normal 0 0 -1
  outer loop
   vertex 0.56404733657836914 0.35893920063972473 9.9999999392252903e-09
   vertex 0.56335914134979248 0.36595273017883301 9.9999999392252903e-09
   vertex 0.56597310304641724 0.35943210124969482 9.9999999392252903e-09
  endloop
 endfacet
 facet normal 0 0 -1
  outer loop
   vertex 0.56597310304641724 0.35943210124969482 9.9999999392252903e-09
   vertex 0.56335914134979248 0.36595273017883301 9.9999999392252903e-09
   vertex 0.56780970096588135 0.36019283533096313 9.9999999392252903e-09
  endloop
 endfacet
 facet normal 0 0 -1
  outer loop
   vertex 0.56780970096588135 0.36019283533096313 9.9999999392252903e-09
   vertex 0.56335914134979248 0.36595273017883301 9.9999999392252903e-09
   vertex 0.56504744291305542 0.3666519820690155 9.9999999392252903e-09
  endloop
 endfacet
 facet normal 0 0 -1
  outer loop
   vertex 0.56780970096588135 0.36019283533096313 9.9999999392252903e-09
   vertex 0.56504744291305542 0.3666519820690155 9.9999999392252903e-09
   vertex 0.56951993703842163 0.36120596528053284 9.9999999392252903e-09
  endloop
 endfacet
 facet normal 0 0 -1
  outer loop
   vertex 0.56951993703842163 0.36120596528053284 9.9999999392252903e-09
   vertex 0.56504744291305542 0.3666519820690155 9.9999999392252903e-09
   vertex 0.56649714708328247 0.36776444315910339 9.9999999392252903e-09
  endloop
 endfacet
 facet normal 0 0 -1
  outer loop
   vertex 0.56951993703842163 0.36120596528053284 9.9999999392252903e-09
   vertex 0.56649714708328247 0.36776444315910339 9.9999999392252903e-09
   vertex 0.57305550575256348 0.36474150419235229 9.9999999392252903e-09
  endloop
 endfacet
 facet normal 0 0 -1
  outer loop
   vertex 0.57305550575256348 0.36474150419235229 9.9999999392252903e-09
   vertex 0.56649714708328247 0.36776444315910339 9.9999999392252903e-09
   vertex 0.56760960817337036 0.36921417713165283 9.9999999392252903e-09
  endloop
 endfacet
 facet normal 0 -0 -1
  outer loop
   vertex 0.49988678097724915 0.43083927035331726 9.9999999392252903e-09
   vertex 0.5034223198890686 0.43437480926513672 9.9999999392252903e-09
   vertex 0.55003923177719116 0.38068678975105286 9.9999999392252903e-09
  endloop
 endfacet
 facet normal 0 0 -1
  outer loop
   vertex 0.55003923177719116 0.38068678975105286 9.9999999392252903e-09
   vertex 0.5034223198890686 0.43437480926513672 9.9999999392252903e-09
   vertex 0.55357480049133301 0.38422232866287231 9.9999999392252903e-09
  endloop
 endfacet
 facet normal -0 0 -1
  outer loop
   vertex 0.55904746055603027 0.45741546154022217 9.9999999392252903e-09
   vertex 0.56404745578765869 0.45741546154022217 9.9999999392252903e-09
   vertex 0.55904746055603027 0.3864891529083252 9.9999999392252903e-09
  endloop
 endfacet
 facet normal 0 -0 -1
  outer loop
   vertex 0.55904746055603027 0.3864891529083252 9.9999999392252903e-09
   vertex 0.56404745578765869 0.45741546154022217 9.9999999392252903e-09
   vertex 0.56404745578765869 0.3864891529083252 9.9999999392252903e-09
  endloop
 endfacet
 facet normal 0 0 -1
  outer loop
   vertex 0.56952005624771118 0.38422232866287231 9.9999999392252903e-09
   vertex 0.61967253684997559 0.43437480926513672 9.9999999392252903e-09
   vertex 0.57305556535720825 0.38068678975105286 9.9999999392252903e-09
  endloop
 endfacet
 facet normal 0 -0 -1
  outer loop
   vertex 0.57305556535720825 0.38068678975105286 9.9999999392252903e-09
   vertex 0.61967253684997559 0.43437480926513672 9.9999999392252903e-09
   vertex 0.62320804595947266 0.43083927035331726 9.9999999392252903e-09
  endloop
 endfacet
 facet normal 0 0 -1
  outer loop
   vertex 0.64624869823455811 0.37521418929100037 9.9999999392252903e-09
   vertex 0.64624869823455811 0.37021419405937195 9.9999999392252903e-09
   vertex 0.57532238960266113 0.37521418929100037 9.9999999392252903e-09
  endloop
 endfacet
 facet normal 0 0 -1
  outer loop
   vertex 0.57532238960266113 0.37521418929100037 9.9999999392252903e-09
   vertex 0.64624869823455811 0.37021419405937195 9.9999999392252903e-09
   vertex 0.57532238960266113 0.37021419405937195 9.9999999392252903e-09
  endloop
 endfacet
 facet normal 0 0 -1
  outer loop
   vertex 0.62320786714553833 0.31458914279937744 9.9999999392252903e-09
   vertex 0.61967229843139648 0.31105363368988037 9.9999999392252903e-09
   vertex 0.57305550575256348 0.36474150419235229 9.9999999392252903e-09
  endloop
 endfacet
 facet normal 0 0 -1
  outer loop
   vertex 0.57305550575256348 0.36474150419235229 9.9999999392252903e-09
   vertex 0.61967229843139648 0.31105363368988037 9.9999999392252903e-09
   vertex 0.56951993703842163 0.36120596528053284 9.9999999392252903e-09
  endloop
 endfacet
 facet normal 0 0 -1
  outer loop
   vertex 0.56404733657836914 0.28801241517066956 9.9999999392252903e-09
   vertex 0.55904734134674072 0.28801241517066956 9.9999999392252903e-09
   vertex 0.56404733657836914 0.35893920063972473 9.9999999392252903e-09
  endloop
 endfacet
 facet normal 0 0 -1
  outer loop
   vertex 0.56404733657836914 0.35893920063972473 9.9999999392252903e-09
   vertex 0.55904734134674072 0.28801241517066956 9.9999999392252903e-09
   vertex 0.55904734134674072 0.35893920063972473 9.9999999392252903e-09
  endloop
 endfacet
 facet normal 0 0 -1
  outer loop
   vertex 0.55357480049133301 0.36120602488517761 9.9999999392252903e-09
   vertex 0.50342237949371338 0.31105354428291321 9.9999999392252903e-09
   vertex 0.55003929138183594 0.36474156379699707 9.9999999392252903e-09
  endloop
 endfacet
 facet normal 0 0 -1
  outer loop
   vertex 0.55003929138183594 0.36474156379699707 9.9999999392252903e-09
   vertex 0.50342237949371338 0.31105354428291321 9.9999999392252903e-09
   vertex 0.49988681077957153 0.31458908319473267 9.9999999392252903e-09
  endloop
 endfacet
 facet normal 0 0 -1
  outer loop
   vertex 0.54777246713638306 0.37021419405937195 9.9999999392252903e-09
   vertex 0.4768461287021637 0.37021419405937195 9.9999999392252903e-09
   vertex 0.54777246713638306 0.37521418929100037 9.9999999392252903e-09
  endloop
 endfacet
 facet normal 0 0 -1
  outer loop
   vertex 0.54777246713638306 0.37521418929100037 9.9999999392252903e-09
   vertex 0.4768461287021637 0.37021419405937195 9.9999999392252903e-09
   vertex 0.4768461287021637 0.37521418929100037 9.9999999392252903e-09
  endloop
 endfacet
 facet normal 0 1 0
  outer loop
   vertex 0.57532238960266113 0.37521418929100037 0.060000009834766388
   vertex 0.64624869823455811 0.37521418929100037 0.060000009834766388
   vertex 0.57532238960266113 0.37521418929100037 9.9999999392252903e-09
  endloop
 endfacet
 facet normal 0 1 0
  outer loop
   vertex 0.57532238960266113 0.37521418929100037 9.9999999392252903e-09
   vertex 0.64624869823455811 0.37521418929100037 0.060000009834766388
   vertex 0.64624869823455811 0.37521418929100037 9.9999999392252903e-09
  endloop
 endfacet
 facet normal 0 -1 0
  outer loop
   vertex 0.57532238960266113 0.37021419405937195 9.9999999392252903e-09
   vertex 0.64624869823455811 0.37021419405937195 9.9999999392252903e-09
   vertex 0.57532238960266113 0.37021419405937195 0.060000009834766388
  endloop
 endfacet
 facet normal 0 -1 0
  outer loop
   vertex 0.57532238960266113 0.37021419405937195 0.060000009834766388
   vertex 0.64624869823455811 0.37021419405937195 9.9999999392252903e-09
   vertex 0.64624869823455811 0.37021419405937195 0.060000009834766388
  endloop
 endfacet
 facet normal 1 0 0
  outer loop
   vertex 0.64624869823455811 0.37021419405937195 9.9999999392252903e-09
   vertex 0.64624869823455811 0.37521418929100037 9.9999999392252903e-09
   vertex 0.64624869823455811 0.37021419405937195 0.060000009834766388
  endloop
 endfacet
 facet normal 1 0 -0
  outer loop
   vertex 0.64624869823455811 0.37021419405937195 0.060000009834766388
   vertex 0.64624869823455811 0.37521418929100037 9.9999999392252903e-09
   vertex 0.64624869823455811 0.37521418929100037 0.060000009834766388
  endloop
 endfacet
 facet normal 0.96876828963490935 -0.24796774184932296 0
  outer loop
   vertex 0.57532238960266113 0.37021419405937195 0.060000009834766388
   vertex 0.57482945919036865 0.36828839778900146 0.060000009834766388
   vertex 0.57532238960266113 0.37021419405937195 9.9999999392252903e-09
  endloop
 endfacet
 facet normal 0.96876828963490935 -0.24796774184932296 0
  outer loop
   vertex 0.57532238960266113 0.37021419405937195 9.9999999392252903e-09
   vertex 0.57482945919036865 0.36828839778900146 0.060000009834766388
   vertex 0.57482945919036865 0.36828839778900146 9.9999999392252903e-09
  endloop
 endfacet
 facet normal 0.92388125509858599 -0.38267927364499565 0
  outer loop
   vertex 0.57482945919036865 0.36828839778900146 9.9999999392252903e-09
   vertex 0.57482945919036865 0.36828839778900146 0.060000009834766388
   vertex 0.57406872510910034 0.36645179986953735 9.9999999392252903e-09
  endloop
 endfacet
 facet normal 0.92388125509858599 -0.38267927364499565 0
  outer loop
   vertex 0.57406872510910034 0.36645179986953735 9.9999999392252903e-09
   vertex 0.57482945919036865 0.36828839778900146 0.060000009834766388
   vertex 0.57406872510910034 0.36645179986953735 0.060000009834766388
  endloop
 endfacet
 facet normal 0.86035533000070685 -0.50969471857120008 0
  outer loop
   vertex 0.57406872510910034 0.36645179986953735 9.9999999392252903e-09
   vertex 0.57406872510910034 0.36645179986953735 0.060000009834766388
   vertex 0.57305550575256348 0.36474150419235229 0.060000009834766388
  endloop
 endfacet
 facet normal 0.86035533000070685 -0.50969471857120008 0
  outer loop
   vertex 0.57305550575256348 0.36474150419235229 0.060000009834766388
   vertex 0.57305550575256348 0.36474150419235229 9.9999999392252903e-09
   vertex 0.57406872510910034 0.36645179986953735 9.9999999392252903e-09
  endloop
 endfacet
 facet normal 0.96876736778648531 0.24797134332830587 0
  outer loop
   vertex 0.57532238960266113 0.37521418929100037 9.9999999392252903e-09
   vertex 0.57482945919036865 0.37713995575904846 9.9999999392252903e-09
   vertex 0.57532238960266113 0.37521418929100037 0.060000009834766388
  endloop
 endfacet
 facet normal 0.96876736778648531 0.24797134332830587 -0
  outer loop
   vertex 0.57532238960266113 0.37521418929100037 0.060000009834766388
   vertex 0.57482945919036865 0.37713995575904846 9.9999999392252903e-09
   vertex 0.57482945919036865 0.37713995575904846 0.060000009834766388
  endloop
 endfacet
 facet normal 0.92387905961051919 0.38268457404654133 -0
  outer loop
   vertex 0.57482945919036865 0.37713995575904846 0.060000009834766388
   vertex 0.57482945919036865 0.37713995575904846 9.9999999392252903e-09
   vertex 0.57406872510910034 0.37897652387619019 0.060000009834766388
  endloop
 endfacet
 facet normal 0.92387905961051919 0.38268457404654133 0
  outer loop
   vertex 0.57406872510910034 0.37897652387619019 0.060000009834766388
   vertex 0.57482945919036865 0.37713995575904846 9.9999999392252903e-09
   vertex 0.57406872510910034 0.37897652387619019 9.9999999392252903e-09
  endloop
 endfacet
 facet normal 0.86036458384827652 0.50967909792297927 -0
  outer loop
   vertex 0.57406872510910034 0.37897652387619019 0.060000009834766388
   vertex 0.57406872510910034 0.37897652387619019 9.9999999392252903e-09
   vertex 0.57305556535720825 0.38068678975105286 9.9999999392252903e-09
  endloop
 endfacet
 facet normal 0.86036458384827652 0.50967909792297927 0
  outer loop
   vertex 0.57305556535720825 0.38068678975105286 9.9999999392252903e-09
   vertex 0.57305556535720825 0.38068678975105286 0.060000009834766388
   vertex 0.57406872510910034 0.37897652387619019 0.060000009834766388
  endloop
 endfacet
 facet normal -0.24797854658984539 -0.9687655239691324 0
  outer loop
   vertex 0.55904734134674072 0.35893920063972473 0.060000009834766388
   vertex 0.5571216344833374 0.35943213105201721 0.060000009834766388
   vertex 0.55904734134674072 0.35893920063972473 9.9999999392252903e-09
  endloop
 endfacet
 facet normal -0.24797854658984539 -0.9687655239691324 -0
  outer loop
   vertex 0.55904734134674072 0.35893920063972473 9.9999999392252903e-09
   vertex 0.5571216344833374 0.35943213105201721 0.060000009834766388
   vertex 0.5571216344833374 0.35943213105201721 9.9999999392252903e-09
  endloop
 endfacet
 facet normal -0.38268987458232179 -0.92387686403122304 -0
  outer loop
   vertex 0.5571216344833374 0.35943213105201721 9.9999999392252903e-09
   vertex 0.5571216344833374 0.35943213105201721 0.060000009834766388
   vertex 0.55528509616851807 0.36019286513328552 9.9999999392252903e-09
  endloop
 endfacet
 facet normal -0.38268987458232179 -0.92387686403122304 0
  outer loop
   vertex 0.55528509616851807 0.36019286513328552 9.9999999392252903e-09
   vertex 0.5571216344833374 0.35943213105201721 0.060000009834766388
   vertex 0.55528509616851807 0.36019286513328552 0.060000009834766388
  endloop
 endfacet
 facet normal -0.50967252371056582 -0.86036847837104224 -0
  outer loop
   vertex 0.55528509616851807 0.36019286513328552 9.9999999392252903e-09
   vertex 0.55528509616851807 0.36019286513328552 0.060000009834766388
   vertex 0.55357480049133301 0.36120602488517761 0.060000009834766388
  endloop
 endfacet
 facet normal -0.50967252371056582 -0.86036847837104224 0
  outer loop
   vertex 0.55357480049133301 0.36120602488517761 0.060000009834766388
   vertex 0.55357480049133301 0.36120602488517761 9.9999999392252903e-09
   vertex 0.55528509616851807 0.36019286513328552 9.9999999392252903e-09
  endloop
 endfacet
 facet normal 0.24797134332830587 0.96876736778648531 0
  outer loop
   vertex 0.56404745578765869 0.3864891529083252 0.060000009834766388
   vertex 0.56597322225570679 0.38599622249603271 0.060000009834766388
   vertex 0.56404745578765869 0.3864891529083252 9.9999999392252903e-09
  endloop
 endfacet
 facet normal 0.24797134332830587 0.96876736778648531 0
  outer loop
   vertex 0.56404745578765869 0.3864891529083252 9.9999999392252903e-09
   vertex 0.56597322225570679 0.38599622249603271 0.060000009834766388
   vertex 0.56597322225570679 0.38599622249603271 9.9999999392252903e-09
  endloop
 endfacet
 facet normal 0.38268987458232179 0.92387686403122304 0
  outer loop
   vertex 0.56597322225570679 0.38599622249603271 9.9999999392252903e-09
   vertex 0.56597322225570679 0.38599622249603271 0.060000009834766388
   vertex 0.56780976057052612 0.3852354884147644 9.9999999392252903e-09
  endloop
 endfacet
 facet normal 0.38268987458232179 0.92387686403122304 0
  outer loop
   vertex 0.56780976057052612 0.3852354884147644 9.9999999392252903e-09
   vertex 0.56597322225570679 0.38599622249603271 0.060000009834766388
   vertex 0.56780976057052612 0.3852354884147644 0.060000009834766388
  endloop
 endfacet
 facet normal 0.50967252371056582 0.86036847837104224 0
  outer loop
   vertex 0.56780976057052612 0.3852354884147644 9.9999999392252903e-09
   vertex 0.56780976057052612 0.3852354884147644 0.060000009834766388
   vertex 0.56952005624771118 0.38422232866287231 0.060000009834766388
  endloop
 endfacet
 facet normal 0.50967252371056582 0.86036847837104224 -0
  outer loop
   vertex 0.56952005624771118 0.38422232866287231 0.060000009834766388
   vertex 0.56952005624771118 0.38422232866287231 9.9999999392252903e-09
   vertex 0.56780976057052612 0.3852354884147644 9.9999999392252903e-09
  endloop
 endfacet
 facet normal -0.50967252371056582 0.86036847837104224 0
  outer loop
   vertex 0.55357480049133301 0.38422232866287231 0.060000009834766388
   vertex 0.55528509616851807 0.3852354884147644 0.060000009834766388
   vertex 0.55357480049133301 0.38422232866287231 9.9999999392252903e-09
  endloop
 endfacet
 facet normal -0.50967252371056582 0.86036847837104224 0
  outer loop
   vertex 0.55357480049133301 0.38422232866287231 9.9999999392252903e-09
   vertex 0.55528509616851807 0.3852354884147644 0.060000009834766388
   vertex 0.55528509616851807 0.3852354884147644 9.9999999392252903e-09
  endloop
 endfacet
 facet normal -0.38268987458232179 0.92387686403122304 0
  outer loop
   vertex 0.55528509616851807 0.3852354884147644 9.9999999392252903e-09
   vertex 0.55528509616851807 0.3852354884147644 0.060000009834766388
   vertex 0.5571216344833374 0.38599622249603271 9.9999999392252903e-09
  endloop
 endfacet
 facet normal -0.38268987458232179 0.92387686403122304 0
  outer loop
   vertex 0.5571216344833374 0.38599622249603271 9.9999999392252903e-09
   vertex 0.55528509616851807 0.3852354884147644 0.060000009834766388
   vertex 0.5571216344833374 0.38599622249603271 0.060000009834766388
  endloop
 endfacet
 facet normal -0.24796414047152582 0.96876921144316797 0
  outer loop
   vertex 0.5571216344833374 0.38599622249603271 9.9999999392252903e-09
   vertex 0.5571216344833374 0.38599622249603271 0.060000009834766388
   vertex 0.55904746055603027 0.3864891529083252 0.060000009834766388
  endloop
 endfacet
 facet normal -0.24796414047152582 0.96876921144316797 0
  outer loop
   vertex 0.55904746055603027 0.3864891529083252 0.060000009834766388
   vertex 0.55904746055603027 0.3864891529083252 9.9999999392252903e-09
   vertex 0.5571216344833374 0.38599622249603271 9.9999999392252903e-09
  endloop
 endfacet
 facet normal -0.9914433564480607 -0.13053762275682712 0
  outer loop
   vertex 0.56830888986587524 0.37452590465545654 0.060000009834766388
   vertex 0.56830888986587524 0.37452590465545654 9.9999999392252903e-09
   vertex 0.56854742765426636 0.37271419167518616 0.060000009834766388
  endloop
 endfacet
 facet normal -0.9914433564480607 -0.13053762275682712 0
  outer loop
   vertex 0.56854742765426636 0.37271419167518616 0.060000009834766388
   vertex 0.56830888986587524 0.37452590465545654 9.9999999392252903e-09
   vertex 0.56854742765426636 0.37271419167518616 9.9999999392252903e-09
  endloop
 endfacet
 facet normal -0.99144363434866101 0.13053551206288133 0
  outer loop
   vertex 0.56854742765426636 0.37271419167518616 0.060000009834766388
   vertex 0.56854742765426636 0.37271419167518616 9.9999999392252903e-09
   vertex 0.56830888986587524 0.37090244889259338 0.060000009834766388
  endloop
 endfacet
 facet normal -0.99144363434866101 0.13053551206288133 0
  outer loop
   vertex 0.56830888986587524 0.37090244889259338 0.060000009834766388
   vertex 0.56854742765426636 0.37271419167518616 9.9999999392252903e-09
   vertex 0.56830888986587524 0.37090244889259338 9.9999999392252903e-09
  endloop
 endfacet
 facet normal -0.92388405359606218 0.38267251731854052 0
  outer loop
   vertex 0.56830888986587524 0.37090244889259338 0.060000009834766388
   vertex 0.56830888986587524 0.37090244889259338 9.9999999392252903e-09
   vertex 0.56760960817337036 0.36921417713165283 0.060000009834766388
  endloop
 endfacet
 facet normal -0.92388405359606218 0.38267251731854052 0
  outer loop
   vertex 0.56760960817337036 0.36921417713165283 0.060000009834766388
   vertex 0.56830888986587524 0.37090244889259338 9.9999999392252903e-09
   vertex 0.56760960817337036 0.36921417713165283 9.9999999392252903e-09
  endloop
 endfacet
 facet normal -0.79334248099742433 0.6087755808545966 0
  outer loop
   vertex 0.56760960817337036 0.36921417713165283 0.060000009834766388
   vertex 0.56760960817337036 0.36921417713165283 9.9999999392252903e-09
   vertex 0.56649714708328247 0.36776444315910339 0.060000009834766388
  endloop
 endfacet
 facet normal -0.79334248099742433 0.6087755808545966 0
  outer loop
   vertex 0.56649714708328247 0.36776444315910339 0.060000009834766388
   vertex 0.56760960817337036 0.36921417713165283 9.9999999392252903e-09
   vertex 0.56649714708328247 0.36776444315910339 9.9999999392252903e-09
  endloop
 endfacet
 facet normal -0.60878345755633712 0.79333643670623832 0
  outer loop
   vertex 0.56649714708328247 0.36776444315910339 0.060000009834766388
   vertex 0.56649714708328247 0.36776444315910339 9.9999999392252903e-09
   vertex 0.56504744291305542 0.3666519820690155 0.060000009834766388
  endloop
 endfacet
 facet normal -0.60878345755633712 0.79333643670623832 0
  outer loop
   vertex 0.56504744291305542 0.3666519820690155 0.060000009834766388
   vertex 0.56649714708328247 0.36776444315910339 9.9999999392252903e-09
   vertex 0.56504744291305542 0.3666519820690155 9.9999999392252903e-09
  endloop
 endfacet
 facet normal -0.38265283079656226 0.92389220750224821 0
  outer loop
   vertex 0.56504744291305542 0.3666519820690155 0.060000009834766388
   vertex 0.56504744291305542 0.3666519820690155 9.9999999392252903e-09
   vertex 0.56335914134979248 0.36595273017883301 0.060000009834766388
  endloop
 endfacet
 facet normal -0.38265283079656226 0.92389220750224821 0
  outer loop
   vertex 0.56335914134979248 0.36595273017883301 0.060000009834766388
   vertex 0.56504744291305542 0.3666519820690155 9.9999999392252903e-09
   vertex 0.56335914134979248 0.36595273017883301 9.9999999392252903e-09
  endloop
 endfacet
 facet normal -0.13053973351844009 0.9914430785339795 0
  outer loop
   vertex 0.56335914134979248 0.36595273017883301 0.060000009834766388
   vertex 0.56335914134979248 0.36595273017883301 9.9999999392252903e-09
   vertex 0.56154745817184448 0.36571419239044189 0.060000009834766388
  endloop
 endfacet
 facet normal -0.13053973351844009 0.9914430785339795 0
  outer loop
   vertex 0.56154745817184448 0.36571419239044189 0.060000009834766388
   vertex 0.56335914134979248 0.36595273017883301 9.9999999392252903e-09
   vertex 0.56154745817184448 0.36571419239044189 9.9999999392252903e-09
  endloop
 endfacet
 facet normal 0.13053129087797838 0.99144419010942253 -0
  outer loop
   vertex 0.56154745817184448 0.36571419239044189 0.060000009834766388
   vertex 0.56154745817184448 0.36571419239044189 9.9999999392252903e-09
   vertex 0.55973565578460693 0.36595273017883301 0.060000009834766388
  endloop
 endfacet
 facet normal 0.13053129087797838 0.99144419010942253 0
  outer loop
   vertex 0.55973565578460693 0.36595273017883301 0.060000009834766388
   vertex 0.56154745817184448 0.36571419239044189 9.9999999392252903e-09
   vertex 0.55973565578460693 0.36595273017883301 9.9999999392252903e-09
  endloop
 endfacet
 facet normal 0.38266436239698221 0.92388743132013162 -0
  outer loop
   vertex 0.55973565578460693 0.36595273017883301 0.060000009834766388
   vertex 0.55973565578460693 0.36595273017883301 9.9999999392252903e-09
   vertex 0.55804741382598877 0.3666519820690155 0.060000009834766388
  endloop
 endfacet
 facet normal 0.38266436239698221 0.92388743132013162 0
  outer loop
   vertex 0.55804741382598877 0.3666519820690155 0.060000009834766388
   vertex 0.55973565578460693 0.36595273017883301 9.9999999392252903e-09
   vertex 0.55804741382598877 0.3666519820690155 9.9999999392252903e-09
  endloop
 endfacet
 facet normal 0.60876770429667015 0.79334852505400288 -0
  outer loop
   vertex 0.55804741382598877 0.3666519820690155 0.060000009834766388
   vertex 0.55804741382598877 0.3666519820690155 9.9999999392252903e-09
   vertex 0.55659765005111694 0.36776444315910339 0.060000009834766388
  endloop
 endfacet
 facet normal 0.60876770429667015 0.79334852505400288 0
  outer loop
   vertex 0.55659765005111694 0.36776444315910339 0.060000009834766388
   vertex 0.55804741382598877 0.3666519820690155 9.9999999392252903e-09
   vertex 0.55659765005111694 0.36776444315910339 9.9999999392252903e-09
  endloop
 endfacet
 facet normal 0.79335823430427321 0.60875505095367055 -0
  outer loop
   vertex 0.55659765005111694 0.36776444315910339 0.060000009834766388
   vertex 0.55659765005111694 0.36776444315910339 9.9999999392252903e-09
   vertex 0.55548524856567383 0.36921417713165283 0.060000009834766388
  endloop
 endfacet
 facet normal 0.79335823430427321 0.60875505095367055 0
  outer loop
   vertex 0.55548524856567383 0.36921417713165283 0.060000009834766388
   vertex 0.55659765005111694 0.36776444315910339 9.9999999392252903e-09
   vertex 0.55548524856567383 0.36921417713165283 9.9999999392252903e-09
  endloop
 endfacet
 facet normal 0.92387252144452647 0.38270035813901848 -0
  outer loop
   vertex 0.55548524856567383 0.36921417713165283 0.060000009834766388
   vertex 0.55548524856567383 0.36921417713165283 9.9999999392252903e-09
   vertex 0.55478590726852417 0.37090244889259338 0.060000009834766388
  endloop
 endfacet
 facet normal 0.92387252144452647 0.38270035813901848 0
  outer loop
   vertex 0.55478590726852417 0.37090244889259338 0.060000009834766388
   vertex 0.55548524856567383 0.36921417713165283 9.9999999392252903e-09
   vertex 0.55478590726852417 0.37090244889259338 9.9999999392252903e-09
  endloop
 endfacet
 facet normal 0.99144785516843958 0.13050345007661951 -0
  outer loop
   vertex 0.55478590726852417 0.37090244889259338 0.060000009834766388
   vertex 0.55478590726852417 0.37090244889259338 9.9999999392252903e-09
   vertex 0.55454742908477783 0.37271419167518616 0.060000009834766388
  endloop
 endfacet
 facet normal 0.99144785516843958 0.13050345007661951 0
  outer loop
   vertex 0.55454742908477783 0.37271419167518616 0.060000009834766388
   vertex 0.55478590726852417 0.37090244889259338 9.9999999392252903e-09
   vertex 0.55454742908477783 0.37271419167518616 9.9999999392252903e-09
  endloop
 endfacet
 facet normal 0.99144757740315526 -0.13050556027010657 0
  outer loop
   vertex 0.55454742908477783 0.37271419167518616 0.060000009834766388
   vertex 0.55454742908477783 0.37271419167518616 9.9999999392252903e-09
   vertex 0.55478590726852417 0.37452590465545654 0.060000009834766388
  endloop
 endfacet
 facet normal 0.99144757740315526 -0.13050556027010657 0
  outer loop
   vertex 0.55478590726852417 0.37452590465545654 0.060000009834766388
   vertex 0.55454742908477783 0.37271419167518616 9.9999999392252903e-09
   vertex 0.55478590726852417 0.37452590465545654 9.9999999392252903e-09
  endloop
 endfacet
 facet normal 0.92387252144452647 -0.38270035813901848 0
  outer loop
   vertex 0.55478590726852417 0.37452590465545654 0.060000009834766388
   vertex 0.55478590726852417 0.37452590465545654 9.9999999392252903e-09
   vertex 0.55548524856567383 0.37621417641639709 0.060000009834766388
  endloop
 endfacet
 facet normal 0.92387252144452647 -0.38270035813901848 0
  outer loop
   vertex 0.55548524856567383 0.37621417641639709 0.060000009834766388
   vertex 0.55478590726852417 0.37452590465545654 9.9999999392252903e-09
   vertex 0.55548524856567383 0.37621417641639709 9.9999999392252903e-09
  endloop
 endfacet
 facet normal 0.79335823430427321 -0.60875505095367055 0
  outer loop
   vertex 0.55548524856567383 0.37621417641639709 0.060000009834766388
   vertex 0.55548524856567383 0.37621417641639709 9.9999999392252903e-09
   vertex 0.55659765005111694 0.37766391038894653 0.060000009834766388
  endloop
 endfacet
 facet normal 0.79335823430427321 -0.60875505095367055 0
  outer loop
   vertex 0.55659765005111694 0.37766391038894653 0.060000009834766388
   vertex 0.55548524856567383 0.37621417641639709 9.9999999392252903e-09
   vertex 0.55659765005111694 0.37766391038894653 9.9999999392252903e-09
  endloop
 endfacet
 facet normal 0.60876770429667015 -0.79334852505400288 0
  outer loop
   vertex 0.55659765005111694 0.37766391038894653 0.060000009834766388
   vertex 0.55659765005111694 0.37766391038894653 9.9999999392252903e-09
   vertex 0.55804741382598877 0.37877637147903442 0.060000009834766388
  endloop
 endfacet
 facet normal 0.60876770429667015 -0.79334852505400288 0
  outer loop
   vertex 0.55804741382598877 0.37877637147903442 0.060000009834766388
   vertex 0.55659765005111694 0.37766391038894653 9.9999999392252903e-09
   vertex 0.55804741382598877 0.37877637147903442 9.9999999392252903e-09
  endloop
 endfacet
 facet normal 0.38269220401429566 -0.92387589912643608 0
  outer loop
   vertex 0.55804741382598877 0.37877637147903442 0.060000009834766388
   vertex 0.55804741382598877 0.37877637147903442 9.9999999392252903e-09
   vertex 0.55973565578460693 0.37947568297386169 0.060000009834766388
  endloop
 endfacet
 facet normal 0.38269220401429566 -0.92387589912643608 0
  outer loop
   vertex 0.55973565578460693 0.37947568297386169 0.060000009834766388
   vertex 0.55804741382598877 0.37877637147903442 9.9999999392252903e-09
   vertex 0.55973565578460693 0.37947568297386169 9.9999999392252903e-09
  endloop
 endfacet
 facet normal 0.1304992298925885 -0.99144841065858857 0
  outer loop
   vertex 0.55973565578460693 0.37947568297386169 0.060000009834766388
   vertex 0.55973565578460693 0.37947568297386169 9.9999999392252903e-09
   vertex 0.56154745817184448 0.37971416115760803 0.060000009834766388
  endloop
 endfacet
 facet normal 0.1304992298925885 -0.99144841065858857 0
  outer loop
   vertex 0.56154745817184448 0.37971416115760803 0.060000009834766388
   vertex 0.55973565578460693 0.37947568297386169 9.9999999392252903e-09
   vertex 0.56154745817184448 0.37971416115760803 9.9999999392252903e-09
  endloop
 endfacet
 facet normal -0.13050767053124562 -0.99144729962439648 0
  outer loop
   vertex 0.56154745817184448 0.37971416115760803 0.060000009834766388
   vertex 0.56154745817184448 0.37971416115760803 9.9999999392252903e-09
   vertex 0.56335914134979248 0.37947568297386169 0.060000009834766388
  endloop
 endfacet
 facet normal -0.13050767053124562 -0.99144729962439648 0
  outer loop
   vertex 0.56335914134979248 0.37947568297386169 0.060000009834766388
   vertex 0.56154745817184448 0.37971416115760803 9.9999999392252903e-09
   vertex 0.56335914134979248 0.37947568297386169 9.9999999392252903e-09
  endloop
 endfacet
 facet normal -0.38268067186275462 -0.92388067594396117 0
  outer loop
   vertex 0.56335914134979248 0.37947568297386169 0.060000009834766388
   vertex 0.56335914134979248 0.37947568297386169 9.9999999392252903e-09
   vertex 0.56504744291305542 0.37877637147903442 0.060000009834766388
  endloop
 endfacet
 facet normal -0.38268067186275462 -0.92388067594396117 0
  outer loop
   vertex 0.56504744291305542 0.37877637147903442 0.060000009834766388
   vertex 0.56335914134979248 0.37947568297386169 9.9999999392252903e-09
   vertex 0.56504744291305542 0.37877637147903442 9.9999999392252903e-09
  endloop
 endfacet
 facet normal -0.60878345755633712 -0.79333643670623832 0
  outer loop
   vertex 0.56504744291305542 0.37877637147903442 0.060000009834766388
   vertex 0.56504744291305542 0.37877637147903442 9.9999999392252903e-09
   vertex 0.56649714708328247 0.37766391038894653 0.060000009834766388
  endloop
 endfacet
 facet normal -0.60878345755633712 -0.79333643670623832 0
  outer loop
   vertex 0.56649714708328247 0.37766391038894653 0.060000009834766388
   vertex 0.56504744291305542 0.37877637147903442 9.9999999392252903e-09
   vertex 0.56649714708328247 0.37766391038894653 9.9999999392252903e-09
  endloop
 endfacet
 facet normal -0.79334248099742433 -0.6087755808545966 0
  outer loop
   vertex 0.56649714708328247 0.37766391038894653 0.060000009834766388
   vertex 0.56649714708328247 0.37766391038894653 9.9999999392252903e-09
   vertex 0.56760960817337036 0.37621417641639709 0.060000009834766388
  endloop
 endfacet
 facet normal -0.79334248099742433 -0.6087755808545966 0
  outer loop
   vertex 0.56760960817337036 0.37621417641639709 0.060000009834766388
   vertex 0.56649714708328247 0.37766391038894653 9.9999999392252903e-09
   vertex 0.56760960817337036 0.37621417641639709 9.9999999392252903e-09
  endloop
 endfacet
 facet normal -0.92388405359606218 -0.38267251731854052 0
  outer loop
   vertex 0.56760960817337036 0.37621417641639709 0.060000009834766388
   vertex 0.56760960817337036 0.37621417641639709 9.9999999392252903e-09
   vertex 0.56830888986587524 0.37452590465545654 0.060000009834766388
  endloop
 endfacet
 facet normal -0.92388405359606218 -0.38267251731854052 0
  outer loop
   vertex 0.56830888986587524 0.37452590465545654 0.060000009834766388
   vertex 0.56760960817337036 0.37621417641639709 9.9999999392252903e-09
   vertex 0.56830888986587524 0.37452590465545654 9.9999999392252903e-09
  endloop
 endfacet
 facet normal 0.24795727289686853 -0.96877096922727191 0
  outer loop
   vertex 0.56404733657836914 0.35893920063972473 9.9999999392252903e-09
   vertex 0.56597310304641724 0.35943210124969482 9.9999999392252903e-09
   vertex 0.56404733657836914 0.35893920063972473 0.060000009834766388
  endloop
 endfacet
 facet normal 0.24795727289686853 -0.96877096922727191 0
  outer loop
   vertex 0.56404733657836914 0.35893920063972473 0.060000009834766388
   vertex 0.56597310304641724 0.35943210124969482 9.9999999392252903e-09
   vertex 0.56597310304641724 0.35943210124969482 0.060000009834766388
  endloop
 endfacet
 facet normal 0.38267927364499565 -0.92388125509858599 0
  outer loop
   vertex 0.56597310304641724 0.35943210124969482 0.060000009834766388
   vertex 0.56597310304641724 0.35943210124969482 9.9999999392252903e-09
   vertex 0.56780970096588135 0.36019283533096313 0.060000009834766388
  endloop
 endfacet
 facet normal 0.38267927364499565 -0.92388125509858599 0
  outer loop
   vertex 0.56780970096588135 0.36019283533096313 0.060000009834766388
   vertex 0.56597310304641724 0.35943210124969482 9.9999999392252903e-09
   vertex 0.56780970096588135 0.36019283533096313 9.9999999392252903e-09
  endloop
 endfacet
 facet normal 0.50967457437796615 -0.86036726357564242 0
  outer loop
   vertex 0.56780970096588135 0.36019283533096313 0.060000009834766388
   vertex 0.56780970096588135 0.36019283533096313 9.9999999392252903e-09
   vertex 0.56951993703842163 0.36120596528053284 9.9999999392252903e-09
  endloop
 endfacet
 facet normal 0.50967457437796615 -0.86036726357564242 0
  outer loop
   vertex 0.56951993703842163 0.36120596528053284 9.9999999392252903e-09
   vertex 0.56951993703842163 0.36120596528053284 0.060000009834766388
   vertex 0.56780970096588135 0.36019283533096313 0.060000009834766388
  endloop
 endfacet
 facet normal 0.70710678118654757 0.70710678118654757 0
  outer loop
   vertex 0.57305550575256348 0.36474150419235229 0.060000009834766388
   vertex 0.62320786714553833 0.31458914279937744 0.060000009834766388
   vertex 0.57305550575256348 0.36474150419235229 9.9999999392252903e-09
  endloop
 endfacet
 facet normal 0.70710678118654757 0.70710678118654757 0
  outer loop
   vertex 0.57305550575256348 0.36474150419235229 9.9999999392252903e-09
   vertex 0.62320786714553833 0.31458914279937744 0.060000009834766388
   vertex 0.62320786714553833 0.31458914279937744 9.9999999392252903e-09
  endloop
 endfacet
 facet normal 0.70710082070538804 -0.70711274161746407 0
  outer loop
   vertex 0.61967229843139648 0.31105363368988037 9.9999999392252903e-09
   vertex 0.62320786714553833 0.31458914279937744 9.9999999392252903e-09
   vertex 0.61967229843139648 0.31105363368988037 0.060000009834766388
  endloop
 endfacet
 facet normal 0.70710082070538804 -0.70711274161746407 0
  outer loop
   vertex 0.61967229843139648 0.31105363368988037 0.060000009834766388
   vertex 0.62320786714553833 0.31458914279937744 9.9999999392252903e-09
   vertex 0.62320786714553833 0.31458914279937744 0.060000009834766388
  endloop
 endfacet
 facet normal -0.7071065710924157 -0.70710699128061683 0
  outer loop
   vertex 0.56951993703842163 0.36120596528053284 9.9999999392252903e-09
   vertex 0.61967229843139648 0.31105363368988037 9.9999999392252903e-09
   vertex 0.56951993703842163 0.36120596528053284 0.060000009834766388
  endloop
 endfacet
 facet normal -0.7071065710924157 -0.70710699128061683 0
  outer loop
   vertex 0.56951993703842163 0.36120596528053284 0.060000009834766388
   vertex 0.61967229843139648 0.31105363368988037 9.9999999392252903e-09
   vertex 0.61967229843139648 0.31105363368988037 0.060000009834766388
  endloop
 endfacet
 facet normal 0.70710720137374994 -0.70710636099909552 0
  outer loop
   vertex 0.55357480049133301 0.36120602488517761 0.060000009834766388
   vertex 0.50342237949371338 0.31105354428291321 0.060000009834766388
   vertex 0.55357480049133301 0.36120602488517761 9.9999999392252903e-09
  endloop
 endfacet
 facet normal 0.70710720137374994 -0.70710636099909552 0
  outer loop
   vertex 0.55357480049133301 0.36120602488517761 9.9999999392252903e-09
   vertex 0.50342237949371338 0.31105354428291321 0.060000009834766388
   vertex 0.50342237949371338 0.31105354428291321 9.9999999392252903e-09
  endloop
 endfacet
 facet normal -0.70710380096480885 -0.70710976139572568 0
  outer loop
   vertex 0.49988681077957153 0.31458908319473267 9.9999999392252903e-09
   vertex 0.50342237949371338 0.31105354428291321 9.9999999392252903e-09
   vertex 0.49988681077957153 0.31458908319473267 0.060000009834766388
  endloop
 endfacet
 facet normal -0.70710380096480885 -0.70710976139572568 0
  outer loop
   vertex 0.49988681077957153 0.31458908319473267 0.060000009834766388
   vertex 0.50342237949371338 0.31105354428291321 9.9999999392252903e-09
   vertex 0.50342237949371338 0.31105354428291321 0.060000009834766388
  endloop
 endfacet
 facet normal -0.70710678118654746 0.70710678118654746 0
  outer loop
   vertex 0.55003929138183594 0.36474156379699707 9.9999999392252903e-09
   vertex 0.49988681077957153 0.31458908319473267 9.9999999392252903e-09
   vertex 0.55003929138183594 0.36474156379699707 0.060000009834766388
  endloop
 endfacet
 facet normal -0.70710678118654746 0.70710678118654746 0
  outer loop
   vertex 0.55003929138183594 0.36474156379699707 0.060000009834766388
   vertex 0.49988681077957153 0.31458908319473267 9.9999999392252903e-09
   vertex 0.49988681077957153 0.31458908319473267 0.060000009834766388
  endloop
 endfacet
 facet normal -0.70710678118654746 0.70710678118654746 0
  outer loop
   vertex 0.56952005624771118 0.38422232866287231 0.060000009834766388
   vertex 0.61967253684997559 0.43437480926513672 0.060000009834766388
   vertex 0.56952005624771118 0.38422232866287231 9.9999999392252903e-09
  endloop
 endfacet
 facet normal -0.70710678118654746 0.70710678118654746 0
  outer loop
   vertex 0.56952005624771118 0.38422232866287231 9.9999999392252903e-09
   vertex 0.61967253684997559 0.43437480926513672 0.060000009834766388
   vertex 0.61967253684997559 0.43437480926513672 9.9999999392252903e-09
  endloop
 endfacet
 facet normal 0.70710976142084692 0.70710380093968728 0
  outer loop
   vertex 0.62320804595947266 0.43083927035331726 9.9999999392252903e-09
   vertex 0.61967253684997559 0.43437480926513672 9.9999999392252903e-09
   vertex 0.62320804595947266 0.43083927035331726 0.060000009834766388
  endloop
 endfacet
 facet normal 0.70710976142084692 0.70710380093968728 -0
  outer loop
   vertex 0.62320804595947266 0.43083927035331726 0.060000009834766388
   vertex 0.61967253684997559 0.43437480926513672 9.9999999392252903e-09
   vertex 0.61967253684997559 0.43437480926513672 0.060000009834766388
  endloop
 endfacet
 facet normal 0.70710678118654746 -0.70710678118654746 0
  outer loop
   vertex 0.57305556535720825 0.38068678975105286 9.9999999392252903e-09
   vertex 0.62320804595947266 0.43083927035331726 9.9999999392252903e-09
   vertex 0.57305556535720825 0.38068678975105286 0.060000009834766388
  endloop
 endfacet
 facet normal 0.70710678118654746 -0.70710678118654746 0
  outer loop
   vertex 0.57305556535720825 0.38068678975105286 0.060000009834766388
   vertex 0.62320804595947266 0.43083927035331726 9.9999999392252903e-09
   vertex 0.62320804595947266 0.43083927035331726 0.060000009834766388
  endloop
 endfacet
 facet normal -1 -0 0
  outer loop
   vertex 0.55904746055603027 0.3864891529083252 0.060000009834766388
   vertex 0.55904746055603027 0.45741546154022217 0.060000009834766388
   vertex 0.55904746055603027 0.3864891529083252 9.9999999392252903e-09
  endloop
 endfacet
 facet normal -1 0 -0
  outer loop
   vertex 0.55904746055603027 0.3864891529083252 9.9999999392252903e-09
   vertex 0.55904746055603027 0.45741546154022217 0.060000009834766388
   vertex 0.55904746055603027 0.45741546154022217 9.9999999392252903e-09
  endloop
 endfacet
 facet normal 0 1 0
  outer loop
   vertex 0.56404745578765869 0.45741546154022217 9.9999999392252903e-09
   vertex 0.55904746055603027 0.45741546154022217 9.9999999392252903e-09
   vertex 0.56404745578765869 0.45741546154022217 0.060000009834766388
  endloop
 endfacet
 facet normal 0 1 0
  outer loop
   vertex 0.56404745578765869 0.45741546154022217 0.060000009834766388
   vertex 0.55904746055603027 0.45741546154022217 9.9999999392252903e-09
   vertex 0.55904746055603027 0.45741546154022217 0.060000009834766388
  endloop
 endfacet
 facet normal 1 0 0
  outer loop
   vertex 0.56404745578765869 0.3864891529083252 9.9999999392252903e-09
   vertex 0.56404745578765869 0.45741546154022217 9.9999999392252903e-09
   vertex 0.56404745578765869 0.3864891529083252 0.060000009834766388
  endloop
 endfacet
 facet normal 1 0 -0
  outer loop
   vertex 0.56404745578765869 0.3864891529083252 0.060000009834766388
   vertex 0.56404745578765869 0.45741546154022217 9.9999999392252903e-09
   vertex 0.56404745578765869 0.45741546154022217 0.060000009834766388
  endloop
 endfacet
 facet normal -0.70710699128011756 -0.70710657109291519 0
  outer loop
   vertex 0.55003923177719116 0.38068678975105286 0.060000009834766388
   vertex 0.49988678097724915 0.43083927035331726 0.060000009834766388
   vertex 0.55003923177719116 0.38068678975105286 9.9999999392252903e-09
  endloop
 endfacet
 facet normal -0.70710699128011756 -0.70710657109291519 -0
  outer loop
   vertex 0.55003923177719116 0.38068678975105286 9.9999999392252903e-09
   vertex 0.49988678097724915 0.43083927035331726 0.060000009834766388
   vertex 0.49988678097724915 0.43083927035331726 9.9999999392252903e-09
  endloop
 endfacet
 facet normal -0.70710678118654757 0.70710678118654757 0
  outer loop
   vertex 0.5034223198890686 0.43437480926513672 9.9999999392252903e-09
   vertex 0.49988678097724915 0.43083927035331726 9.9999999392252903e-09
   vertex 0.5034223198890686 0.43437480926513672 0.060000009834766388
  endloop
 endfacet
 facet normal -0.70710678118654757 0.70710678118654757 0
  outer loop
   vertex 0.5034223198890686 0.43437480926513672 0.060000009834766388
   vertex 0.49988678097724915 0.43083927035331726 9.9999999392252903e-09
   vertex 0.49988678097724915 0.43083927035331726 0.060000009834766388
  endloop
 endfacet
 facet normal 0.70710678118654746 0.70710678118654746 0
  outer loop
   vertex 0.55357480049133301 0.38422232866287231 9.9999999392252903e-09
   vertex 0.5034223198890686 0.43437480926513672 9.9999999392252903e-09
   vertex 0.55357480049133301 0.38422232866287231 0.060000009834766388
  endloop
 endfacet
 facet normal 0.70710678118654746 0.70710678118654746 -0
  outer loop
   vertex 0.55357480049133301 0.38422232866287231 0.060000009834766388
   vertex 0.5034223198890686 0.43437480926513672 9.9999999392252903e-09
   vertex 0.5034223198890686 0.43437480926513672 0.060000009834766388
  endloop
 endfacet
 facet normal 1 -0 0
  outer loop
   vertex 0.56404733657836914 0.35893920063972473 0.060000009834766388
   vertex 0.56404733657836914 0.28801241517066956 0.060000009834766388
   vertex 0.56404733657836914 0.35893920063972473 9.9999999392252903e-09
  endloop
 endfacet
 facet normal 1 0 0
  outer loop
   vertex 0.56404733657836914 0.35893920063972473 9.9999999392252903e-09
   vertex 0.56404733657836914 0.28801241517066956 0.060000009834766388
   vertex 0.56404733657836914 0.28801241517066956 9.9999999392252903e-09
  endloop
 endfacet
 facet normal 0 0 1
  outer loop
   vertex 0.54826539754867554 0.36828839778900146 0.060000009834766388
   vertex 0.55478590726852417 0.37090244889259338 0.060000009834766388
   vertex 0.54777246713638306 0.37021419405937195 0.060000009834766388
  endloop
 endfacet
 facet normal 0 0 1
  outer loop
   vertex 0.54777246713638306 0.37021419405937195 0.060000009834766388
   vertex 0.55478590726852417 0.37090244889259338 0.060000009834766388
   vertex 0.55454742908477783 0.37271419167518616 0.060000009834766388
  endloop
 endfacet
 facet normal 0 0 1
  outer loop
   vertex 0.54777246713638306 0.37021419405937195 0.060000009834766388
   vertex 0.55454742908477783 0.37271419167518616 0.060000009834766388
   vertex 0.54777246713638306 0.37521418929100037 0.060000009834766388
  endloop
 endfacet
 facet normal 0 -0 1
  outer loop
   vertex 0.54777246713638306 0.37521418929100037 0.060000009834766388
   vertex 0.55454742908477783 0.37271419167518616 0.060000009834766388
   vertex 0.55478590726852417 0.37452590465545654 0.060000009834766388
  endloop
 endfacet
 facet normal 0 0 1
  outer loop
   vertex 0.54777246713638306 0.37521418929100037 0.060000009834766388
   vertex 0.55478590726852417 0.37452590465545654 0.060000009834766388
   vertex 0.54826539754867554 0.37713995575904846 0.060000009834766388
  endloop
 endfacet
 facet normal 0 0 1
  outer loop
   vertex 0.54826539754867554 0.37713995575904846 0.060000009834766388
   vertex 0.55478590726852417 0.37452590465545654 0.060000009834766388
   vertex 0.54902613162994385 0.37897652387619019 0.060000009834766388
  endloop
 endfacet
 facet normal 0 -0 1
  outer loop
   vertex 0.54902613162994385 0.37897652387619019 0.060000009834766388
   vertex 0.55478590726852417 0.37452590465545654 0.060000009834766388
   vertex 0.55548524856567383 0.37621417641639709 0.060000009834766388
  endloop
 endfacet
 facet normal 0 0 1
  outer loop
   vertex 0.54902613162994385 0.37897652387619019 0.060000009834766388
   vertex 0.55548524856567383 0.37621417641639709 0.060000009834766388
   vertex 0.55003923177719116 0.38068678975105286 0.060000009834766388
  endloop
 endfacet
 facet normal 0 -0 1
  outer loop
   vertex 0.55003923177719116 0.38068678975105286 0.060000009834766388
   vertex 0.55548524856567383 0.37621417641639709 0.060000009834766388
   vertex 0.55659765005111694 0.37766391038894653 0.060000009834766388
  endloop
 endfacet
 facet normal 0 0 1
  outer loop
   vertex 0.55003923177719116 0.38068678975105286 0.060000009834766388
   vertex 0.55659765005111694 0.37766391038894653 0.060000009834766388
   vertex 0.55357480049133301 0.38422232866287231 0.060000009834766388
  endloop
 endfacet
 facet normal 0 -0 1
  outer loop
   vertex 0.55357480049133301 0.38422232866287231 0.060000009834766388
   vertex 0.55659765005111694 0.37766391038894653 0.060000009834766388
   vertex 0.55804741382598877 0.37877637147903442 0.060000009834766388
  endloop
 endfacet
 facet normal 0 0 1
  outer loop
   vertex 0.55357480049133301 0.38422232866287231 0.060000009834766388
   vertex 0.55804741382598877 0.37877637147903442 0.060000009834766388
   vertex 0.55528509616851807 0.3852354884147644 0.060000009834766388
  endloop
 endfacet
 facet normal 0 0 1
  outer loop
   vertex 0.55528509616851807 0.3852354884147644 0.060000009834766388
   vertex 0.55804741382598877 0.37877637147903442 0.060000009834766388
   vertex 0.5571216344833374 0.38599622249603271 0.060000009834766388
  endloop
 endfacet
 facet normal 0 -0 1
  outer loop
   vertex 0.5571216344833374 0.38599622249603271 0.060000009834766388
   vertex 0.55804741382598877 0.37877637147903442 0.060000009834766388
   vertex 0.55973565578460693 0.37947568297386169 0.060000009834766388
  endloop
 endfacet
 facet normal 0 0 1
  outer loop
   vertex 0.5571216344833374 0.38599622249603271 0.060000009834766388
   vertex 0.55973565578460693 0.37947568297386169 0.060000009834766388
   vertex 0.55904746055603027 0.3864891529083252 0.060000009834766388
  endloop
 endfacet
 facet normal 0 -0 1
  outer loop
   vertex 0.55904746055603027 0.3864891529083252 0.060000009834766388
   vertex 0.55973565578460693 0.37947568297386169 0.060000009834766388
   vertex 0.56154745817184448 0.37971416115760803 0.060000009834766388
  endloop
 endfacet
 facet normal 0 -0 1
  outer loop
   vertex 0.55904746055603027 0.3864891529083252 0.060000009834766388
   vertex 0.56154745817184448 0.37971416115760803 0.060000009834766388
   vertex 0.56404745578765869 0.3864891529083252 0.060000009834766388
  endloop
 endfacet
 facet normal -0 0 1
  outer loop
   vertex 0.56404745578765869 0.3864891529083252 0.060000009834766388
   vertex 0.56154745817184448 0.37971416115760803 0.060000009834766388
   vertex 0.56335914134979248 0.37947568297386169 0.060000009834766388
  endloop
 endfacet
 facet normal 0 0 1
  outer loop
   vertex 0.56404745578765869 0.3864891529083252 0.060000009834766388
   vertex 0.56335914134979248 0.37947568297386169 0.060000009834766388
   vertex 0.56597322225570679 0.38599622249603271 0.060000009834766388
  endloop
 endfacet
 facet normal -0 0 1
  outer loop
   vertex 0.56597322225570679 0.38599622249603271 0.060000009834766388
   vertex 0.56335914134979248 0.37947568297386169 0.060000009834766388
   vertex 0.56504744291305542 0.37877637147903442 0.060000009834766388
  endloop
 endfacet
 facet normal 0 0 1
  outer loop
   vertex 0.56597322225570679 0.38599622249603271 0.060000009834766388
   vertex 0.56504744291305542 0.37877637147903442 0.060000009834766388
   vertex 0.56780976057052612 0.3852354884147644 0.060000009834766388
  endloop
 endfacet
 facet normal 0 0 1
  outer loop
   vertex 0.56780976057052612 0.3852354884147644 0.060000009834766388
   vertex 0.56504744291305542 0.37877637147903442 0.060000009834766388
   vertex 0.56952005624771118 0.38422232866287231 0.060000009834766388
  endloop
 endfacet
 facet normal -0 0 1
  outer loop
   vertex 0.56952005624771118 0.38422232866287231 0.060000009834766388
   vertex 0.56504744291305542 0.37877637147903442 0.060000009834766388
   vertex 0.56649714708328247 0.37766391038894653 0.060000009834766388
  endloop
 endfacet
 facet normal 0 0 1
  outer loop
   vertex 0.56952005624771118 0.38422232866287231 0.060000009834766388
   vertex 0.56649714708328247 0.37766391038894653 0.060000009834766388
   vertex 0.57305556535720825 0.38068678975105286 0.060000009834766388
  endloop
 endfacet
 facet normal -0 0 1
  outer loop
   vertex 0.57305556535720825 0.38068678975105286 0.060000009834766388
   vertex 0.56649714708328247 0.37766391038894653 0.060000009834766388
   vertex 0.56760960817337036 0.37621417641639709 0.060000009834766388
  endloop
 endfacet
 facet normal 0 0 1
  outer loop
   vertex 0.57305556535720825 0.38068678975105286 0.060000009834766388
   vertex 0.56760960817337036 0.37621417641639709 0.060000009834766388
   vertex 0.57406872510910034 0.37897652387619019 0.060000009834766388
  endloop
 endfacet
 facet normal -0 0 1
  outer loop
   vertex 0.57406872510910034 0.37897652387619019 0.060000009834766388
   vertex 0.56760960817337036 0.37621417641639709 0.060000009834766388
   vertex 0.56830888986587524 0.37452590465545654 0.060000009834766388
  endloop
 endfacet
 facet normal 0 0 1
  outer loop
   vertex 0.57406872510910034 0.37897652387619019 0.060000009834766388
   vertex 0.56830888986587524 0.37452590465545654 0.060000009834766388
   vertex 0.57482945919036865 0.37713995575904846 0.060000009834766388
  endloop
 endfacet
 facet normal 0 0 1
  outer loop
   vertex 0.57482945919036865 0.37713995575904846 0.060000009834766388
   vertex 0.56830888986587524 0.37452590465545654 0.060000009834766388
   vertex 0.57532238960266113 0.37521418929100037 0.060000009834766388
  endloop
 endfacet
 facet normal -0 0 1
  outer loop
   vertex 0.57532238960266113 0.37521418929100037 0.060000009834766388
   vertex 0.56830888986587524 0.37452590465545654 0.060000009834766388
   vertex 0.56854742765426636 0.37271419167518616 0.060000009834766388
  endloop
 endfacet
 facet normal -0 0 1
  outer loop
   vertex 0.57532238960266113 0.37521418929100037 0.060000009834766388
   vertex 0.56854742765426636 0.37271419167518616 0.060000009834766388
   vertex 0.57532238960266113 0.37021419405937195 0.060000009834766388
  endloop
 endfacet
 facet normal 0 0 1
  outer loop
   vertex 0.57532238960266113 0.37021419405937195 0.060000009834766388
   vertex 0.56854742765426636 0.37271419167518616 0.060000009834766388
   vertex 0.56830888986587524 0.37090244889259338 0.060000009834766388
  endloop
 endfacet
 facet normal 0 0 1
  outer loop
   vertex 0.57532238960266113 0.37021419405937195 0.060000009834766388
   vertex 0.56830888986587524 0.37090244889259338 0.060000009834766388
   vertex 0.57482945919036865 0.36828839778900146 0.060000009834766388
  endloop
 endfacet
 facet normal 0 0 1
  outer loop
   vertex 0.57482945919036865 0.36828839778900146 0.060000009834766388
   vertex 0.56830888986587524 0.37090244889259338 0.060000009834766388
   vertex 0.56760960817337036 0.36921417713165283 0.060000009834766388
  endloop
 endfacet
 facet normal 0 0 1
  outer loop
   vertex 0.57482945919036865 0.36828839778900146 0.060000009834766388
   vertex 0.56760960817337036 0.36921417713165283 0.060000009834766388
   vertex 0.57406872510910034 0.36645179986953735 0.060000009834766388
  endloop
 endfacet
 facet normal 0 0 1
  outer loop
   vertex 0.57406872510910034 0.36645179986953735 0.060000009834766388
   vertex 0.56760960817337036 0.36921417713165283 0.060000009834766388
   vertex 0.57305550575256348 0.36474150419235229 0.060000009834766388
  endloop
 endfacet
 facet normal 0 0 1
  outer loop
   vertex 0.57305550575256348 0.36474150419235229 0.060000009834766388
   vertex 0.56760960817337036 0.36921417713165283 0.060000009834766388
   vertex 0.56649714708328247 0.36776444315910339 0.060000009834766388
  endloop
 endfacet
 facet normal 0 0 1
  outer loop
   vertex 0.57305550575256348 0.36474150419235229 0.060000009834766388
   vertex 0.56649714708328247 0.36776444315910339 0.060000009834766388
   vertex 0.56951993703842163 0.36120596528053284 0.060000009834766388
  endloop
 endfacet
 facet normal 0 0 1
  outer loop
   vertex 0.56951993703842163 0.36120596528053284 0.060000009834766388
   vertex 0.56649714708328247 0.36776444315910339 0.060000009834766388
   vertex 0.56504744291305542 0.3666519820690155 0.060000009834766388
  endloop
 endfacet
 facet normal 0 0 1
  outer loop
   vertex 0.56951993703842163 0.36120596528053284 0.060000009834766388
   vertex 0.56504744291305542 0.3666519820690155 0.060000009834766388
   vertex 0.56780970096588135 0.36019283533096313 0.060000009834766388
  endloop
 endfacet
 facet normal 0 0 1
  outer loop
   vertex 0.56780970096588135 0.36019283533096313 0.060000009834766388
   vertex 0.56504744291305542 0.3666519820690155 0.060000009834766388
   vertex 0.56335914134979248 0.36595273017883301 0.060000009834766388
  endloop
 endfacet
 facet normal 0 0 1
  outer loop
   vertex 0.56780970096588135 0.36019283533096313 0.060000009834766388
   vertex 0.56335914134979248 0.36595273017883301 0.060000009834766388
   vertex 0.56597310304641724 0.35943210124969482 0.060000009834766388
  endloop
 endfacet
 facet normal 0 0 1
  outer loop
   vertex 0.56597310304641724 0.35943210124969482 0.060000009834766388
   vertex 0.56335914134979248 0.36595273017883301 0.060000009834766388
   vertex 0.56404733657836914 0.35893920063972473 0.060000009834766388
  endloop
 endfacet
 facet normal 0 0 1
  outer loop
   vertex 0.56404733657836914 0.35893920063972473 0.060000009834766388
   vertex 0.56335914134979248 0.36595273017883301 0.060000009834766388
   vertex 0.56154745817184448 0.36571419239044189 0.060000009834766388
  endloop
 endfacet
 facet normal 0 0 1
  outer loop
   vertex 0.56404733657836914 0.35893920063972473 0.060000009834766388
   vertex 0.56154745817184448 0.36571419239044189 0.060000009834766388
   vertex 0.55904734134674072 0.35893920063972473 0.060000009834766388
  endloop
 endfacet
 facet normal 0 0 1
  outer loop
   vertex 0.55904734134674072 0.35893920063972473 0.060000009834766388
   vertex 0.56154745817184448 0.36571419239044189 0.060000009834766388
   vertex 0.55973565578460693 0.36595273017883301 0.060000009834766388
  endloop
 endfacet
 facet normal 0 0 1
  outer loop
   vertex 0.55904734134674072 0.35893920063972473 0.060000009834766388
   vertex 0.55973565578460693 0.36595273017883301 0.060000009834766388
   vertex 0.5571216344833374 0.35943213105201721 0.060000009834766388
  endloop
 endfacet
 facet normal 0 0 1
  outer loop
   vertex 0.5571216344833374 0.35943213105201721 0.060000009834766388
   vertex 0.55973565578460693 0.36595273017883301 0.060000009834766388
   vertex 0.55804741382598877 0.3666519820690155 0.060000009834766388
  endloop
 endfacet
 facet normal 0 0 1
  outer loop
   vertex 0.5571216344833374 0.35943213105201721 0.060000009834766388
   vertex 0.55804741382598877 0.3666519820690155 0.060000009834766388
   vertex 0.55528509616851807 0.36019286513328552 0.060000009834766388
  endloop
 endfacet
 facet normal 0 0 1
  outer loop
   vertex 0.55528509616851807 0.36019286513328552 0.060000009834766388
   vertex 0.55804741382598877 0.3666519820690155 0.060000009834766388
   vertex 0.55357480049133301 0.36120602488517761 0.060000009834766388
  endloop
 endfacet
 facet normal 0 0 1
  outer loop
   vertex 0.55357480049133301 0.36120602488517761 0.060000009834766388
   vertex 0.55804741382598877 0.3666519820690155 0.060000009834766388
   vertex 0.55659765005111694 0.36776444315910339 0.060000009834766388
  endloop
 endfacet
 facet normal 0 0 1
  outer loop
   vertex 0.55357480049133301 0.36120602488517761 0.060000009834766388
   vertex 0.55659765005111694 0.36776444315910339 0.060000009834766388
   vertex 0.55003929138183594 0.36474156379699707 0.060000009834766388
  endloop
 endfacet
 facet normal 0 0 1
  outer loop
   vertex 0.55003929138183594 0.36474156379699707 0.060000009834766388
   vertex 0.55659765005111694 0.36776444315910339 0.060000009834766388
   vertex 0.55548524856567383 0.36921417713165283 0.060000009834766388
  endloop
 endfacet
 facet normal 0 0 1
  outer loop
   vertex 0.55003929138183594 0.36474156379699707 0.060000009834766388
   vertex 0.55548524856567383 0.36921417713165283 0.060000009834766388
   vertex 0.54902613162994385 0.36645182967185974 0.060000009834766388
  endloop
 endfacet
 facet normal 0 0 1
  outer loop
   vertex 0.54902613162994385 0.36645182967185974 0.060000009834766388
   vertex 0.55548524856567383 0.36921417713165283 0.060000009834766388
   vertex 0.55478590726852417 0.37090244889259338 0.060000009834766388
  endloop
 endfacet
 facet normal 0 0 1
  outer loop
   vertex 0.54902613162994385 0.36645182967185974 0.060000009834766388
   vertex 0.55478590726852417 0.37090244889259338 0.060000009834766388
   vertex 0.54826539754867554 0.36828839778900146 0.060000009834766388
  endloop
 endfacet
 facet normal 0 -0 1
  outer loop
   vertex 0.49988681077957153 0.31458908319473267 0.060000009834766388
   vertex 0.50342237949371338 0.31105354428291321 0.060000009834766388
   vertex 0.55003929138183594 0.36474156379699707 0.060000009834766388
  endloop
 endfacet
 facet normal 0 0 1
  outer loop
   vertex 0.55003929138183594 0.36474156379699707 0.060000009834766388
   vertex 0.50342237949371338 0.31105354428291321 0.060000009834766388
   vertex 0.55357480049133301 0.36120602488517761 0.060000009834766388
  endloop
 endfacet
 facet normal 0 0 1
  outer loop
   vertex 0.55904734134674072 0.35893920063972473 0.060000009834766388
   vertex 0.55904734134674072 0.28801241517066956 0.060000009834766388
   vertex 0.56404733657836914 0.35893920063972473 0.060000009834766388
  endloop
 endfacet
 facet normal 0 0 1
  outer loop
   vertex 0.56404733657836914 0.35893920063972473 0.060000009834766388
   vertex 0.55904734134674072 0.28801241517066956 0.060000009834766388
   vertex 0.56404733657836914 0.28801241517066956 0.060000009834766388
  endloop
 endfacet
 facet normal 0 0 1
  outer loop
   vertex 0.56951993703842163 0.36120596528053284 0.060000009834766388
   vertex 0.61967229843139648 0.31105363368988037 0.060000009834766388
   vertex 0.57305550575256348 0.36474150419235229 0.060000009834766388
  endloop
 endfacet
 facet normal 0 -0 1
  outer loop
   vertex 0.57305550575256348 0.36474150419235229 0.060000009834766388
   vertex 0.61967229843139648 0.31105363368988037 0.060000009834766388
   vertex 0.62320786714553833 0.31458914279937744 0.060000009834766388
  endloop
 endfacet
 facet normal 0 0 1
  outer loop
   vertex 0.57532238960266113 0.37021419405937195 0.060000009834766388
   vertex 0.64624869823455811 0.37021419405937195 0.060000009834766388
   vertex 0.57532238960266113 0.37521418929100037 0.060000009834766388
  endloop
 endfacet
 facet normal 0 -0 1
  outer loop
   vertex 0.57532238960266113 0.37521418929100037 0.060000009834766388
   vertex 0.64624869823455811 0.37021419405937195 0.060000009834766388
   vertex 0.64624869823455811 0.37521418929100037 0.060000009834766388
  endloop
 endfacet
 facet normal 0 0 1
  outer loop
   vertex 0.62320804595947266 0.43083927035331726 0.060000009834766388
   vertex 0.61967253684997559 0.43437480926513672 0.060000009834766388
   vertex 0.57305556535720825 0.38068678975105286 0.060000009834766388
  endloop
 endfacet
 facet normal 0 0 1
  outer loop
   vertex 0.57305556535720825 0.38068678975105286 0.060000009834766388
   vertex 0.61967253684997559 0.43437480926513672 0.060000009834766388
   vertex 0.56952005624771118 0.38422232866287231 0.060000009834766388
  endloop
 endfacet
 facet normal -0 0 1
  outer loop
   vertex 0.56404745578765869 0.45741546154022217 0.060000009834766388
   vertex 0.55904746055603027 0.45741546154022217 0.060000009834766388
   vertex 0.56404745578765869 0.3864891529083252 0.060000009834766388
  endloop
 endfacet
 facet normal 0 0 1
  outer loop
   vertex 0.56404745578765869 0.3864891529083252 0.060000009834766388
   vertex 0.55904746055603027 0.45741546154022217 0.060000009834766388
   vertex 0.55904746055603027 0.3864891529083252 0.060000009834766388
  endloop
 endfacet
 facet normal 0 0 1
  outer loop
   vertex 0.55357480049133301 0.38422232866287231 0.060000009834766388
   vertex 0.5034223198890686 0.43437480926513672 0.060000009834766388
   vertex 0.55003923177719116 0.38068678975105286 0.060000009834766388
  endloop
 endfacet
 facet normal 0 0 1
  outer loop
   vertex 0.55003923177719116 0.38068678975105286 0.060000009834766388
   vertex 0.5034223198890686 0.43437480926513672 0.060000009834766388
   vertex 0.49988678097724915 0.43083927035331726 0.060000009834766388
  endloop
 endfacet
 facet normal 0 0 1
  outer loop
   vertex 0.4768461287021637 0.37521418929100037 0.060000009834766388
   vertex 0.4768461287021637 0.37021419405937195 0.060000009834766388
   vertex 0.54777246713638306 0.37521418929100037 0.060000009834766388
  endloop
 endfacet
 facet normal 0 0 1
  outer loop
   vertex 0.54777246713638306 0.37521418929100037 0.060000009834766388
   vertex 0.4768461287021637 0.37021419405937195 0.060000009834766388
   vertex 0.54777246713638306 0.37021419405937195 0.060000009834766388
  endloop
 endfacet
 facet normal 0 -1 0
  outer loop
   vertex 0.55904734134674072 0.28801241517066956 9.9999999392252903e-09
   vertex 0.56404733657836914 0.28801241517066956 9.9999999392252903e-09
   vertex 0.55904734134674072 0.28801241517066956 0.060000009834766388
  endloop
 endfacet
 facet normal 0 -1 0
  outer loop
   vertex 0.55904734134674072 0.28801241517066956 0.060000009834766388
   vertex 0.56404733657836914 0.28801241517066956 9.9999999392252903e-09
   vertex 0.56404733657836914 0.28801241517066956 0.060000009834766388
  endloop
 endfacet
 facet normal -1 0 0
  outer loop
   vertex 0.55904734134674072 0.35893920063972473 9.9999999392252903e-09
   vertex 0.55904734134674072 0.28801241517066956 9.9999999392252903e-09
   vertex 0.55904734134674072 0.35893920063972473 0.060000009834766388
  endloop
 endfacet
 facet normal -1 0 0
  outer loop
   vertex 0.55904734134674072 0.35893920063972473 0.060000009834766388
   vertex 0.55904734134674072 0.28801241517066956 9.9999999392252903e-09
   vertex 0.55904734134674072 0.28801241517066956 0.060000009834766388
  endloop
 endfacet
endsolid
