solid
  facet normal -1.000000 0.000000 0.000000
    outer loop
      vertex -0.1 0.045 -0.145
      vertex -0.1 0.05 -0.12
      vertex -0.1 0.05 -0.15
    endloop
  endfacet
  facet normal -1.000000 0.000000 0.000000
    outer loop
      vertex -0.1 0.045 -0.145
      vertex -0.1 0.045 -0.12
      vertex -0.1 0.05 -0.12
    endloop
  endfacet
  facet normal -1.000000 0.000000 0.000000
    outer loop
      vertex -0.1 0.05 -0.15
      vertex -0.1 -0.05 -0.15
      vertex -0.1 0.045 -0.145
    endloop
  endfacet
  facet normal -1.000000 0.000000 0.000000
    outer loop
      vertex -0.1 -0.05 -0.15
      vertex -0.1 -0.045 -0.145
      vertex -0.1 0.045 -0.145
    endloop
  endfacet
  facet normal -1.000000 0.000000 0.000000
    outer loop
      vertex -0.1 -0.045 -0.145
      vertex -0.1 -0.05 -0.12
      vertex -0.1 -0.045 -0.12
    endloop
  endfacet
  facet normal -1.000000 0.000000 0.000000
    outer loop
      vertex -0.1 -0.05 -0.15
      vertex -0.1 -0.05 -0.12
      vertex -0.1 -0.045 -0.145
    endloop
  endfacet
  facet normal 0.000000 0.000000 -1.000000
    outer loop
      vertex -0.1 -0.05 -0.15
      vertex -0.1 0.05 -0.15
      vertex 0.2 0.05 -0.15
    endloop
  endfacet
  facet normal 0.000000 0.000000 -1.000000
    outer loop
      vertex -0.1 -0.05 -0.15
      vertex 0.2 0.05 -0.15
      vertex 0.2 -0.05 -0.15
    endloop
  endfacet
  facet normal 1.000000 0.000000 0.000000
    outer loop
      vertex 0.2 0.05 -0.12
      vertex 0.2 0.045 -0.145
      vertex 0.2 0.05 -0.15
    endloop
  endfacet
  facet normal 1.000000 -0.000000 0.000000
    outer loop
      vertex 0.2 0.045 -0.12
      vertex 0.2 0.045 -0.145
      vertex 0.2 0.05 -0.12
    endloop
  endfacet
  facet normal 1.000000 0.000000 0.000000
    outer loop
      vertex 0.2 -0.05 -0.15
      vertex 0.2 0.05 -0.15
      vertex 0.2 0.045 -0.145
    endloop
  endfacet
  facet normal 1.000000 -0.000000 0.000000
    outer loop
      vertex 0.2 -0.045 -0.145
      vertex 0.2 -0.05 -0.15
      vertex 0.2 0.045 -0.145
    endloop
  endfacet
  facet normal 1.000000 -0.000000 0.000000
    outer loop
      vertex 0.2 -0.05 -0.12
      vertex 0.2 -0.045 -0.145
      vertex 0.2 -0.045 -0.12
    endloop
  endfacet
  facet normal 1.000000 0.000000 0.000000
    outer loop
      vertex 0.2 -0.05 -0.12
      vertex 0.2 -0.05 -0.15
      vertex 0.2 -0.045 -0.145
    endloop
  endfacet
  facet normal 0.000000 -1.000000 0.000000
    outer loop
      vertex -0.1 -0.05 -0.15
      vertex 0.2 -0.05 -0.15
      vertex 0.2 -0.05 -0.12
    endloop
  endfacet
  facet normal 0.000000 -1.000000 0.000000
    outer loop
      vertex -0.1 -0.05 -0.15
      vertex 0.2 -0.05 -0.12
      vertex -0.1 -0.05 -0.12
    endloop
  endfacet
  facet normal 0.000000 1.000000 0.000000
    outer loop
      vertex 0.2 0.05 -0.12
      vertex -0.1 0.05 -0.15
      vertex -0.1 0.05 -0.12
    endloop
  endfacet
  facet normal 0.000000 1.000000 -0.000000
    outer loop
      vertex 0.2 0.05 -0.15
      vertex -0.1 0.05 -0.15
      vertex 0.2 0.05 -0.12
    endloop
  endfacet
  facet normal 0.000000 0.000000 1.000000
    outer loop
      vertex -0.1 -0.05 -0.12
      vertex 0.2 -0.05 -0.12
      vertex 0.2 -0.045 -0.12
    endloop
  endfacet
  facet normal -0.000000 0.000000 1.000000
    outer loop
      vertex -0.1 -0.045 -0.12
      vertex -0.1 -0.05 -0.12
      vertex 0.2 -0.045 -0.12
    endloop
  endfacet
  facet normal 0.000000 0.000000 1.000000
    outer loop
      vertex -0.1 0.045 -0.12
      vertex 0.2 0.045 -0.12
      vertex 0.2 0.05 -0.12
    endloop
  endfacet
  facet normal -0.000000 0.000000 1.000000
    outer loop
      vertex -0.1 0.05 -0.12
      vertex -0.1 0.045 -0.12
      vertex 0.2 0.05 -0.12
    endloop
  endfacet
  facet normal 0.000000 -1.000000 0.000000
    outer loop
      vertex -0.1 0.045 -0.145
      vertex 0.2 0.045 -0.145
      vertex 0.2 0.045 -0.12
    endloop
  endfacet
  facet normal 0.000000 -1.000000 0.000000
    outer loop
      vertex -0.1 0.045 -0.145
      vertex 0.2 0.045 -0.12
      vertex -0.1 0.045 -0.12
    endloop
  endfacet
  facet normal 0.000000 0.000000 1.000000
    outer loop
      vertex -0.1 -0.045 -0.145
      vertex 0.2 -0.045 -0.145
      vertex 0.2 0.045 -0.145
    endloop
  endfacet
  facet normal -0.000000 0.000000 1.000000
    outer loop
      vertex -0.1 0.045 -0.145
      vertex -0.1 -0.045 -0.145
      vertex 0.2 0.045 -0.145
    endloop
  endfacet
  facet normal 0.000000 1.000000 -0.000000
    outer loop
      vertex 0.2 -0.045 -0.145
      vertex -0.1 -0.045 -0.12
      vertex 0.2 -0.045 -0.12
    endloop
  endfacet
  facet normal 0.000000 1.000000 0.000000
    outer loop
      vertex 0.2 -0.045 -0.145
      vertex -0.1 -0.045 -0.145
      vertex -0.1 -0.045 -0.12
    endloop
  endfacet
endsolid
