solid
  facet normal -1.000000 0.000000 0.000000
    outer loop
      vertex 0.182 -0.073 -0.18
      vertex 0.182 0.069 -0.18
      vertex 0.182 0.069 -0.28
    endloop
  endfacet
  facet normal -1.000000 0.000000 0.000000
    outer loop
      vertex 0.182 -0.073 -0.18
      vertex 0.182 0.069 -0.28
      vertex 0.182 -0.073 -0.28
    endloop
  endfacet
  facet normal -0.000000 -1.000000 0.000000
    outer loop
      vertex 0.323 -0.073 -0.18
      vertex 0.182 -0.073 -0.18
      vertex 0.182 -0.073 -0.28
    endloop
  endfacet
  facet normal 0.000000 -1.000000 -0.000000
    outer loop
      vertex 0.323 -0.073 -0.18
      vertex 0.182 -0.073 -0.28
      vertex 0.323 -0.073 -0.28
    endloop
  endfacet
  facet normal 1.000000 0.000000 0.000000
    outer loop
      vertex 0.323 0.069 -0.18
      vertex 0.323 -0.073 -0.18
      vertex 0.323 -0.073 -0.28
    endloop
  endfacet
  facet normal 1.000000 0.000000 0.000000
    outer loop
      vertex 0.323 0.069 -0.18
      vertex 0.323 -0.073 -0.28
      vertex 0.323 0.069 -0.28
    endloop
  endfacet
  facet normal 0.000000 1.000000 0.000000
    outer loop
      vertex 0.182 0.069 -0.28
      vertex 0.323 0.069 -0.18
      vertex 0.323 0.069 -0.28
    endloop
  endfacet
  facet normal -0.000000 1.000000 0.000000
    outer loop
      vertex 0.182 0.069 -0.18
      vertex 0.323 0.069 -0.18
      vertex 0.182 0.069 -0.28
    endloop
  endfacet
  facet normal 0.000000 0.000000 -1.000000
    outer loop
      vertex 0.182 0.069 -0.28
      vertex 0.323 0.069 -0.28
      vertex 0.182 -0.073 -0.28
    endloop
  endfacet
  facet normal 0.000000 0.000000 -1.000000
    outer loop
      vertex 0.182 -0.073 -0.28
      vertex 0.323 0.069 -0.28
      vertex 0.323 -0.073 -0.28
    endloop
  endfacet
  facet normal 0.000000 0.000000 1.000000
    outer loop
      vertex 0.323 -0.073 -0.18
      vertex 0.318 -0.068 -0.18
      vertex 0.187 -0.068 -0.18
    endloop
  endfacet
  facet normal 0.000000 0.000000 1.000000
    outer loop
      vertex 0.323 -0.073 -0.18
      vertex 0.187 -0.068 -0.18
      vertex 0.182 -0.073 -0.18
    endloop
  endfacet
  facet normal 0.000000 0.000000 1.000000
    outer loop
      vertex 0.187 0.064 -0.18
      vertex 0.182 0.069 -0.18
      vertex 0.182 -0.073 -0.18
    endloop
  endfacet
  facet normal 0.000000 0.000000 1.000000
    outer loop
      vertex 0.187 0.064 -0.18
      vertex 0.182 -0.073 -0.18
      vertex 0.187 -0.068 -0.18
    endloop
  endfacet
  facet normal 0.000000 0.000000 1.000000
    outer loop
      vertex 0.318 0.064 -0.18
      vertex 0.318 -0.068 -0.18
      vertex 0.323 -0.073 -0.18
    endloop
  endfacet
  facet normal 0.000000 0.000000 1.000000
    outer loop
      vertex 0.323 0.069 -0.18
      vertex 0.318 0.064 -0.18
      vertex 0.323 -0.073 -0.18
    endloop
  endfacet
  facet normal 0.000000 0.000000 1.000000
    outer loop
      vertex 0.323 0.069 -0.18
      vertex 0.182 0.069 -0.18
      vertex 0.187 0.064 -0.18
    endloop
  endfacet
  facet normal 0.000000 0.000000 1.000000
    outer loop
      vertex 0.323 0.069 -0.18
      vertex 0.187 0.064 -0.18
      vertex 0.318 0.064 -0.18
    endloop
  endfacet
  facet normal 1.000000 0.000000 0.000000
    outer loop
      vertex 0.187 0.064 -0.18
      vertex 0.187 -0.068 -0.18
      vertex 0.187 0.064 -0.275
    endloop
  endfacet
  facet normal 1.000000 0.000000 0.000000
    outer loop
      vertex 0.187 0.064 -0.275
      vertex 0.187 -0.068 -0.18
      vertex 0.187 -0.068 -0.275
    endloop
  endfacet
  facet normal -0.000000 1.000000 0.000000
    outer loop
      vertex 0.187 -0.068 -0.18
      vertex 0.318 -0.068 -0.18
      vertex 0.187 -0.068 -0.275
    endloop
  endfacet
  facet normal 0.000000 1.000000 0.000000
    outer loop
      vertex 0.187 -0.068 -0.275
      vertex 0.318 -0.068 -0.18
      vertex 0.318 -0.068 -0.275
    endloop
  endfacet
  facet normal -1.000000 0.000000 0.000000
    outer loop
      vertex 0.318 -0.068 -0.18
      vertex 0.318 0.064 -0.18
      vertex 0.318 -0.068 -0.275
    endloop
  endfacet
  facet normal -1.000000 0.000000 0.000000
    outer loop
      vertex 0.318 -0.068 -0.275
      vertex 0.318 0.064 -0.18
      vertex 0.318 0.064 -0.275
    endloop
  endfacet
  facet normal -0.000000 -1.000000 -0.000000
    outer loop
      vertex 0.318 0.064 -0.18
      vertex 0.187 0.064 -0.18
      vertex 0.318 0.064 -0.275
    endloop
  endfacet
  facet normal 0.000000 -1.000000 0.000000
    outer loop
      vertex 0.318 0.064 -0.275
      vertex 0.187 0.064 -0.18
      vertex 0.187 0.064 -0.275
    endloop
  endfacet
  facet normal 0.000000 0.000000 1.000000
    outer loop
      vertex 0.318 0.064 -0.275
      vertex 0.187 0.064 -0.275
      vertex 0.187 -0.068 -0.275
    endloop
  endfacet
  facet normal 0.000000 0.000000 1.000000
    outer loop
      vertex 0.318 0.064 -0.275
      vertex 0.187 -0.068 -0.275
      vertex 0.318 -0.068 -0.275
    endloop
  endfacet
endsolid
